%
M48
M72
T01C0.01181
T02C0.01378
T03C0.01969
T04C0.02000
T05C0.02200
T06C0.02362
T07C0.03937
T08C0.04000
T09C0.11024
T10C0.19685
T11C0.27559
%
T01
X51508Y30187
X60258Y27687
X76508Y23937
X111508Y42688
X123908Y51062
X131008Y48537
X136197Y48312
X139054Y51562
X142750Y51064
X140830Y56812
X144008Y57062
X149008Y62687
X142133Y64562
X143330Y69563
X139008Y69563
X136633Y74063
X140408Y78063
X145983Y75588
X151508Y77999
X157303Y77939
X162133Y75188
X169633Y73938
X162608Y65512
X165258Y63937
X161508Y60812
X157508Y57687
X155258Y53312
X151460Y55735
X150736Y46915
X157133Y44562
X162758Y43537
X157133Y38938
X156508Y32687
X160883Y33313
X161508Y27062
X152708Y16963
X149633Y12687
X143383Y12687
X146508Y7062
X159033Y14287
X149008Y22062
X142758Y22062
X146455Y32062
X142758Y39263
X140524Y44762
X134008Y38938
X124108Y32112
X134008Y58312
X134008Y63937
X124008Y76388
X134236Y79213
X136258Y85838
X140258Y93312
X140258Y97062
X144008Y99137
X145883Y92687
X151508Y85037
X157817Y85128
X161508Y82688
X164633Y83938
X164008Y88937
X171822Y83938
X173383Y88937
X180883Y83938
X187524Y77376
X190258Y74563
X187966Y72063
X189633Y64763
X182733Y58624
X174633Y62062
X166508Y52062
X158383Y69263
X152833Y69588
X120308Y85163
X122008Y93662
X113383Y92687
X108383Y94562
X108333Y100162
X107333Y109762
X104633Y114562
X107833Y122762
X118383Y125812
X120357Y130811
X123408Y130462
X123371Y139263
X118633Y138963
X119008Y142063
X123383Y143938
X117171Y146975
X122758Y150390
X116658Y158763
X112858Y162463
X112446Y167813
X109058Y166988
X105233Y161063
X89633Y153313
X93383Y149463
X105158Y146563
X110058Y146463
X109733Y139563
X134321Y145188
X136433Y140375
X144946Y134563
X148071Y134875
X147133Y137776
X154636Y133313
X157758Y134563
X160450Y133001
X166508Y134563
X168749Y129403
X171730Y130400
X168599Y123662
X172037Y122491
X178383Y120187
X180883Y122062
X189008Y114937
X190883Y106750
X184358Y101437
X184633Y98312
X186508Y95812
X190658Y98012
X201858Y94012
X205658Y86737
X212758Y83313
X224008Y77063
X230883Y76263
X234658Y78680
X231858Y82963
X242908Y85963
X243608Y90462
X248908Y90562
X258733Y86113
X256508Y77238
X260958Y72963
X251408Y65037
X253747Y61836
X249058Y60687
X248883Y57687
X235883Y59562
X226774Y63307
X231508Y67063
X238867Y72063
X235458Y72763
X243383Y72063
X246508Y80813
X236667Y94900
X227758Y95962
X220883Y95812
X220883Y98962
X217258Y97912
X220883Y102037
X216058Y107112
X221608Y109862
X216430Y115714
X217133Y120187
X220258Y118839
X224858Y120112
X237558Y126062
X236108Y132888
X234958Y137213
X222958Y141663
X218933Y142213
X213833Y141813
X210458Y142113
X214633Y135813
X206508Y129562
X202233Y134338
X199008Y137063
X201508Y142063
X201733Y146313
X204619Y148952
X201508Y152063
X196733Y149013
X191808Y147163
X181733Y152863
X179367Y156700
X182133Y160813
X192218Y160453
X191108Y156088
X195008Y154763
X194834Y164893
X191508Y174562
X176508Y180187
X172108Y180187
X168558Y180187
X164946Y189562
X170408Y190362
X177508Y188962
X147083Y193487
X147208Y201962
X137758Y192687
X126433Y185462
X122283Y184887
X118696Y184562
X103783Y181587
X98958Y190062
X90258Y187062
X90883Y183312
X93658Y171863
X85458Y169863
X78733Y165813
X74888Y167783
X78383Y150813
X67758Y138313
X59008Y138313
X78383Y128937
X83333Y129862
X79008Y120812
X74933Y115162
X54008Y123312
X72133Y95812
X75883Y95812
X70258Y88312
X71408Y83738
X65258Y88312
X98383Y86437
X111508Y79563
X115108Y72838
X102108Y66338
X102133Y61437
X59008Y53937
X30883Y45187
X123908Y102862
X120883Y108312
X115883Y109562
X122758Y118312
X135883Y115812
X136508Y107687
X136508Y124562
X132508Y128562
X134633Y130811
X143148Y127589
X146508Y125187
X150883Y130187
X159008Y127687
X161508Y125187
X167633Y113087
X166158Y108712
X167133Y100187
X160258Y97687
X172758Y97687
X175883Y98312
X203858Y114912
X210958Y115012
X210258Y122062
X204008Y122062
X200258Y122062
X196558Y127062
X193025Y129945
X182133Y137063
X177133Y143313
X163967Y145900
X160883Y146438
X161608Y154763
X161508Y159563
X163858Y167163
X155258Y167063
X145883Y175187
X146583Y178587
X131196Y163000
X127760Y160500
X126821Y163625
X120883Y167688
X133333Y158963
X149008Y157063
X208508Y152163
X218958Y162213
X227008Y151963
X246733Y144213
X257108Y133863
X253508Y125962
X259108Y119662
X273108Y112462
X278708Y116962
X277808Y119962
X282008Y115462
X296387Y119484
X299708Y116162
X301608Y119362
X309308Y117662
X311999Y115437
X311258Y110712
X302308Y108962
X286999Y100662
X281508Y96962
X280808Y103462
X270883Y103937
X281308Y90162
X289599Y89256
X293008Y92962
X287508Y83003
X274708Y80263
X278383Y71438
X296808Y58962
X301908Y58762
X316508Y57062
X323808Y46262
X325608Y39863
X342308Y44962
X353508Y51062
X354608Y61662
X333708Y61562
X325008Y77863
X307599Y87589
X302308Y83563
X300208Y78063
X305469Y74963
X276508Y57062
X265883Y57687
X283313Y39633
X274008Y29562
X250258Y25812
X242133Y25949
X237133Y27062
X246958Y33513
X250258Y38313
X245258Y40813
X241508Y44562
X239008Y47062
X231150Y51825
X218508Y45462
X218782Y41836
X221508Y37063
X223608Y34763
X219008Y34719
X215258Y37063
X209008Y43312
X212308Y43462
X209915Y48988
X217758Y50812
X228694Y43173
X236508Y37063
X239993Y33908
X224008Y21938
X216508Y29562
X212508Y26237
X206508Y24470
X197133Y28312
X190983Y28437
X188383Y26437
X197758Y36438
X194633Y38938
X197508Y40863
X193358Y44237
X192758Y52687
X204008Y34563
X204633Y17688
X204633Y15187
X204633Y12687
X196508Y12687
X231508Y10188
X232241Y13267
X234008Y17063
X239583Y17688
X240258Y13937
X240151Y8313
X247758Y7062
X276508Y7062
X207758Y108000
X267408Y146563
X273133Y147913
X276900Y148270
X276108Y145163
X276769Y140963
X272018Y140872
X274108Y132963
X285927Y134063
X290508Y136863
X292518Y139072
X287402Y140272
X289770Y143971
X285627Y145481
X287408Y147931
X285508Y154369
X276136Y156478
X275758Y161413
X268608Y167363
X278108Y172263
X283380Y174578
X288558Y171613
X285676Y167463
X288858Y163813
X296258Y162913
X300308Y166563
X298508Y173062
X306312Y176362
X312508Y173362
X310208Y166463
X311749Y159328
X309493Y157188
X314008Y150863
X319008Y150963
X314024Y146631
X309908Y147231
X309008Y142963
X308608Y138447
X309708Y134163
X312708Y134163
X317108Y142363
X325218Y142463
X332349Y143263
X326858Y135913
X326558Y151913
X338317Y154503
X340658Y152213
X344008Y157063
X349008Y157063
X349008Y162063
X344008Y162063
X343108Y165263
X342133Y169563
X342608Y173862
X344008Y177062
X349008Y177062
X354008Y177062
X354008Y182062
X349008Y182062
X344008Y182062
X329008Y175312
X329758Y169463
X323308Y159663
X300524Y153978
X299108Y151178
X295308Y156978
X268708Y152978
X255533Y155913
X294908Y181262
X291708Y186517
X296481Y193941
X297708Y199762
X290158Y201312
X282658Y201312
X286408Y193812
X304728Y191062
X308158Y197662
X322458Y203762
X329458Y200262
X329508Y197162
X327658Y192912
X327658Y189337
X312858Y183412
X275108Y209962
X280008Y221062
X280208Y227562
X262908Y225562
X293408Y213162
X299008Y230462
X320058Y210362
X354008Y157063
X346958Y143763
X325408Y112962
X296918Y133363
X207758Y175812
X239608Y195237
X174008Y212062
T02
X161508Y192062
X159627Y189450
X155219Y189562
X147789Y188311
X144926Y186680
X139008Y195753
X136508Y199562
X144008Y204562
X141508Y207062
X162518Y179751
X179608Y179262
X178807Y172264
X204008Y172063
X223640Y164295
X223689Y155143
X232732Y155686
X234957Y142134
X226508Y142163
X225808Y135763
X220308Y135763
X210908Y134763
X201608Y129588
X197133Y134563
X207088Y122064
X220258Y113937
X226508Y107062
X229686Y107062
X228908Y102262
X235748Y103802
X241233Y102562
X250708Y107562
X248808Y110162
X245776Y115151
X252108Y116462
X254052Y122578
X263708Y120962
X279272Y109562
X259308Y105762
X256108Y99462
X255608Y95762
X246389Y95964
X253429Y80113
X237908Y78763
X227493Y78174
X221508Y92062
X217436Y104135
X185973Y92062
X181822Y107376
X184644Y119062
X172815Y134894
X148949Y152003
X134321Y150247
X111194Y132273
X136508Y110858
X144165Y106487
X176508Y72063
X224209Y12263
X270108Y80463
X244533Y132014
X240454Y133020
X245008Y141551
X248708Y141663
X257208Y143063
X264408Y167385
X275008Y171174
X287708Y174692
X300674Y175251
X322908Y164763
X317142Y146734
X354008Y162063
X301408Y196621
X307608Y202562
X319408Y204662
X304108Y210462
X299913Y223024
X309708Y227662
X242386Y169574
X239208Y170163
X129897Y176259
X126719Y177207
X117985Y177839
T03
X251508Y21687
X256508Y21687
X261508Y21687
X261508Y16688
X256508Y16688
X251508Y16688
X266508Y16688
X271508Y16688
X271508Y21687
X266508Y21687
T04
X99008Y97062
X99008Y102062
X99008Y107062
X99008Y112062
X99008Y117062
X89008Y117062
X89008Y112062
X89008Y107062
X89008Y102062
X89008Y97062
X89008Y127062
X89008Y132063
X89008Y137063
X89008Y142063
X89008Y147063
X99008Y147063
X99008Y142063
X99008Y137063
X99008Y132063
X99008Y127062
X99008Y157063
X99008Y162063
X99008Y167063
X99008Y172063
X99008Y177062
X89008Y177062
X89008Y172063
X89008Y167063
X89008Y162063
X89008Y157063
T05
X339008Y169563
T06
X158063Y231196
X58063Y231196
T07
X39008Y193933
X19323Y184090
X39008Y174248
X19323Y164405
X39008Y154563
X19323Y144720
X39008Y134877
X19323Y125035
X39008Y115183
X19323Y105340
X39008Y95498
X19323Y85655
X39008Y75813
X19323Y65970
X39008Y56127
X19323Y46285
T08
X199633Y163313
X209633Y163313
T09
X260819Y194976
X75780Y194976
X75780Y45370
X260819Y45370
T10
X220439Y195835
T11
X86558Y72998
X293339Y25685
M30
