G75*
%MOIN*%
%OFA0B0*%
%FSLAX25Y25*%
%IPPOS*%
%LPD*%
%AMOC8*
5,1,8,0,0,1.08239X$1,22.5*
%
%ADD10C,0.00000*%
%ADD11C,0.01100*%
%ADD12C,0.00600*%
%ADD13C,0.00800*%
%ADD14R,1.50000X0.30000*%
%ADD15C,0.00500*%
%ADD16R,0.00600X0.00300*%
%ADD17R,0.01200X0.00300*%
%ADD18R,0.01500X0.00300*%
%ADD19R,0.01800X0.00300*%
%ADD20R,0.02100X0.00300*%
%ADD21R,0.02400X0.00300*%
%ADD22R,0.02700X0.00300*%
%ADD23R,0.00300X0.00300*%
%ADD24R,0.03000X0.00300*%
%ADD25R,0.00900X0.00300*%
%ADD26R,0.06000X0.00300*%
%ADD27R,0.11400X0.00300*%
%ADD28R,0.14100X0.00300*%
%ADD29R,0.15900X0.00300*%
%ADD30R,0.04200X0.00300*%
%ADD31R,0.09000X0.00300*%
%ADD32R,0.03900X0.00300*%
%ADD33R,0.06600X0.00300*%
%ADD34R,0.03300X0.00300*%
%ADD35R,0.04800X0.00300*%
%ADD36R,0.03600X0.00300*%
%ADD37R,0.13800X0.00300*%
%ADD38R,0.13500X0.00300*%
%ADD39R,0.12300X0.00300*%
%ADD40R,0.09600X0.00300*%
%ADD41R,0.09300X0.00300*%
%ADD42R,0.16200X0.00300*%
%ADD43R,0.07200X0.00300*%
%ADD44R,0.05400X0.00300*%
%ADD45R,0.16500X0.00300*%
%ADD46R,0.15300X0.00300*%
%ADD47R,0.12600X0.00300*%
%ADD48R,0.08700X0.00300*%
%ADD49R,0.12900X0.00300*%
%ADD50R,0.04500X0.00300*%
%ADD51R,0.05700X0.00300*%
%ADD52R,0.06300X0.00300*%
%ADD53R,0.15600X0.00300*%
%ADD54R,0.06900X0.00300*%
%ADD55R,0.09900X0.00300*%
%ADD56R,0.11100X0.00300*%
%ADD57R,0.14400X0.00300*%
%ADD58R,0.10800X0.00300*%
%ADD59R,0.08400X0.00300*%
%ADD60R,0.07500X0.00300*%
%ADD61R,0.05100X0.00300*%
%ADD62R,0.10500X0.00300*%
%ADD63R,0.18300X0.00300*%
%ADD64R,0.19200X0.00300*%
%ADD65R,0.11700X0.00300*%
%ADD66R,0.00200X0.00100*%
%ADD67R,0.00300X0.00100*%
%ADD68R,0.00400X0.00100*%
%ADD69R,0.00600X0.00100*%
%ADD70R,0.00700X0.00100*%
%ADD71R,0.00800X0.00100*%
%ADD72R,0.00900X0.00100*%
%ADD73R,0.01000X0.00100*%
%ADD74R,0.01100X0.00100*%
%ADD75R,0.01200X0.00100*%
%ADD76R,0.01300X0.00100*%
%ADD77R,0.01400X0.00100*%
%ADD78R,0.01500X0.00100*%
%ADD79R,0.01600X0.00100*%
%ADD80R,0.01700X0.00100*%
%ADD81R,0.01800X0.00100*%
%ADD82R,0.01900X0.00100*%
%ADD83R,0.00500X0.00100*%
%ADD84R,0.02000X0.00100*%
%ADD85R,0.02400X0.00100*%
%ADD86R,0.02200X0.00100*%
%ADD87R,0.03000X0.00100*%
%ADD88R,0.03500X0.00100*%
%ADD89R,0.04000X0.00100*%
%ADD90R,0.04200X0.00100*%
%ADD91R,0.04600X0.00100*%
%ADD92R,0.05000X0.00100*%
%ADD93R,0.05200X0.00100*%
%ADD94R,0.05500X0.00100*%
%ADD95R,0.05800X0.00100*%
%ADD96R,0.06000X0.00100*%
%ADD97R,0.06200X0.00100*%
%ADD98R,0.06400X0.00100*%
%ADD99R,0.06600X0.00100*%
%ADD100R,0.06800X0.00100*%
%ADD101R,0.07000X0.00100*%
%ADD102R,0.07200X0.00100*%
%ADD103R,0.07400X0.00100*%
%ADD104R,0.07600X0.00100*%
%ADD105R,0.16200X0.00100*%
%ADD106R,0.03100X0.00100*%
%ADD107R,0.16100X0.00100*%
%ADD108R,0.15900X0.00100*%
%ADD109R,0.02700X0.00100*%
%ADD110R,0.15700X0.00100*%
%ADD111R,0.15500X0.00100*%
%ADD112R,0.02500X0.00100*%
%ADD113R,0.15400X0.00100*%
%ADD114R,0.15300X0.00100*%
%ADD115R,0.15200X0.00100*%
%ADD116R,0.15100X0.00100*%
%ADD117R,0.02100X0.00100*%
%ADD118R,0.02300X0.00100*%
%ADD119R,0.15000X0.00100*%
%ADD120R,0.14900X0.00100*%
%ADD121R,0.02900X0.00100*%
%ADD122R,0.14800X0.00100*%
%ADD123R,0.03200X0.00100*%
%ADD124R,0.03300X0.00100*%
%ADD125R,0.03400X0.00100*%
%ADD126R,0.03600X0.00100*%
%ADD127R,0.03700X0.00100*%
%ADD128R,0.02800X0.00100*%
%ADD129R,0.02600X0.00100*%
%ADD130R,0.04100X0.00100*%
%ADD131R,0.04300X0.00100*%
%ADD132R,0.04500X0.00100*%
%ADD133R,0.04700X0.00100*%
%ADD134R,0.08700X0.00100*%
%ADD135R,0.08600X0.00100*%
%ADD136R,0.08400X0.00100*%
%ADD137R,0.08200X0.00100*%
%ADD138R,0.08000X0.00100*%
%ADD139R,0.07800X0.00100*%
%ADD140R,0.06700X0.00100*%
%ADD141R,0.06500X0.00100*%
%ADD142R,0.03900X0.00100*%
%ADD143R,0.03800X0.00100*%
%ADD144R,0.05700X0.00100*%
%ADD145R,0.05400X0.00100*%
%ADD146R,0.05900X0.00100*%
%ADD147R,0.09200X0.00100*%
%ADD148R,0.09300X0.00100*%
%ADD149R,0.09400X0.00100*%
%ADD150R,0.09500X0.00100*%
%ADD151R,0.09600X0.00100*%
%ADD152R,0.09700X0.00100*%
%ADD153R,0.09800X0.00100*%
%ADD154R,0.07500X0.00100*%
%ADD155R,0.07700X0.00100*%
%ADD156R,0.07300X0.00100*%
%ADD157R,0.07100X0.00100*%
%ADD158R,0.06900X0.00100*%
%ADD159R,0.06300X0.00100*%
%ADD160R,0.05600X0.00100*%
%ADD161R,0.26900X0.00100*%
%ADD162R,0.27000X0.00100*%
%ADD163R,0.27200X0.00100*%
%ADD164R,0.27300X0.00100*%
%ADD165R,0.27400X0.00100*%
%ADD166R,0.27500X0.00100*%
%ADD167R,0.27600X0.00100*%
%ADD168R,0.27700X0.00100*%
%ADD169R,0.27800X0.00100*%
%ADD170R,0.27900X0.00100*%
%ADD171R,0.04800X0.00100*%
%ADD172R,0.04900X0.00100*%
%ADD173R,0.05100X0.00100*%
%ADD174R,0.05300X0.00100*%
%ADD175R,0.04400X0.00100*%
%ADD176R,0.08800X0.00100*%
%ADD177R,0.08500X0.00100*%
%ADD178R,0.08100X0.00100*%
%ADD179R,0.07900X0.00100*%
%ADD180R,0.16500X0.00100*%
%ADD181R,0.13000X0.00100*%
%ADD182R,0.11100X0.00100*%
%ADD183R,0.08900X0.00100*%
%ADD184R,0.00100X0.00100*%
%ADD185R,0.10200X0.00100*%
%ADD186R,0.10400X0.00100*%
%ADD187R,0.10600X0.00100*%
%ADD188R,0.10700X0.00100*%
%ADD189R,0.11000X0.00100*%
%ADD190R,0.11200X0.00100*%
%ADD191R,0.11300X0.00100*%
%ADD192R,0.11700X0.00100*%
%ADD193R,0.10900X0.00100*%
%ADD194R,0.12400X0.00100*%
%ADD195R,0.12600X0.00100*%
%ADD196R,0.12900X0.00100*%
%ADD197R,0.11600X0.00100*%
%ADD198R,0.12100X0.00100*%
%ADD199R,0.13400X0.00100*%
%ADD200R,0.13200X0.00100*%
%ADD201R,0.13600X0.00100*%
%ADD202R,0.14000X0.00100*%
%ADD203R,0.13900X0.00100*%
%ADD204R,0.14200X0.00100*%
%ADD205R,0.14300X0.00100*%
%ADD206R,0.14500X0.00100*%
%ADD207R,0.14700X0.00100*%
%ADD208R,0.15600X0.00100*%
%ADD209R,0.15800X0.00100*%
%ADD210R,0.13100X0.00100*%
%ADD211R,0.16300X0.00100*%
%ADD212R,0.13500X0.00100*%
%ADD213R,0.16700X0.00100*%
%ADD214R,0.13700X0.00100*%
%ADD215R,0.16900X0.00100*%
%ADD216R,0.17100X0.00100*%
%ADD217R,0.17300X0.00100*%
%ADD218R,0.17500X0.00100*%
%ADD219R,0.17600X0.00100*%
%ADD220R,0.17700X0.00100*%
%ADD221R,0.16400X0.00100*%
%ADD222R,0.17900X0.00100*%
%ADD223R,0.18100X0.00100*%
%ADD224R,0.16600X0.00100*%
%ADD225R,0.18200X0.00100*%
%ADD226R,0.18300X0.00100*%
%ADD227R,0.18500X0.00100*%
%ADD228R,0.18600X0.00100*%
%ADD229R,0.18700X0.00100*%
%ADD230R,0.18800X0.00100*%
%ADD231R,0.18900X0.00100*%
%ADD232R,0.19000X0.00100*%
%ADD233R,0.14600X0.00100*%
%ADD234R,0.16000X0.00100*%
%ADD235R,0.18000X0.00100*%
%ADD236R,0.16800X0.00100*%
%ADD237R,0.14400X0.00100*%
%ADD238R,0.18400X0.00100*%
%ADD239R,0.17200X0.00100*%
%ADD240R,0.12700X0.00100*%
%ADD241R,0.12300X0.00100*%
%ADD242R,0.12000X0.00100*%
%ADD243R,0.11400X0.00100*%
%ADD244R,0.19100X0.00100*%
%ADD245R,0.10300X0.00100*%
%ADD246R,0.10100X0.00100*%
%ADD247R,0.19300X0.00100*%
%ADD248R,0.10000X0.00100*%
%ADD249R,0.19400X0.00100*%
%ADD250R,0.19500X0.00100*%
%ADD251R,0.19600X0.00100*%
%ADD252R,0.19700X0.00100*%
%ADD253R,0.09100X0.00100*%
%ADD254R,0.19800X0.00100*%
%ADD255R,0.09000X0.00100*%
%ADD256R,0.20000X0.00100*%
%ADD257R,0.20100X0.00100*%
%ADD258R,0.08300X0.00100*%
%ADD259R,0.20200X0.00100*%
%ADD260R,0.20300X0.00100*%
%ADD261R,0.20400X0.00100*%
%ADD262R,0.20500X0.00100*%
%ADD263R,0.20600X0.00100*%
%ADD264R,0.19200X0.00100*%
%ADD265R,0.20700X0.00100*%
%ADD266R,0.20800X0.00100*%
%ADD267R,0.20900X0.00100*%
%ADD268R,0.21000X0.00100*%
%ADD269R,0.21100X0.00100*%
%ADD270R,0.21200X0.00100*%
%ADD271R,0.21300X0.00100*%
%ADD272R,0.21400X0.00100*%
%ADD273R,0.10500X0.00100*%
%ADD274R,0.10800X0.00100*%
%ADD275R,0.11800X0.00100*%
%ADD276R,0.12200X0.00100*%
%ADD277R,0.12500X0.00100*%
%ADD278R,0.12800X0.00100*%
%ADD279R,0.06100X0.00100*%
%ADD280R,0.19900X0.00100*%
%ADD281R,0.09900X0.00100*%
%ADD282R,0.17400X0.00100*%
%ADD283R,0.14100X0.00100*%
%ADD284R,0.17000X0.00100*%
%ADD285R,0.11900X0.00100*%
%ADD286R,0.13800X0.00100*%
%ADD287R,0.13300X0.00100*%
%ADD288R,0.22000X0.00100*%
%ADD289R,0.22800X0.00100*%
%ADD290R,0.23000X0.00100*%
%ADD291R,0.21700X0.00100*%
%ADD292R,0.23200X0.00100*%
%ADD293R,0.23300X0.00100*%
%ADD294R,0.23500X0.00100*%
%ADD295R,0.23700X0.00100*%
%ADD296R,0.23800X0.00100*%
%ADD297R,0.23900X0.00100*%
%ADD298R,0.24100X0.00100*%
%ADD299R,0.24200X0.00100*%
%ADD300R,0.24300X0.00100*%
%ADD301R,0.24400X0.00100*%
%ADD302R,0.24500X0.00100*%
%ADD303R,0.24600X0.00100*%
%ADD304R,0.22600X0.00100*%
%ADD305R,0.24700X0.00100*%
%ADD306R,0.24800X0.00100*%
%ADD307R,0.22900X0.00100*%
%ADD308R,0.25000X0.00100*%
%ADD309R,0.25100X0.00100*%
%ADD310R,0.25200X0.00100*%
%ADD311R,0.25300X0.00100*%
%ADD312R,0.25400X0.00100*%
%ADD313R,0.25500X0.00100*%
%ADD314R,0.25600X0.00100*%
%ADD315R,0.25700X0.00100*%
%ADD316R,0.25800X0.00100*%
%ADD317R,0.25900X0.00100*%
%ADD318R,0.26000X0.00100*%
%ADD319R,0.26100X0.00100*%
%ADD320R,0.26200X0.00100*%
%ADD321R,0.24900X0.00100*%
%ADD322R,0.26400X0.00100*%
%ADD323R,0.26500X0.00100*%
%ADD324R,0.26600X0.00100*%
%ADD325R,0.26700X0.00100*%
%ADD326R,0.26800X0.00100*%
%ADD327R,0.11500X0.00100*%
%ADD328R,0.26300X0.00100*%
%ADD329R,0.23600X0.00100*%
%ADD330R,0.23400X0.00100*%
%ADD331R,0.22700X0.00100*%
%ADD332R,0.22400X0.00100*%
%ADD333R,0.24000X0.00100*%
%ADD334R,0.22100X0.00100*%
%ADD335R,0.21600X0.00100*%
%ADD336C,0.01000*%
D10*
X0072778Y0072998D02*
X0072782Y0073336D01*
X0072795Y0073674D01*
X0072815Y0074012D01*
X0072844Y0074349D01*
X0072882Y0074685D01*
X0072927Y0075020D01*
X0072981Y0075354D01*
X0073043Y0075686D01*
X0073113Y0076017D01*
X0073191Y0076346D01*
X0073277Y0076673D01*
X0073371Y0076998D01*
X0073474Y0077321D01*
X0073584Y0077640D01*
X0073701Y0077957D01*
X0073827Y0078271D01*
X0073960Y0078582D01*
X0074101Y0078890D01*
X0074249Y0079194D01*
X0074405Y0079494D01*
X0074568Y0079790D01*
X0074738Y0080082D01*
X0074916Y0080370D01*
X0075100Y0080654D01*
X0075292Y0080933D01*
X0075490Y0081207D01*
X0075695Y0081476D01*
X0075906Y0081740D01*
X0076124Y0081999D01*
X0076348Y0082252D01*
X0076578Y0082500D01*
X0076814Y0082742D01*
X0077056Y0082978D01*
X0077304Y0083208D01*
X0077557Y0083432D01*
X0077816Y0083650D01*
X0078080Y0083861D01*
X0078349Y0084066D01*
X0078623Y0084264D01*
X0078902Y0084456D01*
X0079186Y0084640D01*
X0079474Y0084818D01*
X0079766Y0084988D01*
X0080062Y0085151D01*
X0080362Y0085307D01*
X0080666Y0085455D01*
X0080974Y0085596D01*
X0081285Y0085729D01*
X0081599Y0085855D01*
X0081916Y0085972D01*
X0082235Y0086082D01*
X0082558Y0086185D01*
X0082883Y0086279D01*
X0083210Y0086365D01*
X0083539Y0086443D01*
X0083870Y0086513D01*
X0084202Y0086575D01*
X0084536Y0086629D01*
X0084871Y0086674D01*
X0085207Y0086712D01*
X0085544Y0086741D01*
X0085882Y0086761D01*
X0086220Y0086774D01*
X0086558Y0086778D01*
X0086896Y0086774D01*
X0087234Y0086761D01*
X0087572Y0086741D01*
X0087909Y0086712D01*
X0088245Y0086674D01*
X0088580Y0086629D01*
X0088914Y0086575D01*
X0089246Y0086513D01*
X0089577Y0086443D01*
X0089906Y0086365D01*
X0090233Y0086279D01*
X0090558Y0086185D01*
X0090881Y0086082D01*
X0091200Y0085972D01*
X0091517Y0085855D01*
X0091831Y0085729D01*
X0092142Y0085596D01*
X0092450Y0085455D01*
X0092754Y0085307D01*
X0093054Y0085151D01*
X0093350Y0084988D01*
X0093642Y0084818D01*
X0093930Y0084640D01*
X0094214Y0084456D01*
X0094493Y0084264D01*
X0094767Y0084066D01*
X0095036Y0083861D01*
X0095300Y0083650D01*
X0095559Y0083432D01*
X0095812Y0083208D01*
X0096060Y0082978D01*
X0096302Y0082742D01*
X0096538Y0082500D01*
X0096768Y0082252D01*
X0096992Y0081999D01*
X0097210Y0081740D01*
X0097421Y0081476D01*
X0097626Y0081207D01*
X0097824Y0080933D01*
X0098016Y0080654D01*
X0098200Y0080370D01*
X0098378Y0080082D01*
X0098548Y0079790D01*
X0098711Y0079494D01*
X0098867Y0079194D01*
X0099015Y0078890D01*
X0099156Y0078582D01*
X0099289Y0078271D01*
X0099415Y0077957D01*
X0099532Y0077640D01*
X0099642Y0077321D01*
X0099745Y0076998D01*
X0099839Y0076673D01*
X0099925Y0076346D01*
X0100003Y0076017D01*
X0100073Y0075686D01*
X0100135Y0075354D01*
X0100189Y0075020D01*
X0100234Y0074685D01*
X0100272Y0074349D01*
X0100301Y0074012D01*
X0100321Y0073674D01*
X0100334Y0073336D01*
X0100338Y0072998D01*
X0100334Y0072660D01*
X0100321Y0072322D01*
X0100301Y0071984D01*
X0100272Y0071647D01*
X0100234Y0071311D01*
X0100189Y0070976D01*
X0100135Y0070642D01*
X0100073Y0070310D01*
X0100003Y0069979D01*
X0099925Y0069650D01*
X0099839Y0069323D01*
X0099745Y0068998D01*
X0099642Y0068675D01*
X0099532Y0068356D01*
X0099415Y0068039D01*
X0099289Y0067725D01*
X0099156Y0067414D01*
X0099015Y0067106D01*
X0098867Y0066802D01*
X0098711Y0066502D01*
X0098548Y0066206D01*
X0098378Y0065914D01*
X0098200Y0065626D01*
X0098016Y0065342D01*
X0097824Y0065063D01*
X0097626Y0064789D01*
X0097421Y0064520D01*
X0097210Y0064256D01*
X0096992Y0063997D01*
X0096768Y0063744D01*
X0096538Y0063496D01*
X0096302Y0063254D01*
X0096060Y0063018D01*
X0095812Y0062788D01*
X0095559Y0062564D01*
X0095300Y0062346D01*
X0095036Y0062135D01*
X0094767Y0061930D01*
X0094493Y0061732D01*
X0094214Y0061540D01*
X0093930Y0061356D01*
X0093642Y0061178D01*
X0093350Y0061008D01*
X0093054Y0060845D01*
X0092754Y0060689D01*
X0092450Y0060541D01*
X0092142Y0060400D01*
X0091831Y0060267D01*
X0091517Y0060141D01*
X0091200Y0060024D01*
X0090881Y0059914D01*
X0090558Y0059811D01*
X0090233Y0059717D01*
X0089906Y0059631D01*
X0089577Y0059553D01*
X0089246Y0059483D01*
X0088914Y0059421D01*
X0088580Y0059367D01*
X0088245Y0059322D01*
X0087909Y0059284D01*
X0087572Y0059255D01*
X0087234Y0059235D01*
X0086896Y0059222D01*
X0086558Y0059218D01*
X0086220Y0059222D01*
X0085882Y0059235D01*
X0085544Y0059255D01*
X0085207Y0059284D01*
X0084871Y0059322D01*
X0084536Y0059367D01*
X0084202Y0059421D01*
X0083870Y0059483D01*
X0083539Y0059553D01*
X0083210Y0059631D01*
X0082883Y0059717D01*
X0082558Y0059811D01*
X0082235Y0059914D01*
X0081916Y0060024D01*
X0081599Y0060141D01*
X0081285Y0060267D01*
X0080974Y0060400D01*
X0080666Y0060541D01*
X0080362Y0060689D01*
X0080062Y0060845D01*
X0079766Y0061008D01*
X0079474Y0061178D01*
X0079186Y0061356D01*
X0078902Y0061540D01*
X0078623Y0061732D01*
X0078349Y0061930D01*
X0078080Y0062135D01*
X0077816Y0062346D01*
X0077557Y0062564D01*
X0077304Y0062788D01*
X0077056Y0063018D01*
X0076814Y0063254D01*
X0076578Y0063496D01*
X0076348Y0063744D01*
X0076124Y0063997D01*
X0075906Y0064256D01*
X0075695Y0064520D01*
X0075490Y0064789D01*
X0075292Y0065063D01*
X0075100Y0065342D01*
X0074916Y0065626D01*
X0074738Y0065914D01*
X0074568Y0066206D01*
X0074405Y0066502D01*
X0074249Y0066802D01*
X0074101Y0067106D01*
X0073960Y0067414D01*
X0073827Y0067725D01*
X0073701Y0068039D01*
X0073584Y0068356D01*
X0073474Y0068675D01*
X0073371Y0068998D01*
X0073277Y0069323D01*
X0073191Y0069650D01*
X0073113Y0069979D01*
X0073043Y0070310D01*
X0072981Y0070642D01*
X0072927Y0070976D01*
X0072882Y0071311D01*
X0072844Y0071647D01*
X0072815Y0071984D01*
X0072795Y0072322D01*
X0072782Y0072660D01*
X0072778Y0072998D01*
X0210596Y0195835D02*
X0210599Y0196077D01*
X0210608Y0196318D01*
X0210623Y0196559D01*
X0210643Y0196800D01*
X0210670Y0197040D01*
X0210703Y0197279D01*
X0210741Y0197518D01*
X0210785Y0197755D01*
X0210835Y0197992D01*
X0210891Y0198227D01*
X0210953Y0198460D01*
X0211020Y0198692D01*
X0211093Y0198923D01*
X0211171Y0199151D01*
X0211256Y0199377D01*
X0211345Y0199602D01*
X0211440Y0199824D01*
X0211541Y0200043D01*
X0211647Y0200261D01*
X0211758Y0200475D01*
X0211875Y0200687D01*
X0211996Y0200895D01*
X0212123Y0201101D01*
X0212255Y0201303D01*
X0212392Y0201503D01*
X0212533Y0201698D01*
X0212679Y0201891D01*
X0212830Y0202079D01*
X0212986Y0202264D01*
X0213146Y0202445D01*
X0213310Y0202622D01*
X0213479Y0202795D01*
X0213652Y0202964D01*
X0213829Y0203128D01*
X0214010Y0203288D01*
X0214195Y0203444D01*
X0214383Y0203595D01*
X0214576Y0203741D01*
X0214771Y0203882D01*
X0214971Y0204019D01*
X0215173Y0204151D01*
X0215379Y0204278D01*
X0215587Y0204399D01*
X0215799Y0204516D01*
X0216013Y0204627D01*
X0216231Y0204733D01*
X0216450Y0204834D01*
X0216672Y0204929D01*
X0216897Y0205018D01*
X0217123Y0205103D01*
X0217351Y0205181D01*
X0217582Y0205254D01*
X0217814Y0205321D01*
X0218047Y0205383D01*
X0218282Y0205439D01*
X0218519Y0205489D01*
X0218756Y0205533D01*
X0218995Y0205571D01*
X0219234Y0205604D01*
X0219474Y0205631D01*
X0219715Y0205651D01*
X0219956Y0205666D01*
X0220197Y0205675D01*
X0220439Y0205678D01*
X0220681Y0205675D01*
X0220922Y0205666D01*
X0221163Y0205651D01*
X0221404Y0205631D01*
X0221644Y0205604D01*
X0221883Y0205571D01*
X0222122Y0205533D01*
X0222359Y0205489D01*
X0222596Y0205439D01*
X0222831Y0205383D01*
X0223064Y0205321D01*
X0223296Y0205254D01*
X0223527Y0205181D01*
X0223755Y0205103D01*
X0223981Y0205018D01*
X0224206Y0204929D01*
X0224428Y0204834D01*
X0224647Y0204733D01*
X0224865Y0204627D01*
X0225079Y0204516D01*
X0225291Y0204399D01*
X0225499Y0204278D01*
X0225705Y0204151D01*
X0225907Y0204019D01*
X0226107Y0203882D01*
X0226302Y0203741D01*
X0226495Y0203595D01*
X0226683Y0203444D01*
X0226868Y0203288D01*
X0227049Y0203128D01*
X0227226Y0202964D01*
X0227399Y0202795D01*
X0227568Y0202622D01*
X0227732Y0202445D01*
X0227892Y0202264D01*
X0228048Y0202079D01*
X0228199Y0201891D01*
X0228345Y0201698D01*
X0228486Y0201503D01*
X0228623Y0201303D01*
X0228755Y0201101D01*
X0228882Y0200895D01*
X0229003Y0200687D01*
X0229120Y0200475D01*
X0229231Y0200261D01*
X0229337Y0200043D01*
X0229438Y0199824D01*
X0229533Y0199602D01*
X0229622Y0199377D01*
X0229707Y0199151D01*
X0229785Y0198923D01*
X0229858Y0198692D01*
X0229925Y0198460D01*
X0229987Y0198227D01*
X0230043Y0197992D01*
X0230093Y0197755D01*
X0230137Y0197518D01*
X0230175Y0197279D01*
X0230208Y0197040D01*
X0230235Y0196800D01*
X0230255Y0196559D01*
X0230270Y0196318D01*
X0230279Y0196077D01*
X0230282Y0195835D01*
X0230279Y0195593D01*
X0230270Y0195352D01*
X0230255Y0195111D01*
X0230235Y0194870D01*
X0230208Y0194630D01*
X0230175Y0194391D01*
X0230137Y0194152D01*
X0230093Y0193915D01*
X0230043Y0193678D01*
X0229987Y0193443D01*
X0229925Y0193210D01*
X0229858Y0192978D01*
X0229785Y0192747D01*
X0229707Y0192519D01*
X0229622Y0192293D01*
X0229533Y0192068D01*
X0229438Y0191846D01*
X0229337Y0191627D01*
X0229231Y0191409D01*
X0229120Y0191195D01*
X0229003Y0190983D01*
X0228882Y0190775D01*
X0228755Y0190569D01*
X0228623Y0190367D01*
X0228486Y0190167D01*
X0228345Y0189972D01*
X0228199Y0189779D01*
X0228048Y0189591D01*
X0227892Y0189406D01*
X0227732Y0189225D01*
X0227568Y0189048D01*
X0227399Y0188875D01*
X0227226Y0188706D01*
X0227049Y0188542D01*
X0226868Y0188382D01*
X0226683Y0188226D01*
X0226495Y0188075D01*
X0226302Y0187929D01*
X0226107Y0187788D01*
X0225907Y0187651D01*
X0225705Y0187519D01*
X0225499Y0187392D01*
X0225291Y0187271D01*
X0225079Y0187154D01*
X0224865Y0187043D01*
X0224647Y0186937D01*
X0224428Y0186836D01*
X0224206Y0186741D01*
X0223981Y0186652D01*
X0223755Y0186567D01*
X0223527Y0186489D01*
X0223296Y0186416D01*
X0223064Y0186349D01*
X0222831Y0186287D01*
X0222596Y0186231D01*
X0222359Y0186181D01*
X0222122Y0186137D01*
X0221883Y0186099D01*
X0221644Y0186066D01*
X0221404Y0186039D01*
X0221163Y0186019D01*
X0220922Y0186004D01*
X0220681Y0185995D01*
X0220439Y0185992D01*
X0220197Y0185995D01*
X0219956Y0186004D01*
X0219715Y0186019D01*
X0219474Y0186039D01*
X0219234Y0186066D01*
X0218995Y0186099D01*
X0218756Y0186137D01*
X0218519Y0186181D01*
X0218282Y0186231D01*
X0218047Y0186287D01*
X0217814Y0186349D01*
X0217582Y0186416D01*
X0217351Y0186489D01*
X0217123Y0186567D01*
X0216897Y0186652D01*
X0216672Y0186741D01*
X0216450Y0186836D01*
X0216231Y0186937D01*
X0216013Y0187043D01*
X0215799Y0187154D01*
X0215587Y0187271D01*
X0215379Y0187392D01*
X0215173Y0187519D01*
X0214971Y0187651D01*
X0214771Y0187788D01*
X0214576Y0187929D01*
X0214383Y0188075D01*
X0214195Y0188226D01*
X0214010Y0188382D01*
X0213829Y0188542D01*
X0213652Y0188706D01*
X0213479Y0188875D01*
X0213310Y0189048D01*
X0213146Y0189225D01*
X0212986Y0189406D01*
X0212830Y0189591D01*
X0212679Y0189779D01*
X0212533Y0189972D01*
X0212392Y0190167D01*
X0212255Y0190367D01*
X0212123Y0190569D01*
X0211996Y0190775D01*
X0211875Y0190983D01*
X0211758Y0191195D01*
X0211647Y0191409D01*
X0211541Y0191627D01*
X0211440Y0191846D01*
X0211345Y0192068D01*
X0211256Y0192293D01*
X0211171Y0192519D01*
X0211093Y0192747D01*
X0211020Y0192978D01*
X0210953Y0193210D01*
X0210891Y0193443D01*
X0210835Y0193678D01*
X0210785Y0193915D01*
X0210741Y0194152D01*
X0210703Y0194391D01*
X0210670Y0194630D01*
X0210643Y0194870D01*
X0210623Y0195111D01*
X0210608Y0195352D01*
X0210599Y0195593D01*
X0210596Y0195835D01*
X0279559Y0025685D02*
X0279563Y0026023D01*
X0279576Y0026361D01*
X0279596Y0026699D01*
X0279625Y0027036D01*
X0279663Y0027372D01*
X0279708Y0027707D01*
X0279762Y0028041D01*
X0279824Y0028373D01*
X0279894Y0028704D01*
X0279972Y0029033D01*
X0280058Y0029360D01*
X0280152Y0029685D01*
X0280255Y0030008D01*
X0280365Y0030327D01*
X0280482Y0030644D01*
X0280608Y0030958D01*
X0280741Y0031269D01*
X0280882Y0031577D01*
X0281030Y0031881D01*
X0281186Y0032181D01*
X0281349Y0032477D01*
X0281519Y0032769D01*
X0281697Y0033057D01*
X0281881Y0033341D01*
X0282073Y0033620D01*
X0282271Y0033894D01*
X0282476Y0034163D01*
X0282687Y0034427D01*
X0282905Y0034686D01*
X0283129Y0034939D01*
X0283359Y0035187D01*
X0283595Y0035429D01*
X0283837Y0035665D01*
X0284085Y0035895D01*
X0284338Y0036119D01*
X0284597Y0036337D01*
X0284861Y0036548D01*
X0285130Y0036753D01*
X0285404Y0036951D01*
X0285683Y0037143D01*
X0285967Y0037327D01*
X0286255Y0037505D01*
X0286547Y0037675D01*
X0286843Y0037838D01*
X0287143Y0037994D01*
X0287447Y0038142D01*
X0287755Y0038283D01*
X0288066Y0038416D01*
X0288380Y0038542D01*
X0288697Y0038659D01*
X0289016Y0038769D01*
X0289339Y0038872D01*
X0289664Y0038966D01*
X0289991Y0039052D01*
X0290320Y0039130D01*
X0290651Y0039200D01*
X0290983Y0039262D01*
X0291317Y0039316D01*
X0291652Y0039361D01*
X0291988Y0039399D01*
X0292325Y0039428D01*
X0292663Y0039448D01*
X0293001Y0039461D01*
X0293339Y0039465D01*
X0293677Y0039461D01*
X0294015Y0039448D01*
X0294353Y0039428D01*
X0294690Y0039399D01*
X0295026Y0039361D01*
X0295361Y0039316D01*
X0295695Y0039262D01*
X0296027Y0039200D01*
X0296358Y0039130D01*
X0296687Y0039052D01*
X0297014Y0038966D01*
X0297339Y0038872D01*
X0297662Y0038769D01*
X0297981Y0038659D01*
X0298298Y0038542D01*
X0298612Y0038416D01*
X0298923Y0038283D01*
X0299231Y0038142D01*
X0299535Y0037994D01*
X0299835Y0037838D01*
X0300131Y0037675D01*
X0300423Y0037505D01*
X0300711Y0037327D01*
X0300995Y0037143D01*
X0301274Y0036951D01*
X0301548Y0036753D01*
X0301817Y0036548D01*
X0302081Y0036337D01*
X0302340Y0036119D01*
X0302593Y0035895D01*
X0302841Y0035665D01*
X0303083Y0035429D01*
X0303319Y0035187D01*
X0303549Y0034939D01*
X0303773Y0034686D01*
X0303991Y0034427D01*
X0304202Y0034163D01*
X0304407Y0033894D01*
X0304605Y0033620D01*
X0304797Y0033341D01*
X0304981Y0033057D01*
X0305159Y0032769D01*
X0305329Y0032477D01*
X0305492Y0032181D01*
X0305648Y0031881D01*
X0305796Y0031577D01*
X0305937Y0031269D01*
X0306070Y0030958D01*
X0306196Y0030644D01*
X0306313Y0030327D01*
X0306423Y0030008D01*
X0306526Y0029685D01*
X0306620Y0029360D01*
X0306706Y0029033D01*
X0306784Y0028704D01*
X0306854Y0028373D01*
X0306916Y0028041D01*
X0306970Y0027707D01*
X0307015Y0027372D01*
X0307053Y0027036D01*
X0307082Y0026699D01*
X0307102Y0026361D01*
X0307115Y0026023D01*
X0307119Y0025685D01*
X0307115Y0025347D01*
X0307102Y0025009D01*
X0307082Y0024671D01*
X0307053Y0024334D01*
X0307015Y0023998D01*
X0306970Y0023663D01*
X0306916Y0023329D01*
X0306854Y0022997D01*
X0306784Y0022666D01*
X0306706Y0022337D01*
X0306620Y0022010D01*
X0306526Y0021685D01*
X0306423Y0021362D01*
X0306313Y0021043D01*
X0306196Y0020726D01*
X0306070Y0020412D01*
X0305937Y0020101D01*
X0305796Y0019793D01*
X0305648Y0019489D01*
X0305492Y0019189D01*
X0305329Y0018893D01*
X0305159Y0018601D01*
X0304981Y0018313D01*
X0304797Y0018029D01*
X0304605Y0017750D01*
X0304407Y0017476D01*
X0304202Y0017207D01*
X0303991Y0016943D01*
X0303773Y0016684D01*
X0303549Y0016431D01*
X0303319Y0016183D01*
X0303083Y0015941D01*
X0302841Y0015705D01*
X0302593Y0015475D01*
X0302340Y0015251D01*
X0302081Y0015033D01*
X0301817Y0014822D01*
X0301548Y0014617D01*
X0301274Y0014419D01*
X0300995Y0014227D01*
X0300711Y0014043D01*
X0300423Y0013865D01*
X0300131Y0013695D01*
X0299835Y0013532D01*
X0299535Y0013376D01*
X0299231Y0013228D01*
X0298923Y0013087D01*
X0298612Y0012954D01*
X0298298Y0012828D01*
X0297981Y0012711D01*
X0297662Y0012601D01*
X0297339Y0012498D01*
X0297014Y0012404D01*
X0296687Y0012318D01*
X0296358Y0012240D01*
X0296027Y0012170D01*
X0295695Y0012108D01*
X0295361Y0012054D01*
X0295026Y0012009D01*
X0294690Y0011971D01*
X0294353Y0011942D01*
X0294015Y0011922D01*
X0293677Y0011909D01*
X0293339Y0011905D01*
X0293001Y0011909D01*
X0292663Y0011922D01*
X0292325Y0011942D01*
X0291988Y0011971D01*
X0291652Y0012009D01*
X0291317Y0012054D01*
X0290983Y0012108D01*
X0290651Y0012170D01*
X0290320Y0012240D01*
X0289991Y0012318D01*
X0289664Y0012404D01*
X0289339Y0012498D01*
X0289016Y0012601D01*
X0288697Y0012711D01*
X0288380Y0012828D01*
X0288066Y0012954D01*
X0287755Y0013087D01*
X0287447Y0013228D01*
X0287143Y0013376D01*
X0286843Y0013532D01*
X0286547Y0013695D01*
X0286255Y0013865D01*
X0285967Y0014043D01*
X0285683Y0014227D01*
X0285404Y0014419D01*
X0285130Y0014617D01*
X0284861Y0014822D01*
X0284597Y0015033D01*
X0284338Y0015251D01*
X0284085Y0015475D01*
X0283837Y0015705D01*
X0283595Y0015941D01*
X0283359Y0016183D01*
X0283129Y0016431D01*
X0282905Y0016684D01*
X0282687Y0016943D01*
X0282476Y0017207D01*
X0282271Y0017476D01*
X0282073Y0017750D01*
X0281881Y0018029D01*
X0281697Y0018313D01*
X0281519Y0018601D01*
X0281349Y0018893D01*
X0281186Y0019189D01*
X0281030Y0019489D01*
X0280882Y0019793D01*
X0280741Y0020101D01*
X0280608Y0020412D01*
X0280482Y0020726D01*
X0280365Y0021043D01*
X0280255Y0021362D01*
X0280152Y0021685D01*
X0280058Y0022010D01*
X0279972Y0022337D01*
X0279894Y0022666D01*
X0279824Y0022997D01*
X0279762Y0023329D01*
X0279708Y0023663D01*
X0279663Y0023998D01*
X0279625Y0024334D01*
X0279596Y0024671D01*
X0279576Y0025009D01*
X0279563Y0025347D01*
X0279559Y0025685D01*
D11*
X0138458Y0217612D02*
X0138458Y0223518D01*
X0135506Y0223518D01*
X0134522Y0222533D01*
X0134522Y0220565D01*
X0135506Y0219581D01*
X0138458Y0219581D01*
X0136490Y0219581D02*
X0134522Y0217612D01*
X0132013Y0218597D02*
X0132013Y0220565D01*
X0131029Y0221549D01*
X0129060Y0221549D01*
X0128076Y0220565D01*
X0128076Y0219581D01*
X0132013Y0219581D01*
X0132013Y0218597D02*
X0131029Y0217612D01*
X0129060Y0217612D01*
X0125567Y0218597D02*
X0125567Y0220565D01*
X0124583Y0221549D01*
X0122615Y0221549D01*
X0121631Y0220565D01*
X0121631Y0219581D01*
X0125567Y0219581D01*
X0125567Y0218597D02*
X0124583Y0217612D01*
X0122615Y0217612D01*
X0119122Y0218597D02*
X0119122Y0220565D01*
X0118138Y0221549D01*
X0115185Y0221549D01*
X0115185Y0223518D02*
X0115185Y0217612D01*
X0118138Y0217612D01*
X0119122Y0218597D01*
X0103458Y0218597D02*
X0102474Y0217612D01*
X0099522Y0217612D01*
X0097013Y0218597D02*
X0097013Y0220565D01*
X0096029Y0221549D01*
X0094060Y0221549D01*
X0093076Y0220565D01*
X0093076Y0218597D01*
X0094060Y0217612D01*
X0096029Y0217612D01*
X0097013Y0218597D01*
X0099522Y0221549D02*
X0102474Y0221549D01*
X0103458Y0220565D01*
X0103458Y0218597D01*
X0090567Y0217612D02*
X0090567Y0221549D01*
X0087615Y0221549D01*
X0086631Y0220565D01*
X0086631Y0217612D01*
X0083138Y0218597D02*
X0082154Y0217612D01*
X0083138Y0218597D02*
X0083138Y0222533D01*
X0084122Y0221549D02*
X0082154Y0221549D01*
X0078841Y0221549D02*
X0076872Y0221549D01*
X0075888Y0220565D01*
X0075888Y0217612D01*
X0078841Y0217612D01*
X0079825Y0218597D01*
X0078841Y0219581D01*
X0075888Y0219581D01*
X0073379Y0220565D02*
X0073379Y0218597D01*
X0072395Y0217612D01*
X0069443Y0217612D01*
X0065950Y0218597D02*
X0064966Y0217612D01*
X0065950Y0218597D02*
X0065950Y0222533D01*
X0066934Y0221549D02*
X0064966Y0221549D01*
X0069443Y0221549D02*
X0072395Y0221549D01*
X0073379Y0220565D01*
D12*
X0021508Y0040462D02*
X0021931Y0040457D01*
X0022353Y0040442D01*
X0022776Y0040416D01*
X0023197Y0040380D01*
X0023617Y0040334D01*
X0024037Y0040278D01*
X0024454Y0040212D01*
X0024870Y0040136D01*
X0025284Y0040050D01*
X0025696Y0039953D01*
X0026105Y0039847D01*
X0026512Y0039731D01*
X0026916Y0039605D01*
X0027316Y0039470D01*
X0027714Y0039325D01*
X0028107Y0039170D01*
X0028497Y0039006D01*
X0028883Y0038832D01*
X0029264Y0038649D01*
X0029641Y0038457D01*
X0030013Y0038256D01*
X0030380Y0038046D01*
X0030742Y0037828D01*
X0031098Y0037600D01*
X0031449Y0037364D01*
X0031794Y0037120D01*
X0032133Y0036867D01*
X0032466Y0036606D01*
X0032793Y0036338D01*
X0033113Y0036061D01*
X0033426Y0035777D01*
X0033732Y0035485D01*
X0034031Y0035186D01*
X0034323Y0034880D01*
X0034607Y0034567D01*
X0034884Y0034247D01*
X0035152Y0033920D01*
X0035413Y0033587D01*
X0035666Y0033248D01*
X0035910Y0032903D01*
X0036146Y0032552D01*
X0036374Y0032196D01*
X0036592Y0031834D01*
X0036802Y0031467D01*
X0037003Y0031095D01*
X0037195Y0030718D01*
X0037378Y0030337D01*
X0037552Y0029951D01*
X0037716Y0029561D01*
X0037871Y0029168D01*
X0038016Y0028770D01*
X0038151Y0028370D01*
X0038277Y0027966D01*
X0038393Y0027559D01*
X0038499Y0027150D01*
X0038596Y0026738D01*
X0038682Y0026324D01*
X0038758Y0025908D01*
X0038824Y0025491D01*
X0038880Y0025071D01*
X0038926Y0024651D01*
X0038962Y0024230D01*
X0038988Y0023807D01*
X0039003Y0023385D01*
X0039008Y0022962D01*
X0039008Y0015462D01*
X0039012Y0015160D01*
X0039023Y0014858D01*
X0039041Y0014557D01*
X0039066Y0014256D01*
X0039099Y0013955D01*
X0039139Y0013656D01*
X0039186Y0013358D01*
X0039241Y0013060D01*
X0039302Y0012765D01*
X0039371Y0012471D01*
X0039447Y0012178D01*
X0039530Y0011888D01*
X0039620Y0011599D01*
X0039717Y0011313D01*
X0039820Y0011029D01*
X0039931Y0010748D01*
X0040048Y0010470D01*
X0040172Y0010194D01*
X0040303Y0009922D01*
X0040440Y0009653D01*
X0040583Y0009387D01*
X0040733Y0009125D01*
X0040890Y0008866D01*
X0041052Y0008612D01*
X0041221Y0008361D01*
X0041395Y0008115D01*
X0041576Y0007872D01*
X0041762Y0007635D01*
X0041954Y0007401D01*
X0042152Y0007173D01*
X0042355Y0006949D01*
X0042563Y0006731D01*
X0042777Y0006517D01*
X0042995Y0006309D01*
X0043219Y0006106D01*
X0043447Y0005908D01*
X0043681Y0005716D01*
X0043918Y0005530D01*
X0044161Y0005349D01*
X0044407Y0005175D01*
X0044658Y0005006D01*
X0044912Y0004844D01*
X0045171Y0004687D01*
X0045433Y0004537D01*
X0045699Y0004394D01*
X0045968Y0004257D01*
X0046240Y0004126D01*
X0046516Y0004002D01*
X0046794Y0003885D01*
X0047075Y0003774D01*
X0047359Y0003671D01*
X0047645Y0003574D01*
X0047934Y0003484D01*
X0048224Y0003401D01*
X0048517Y0003325D01*
X0048811Y0003256D01*
X0049106Y0003195D01*
X0049404Y0003140D01*
X0049702Y0003093D01*
X0050001Y0003053D01*
X0050302Y0003020D01*
X0050603Y0002995D01*
X0050904Y0002977D01*
X0051206Y0002966D01*
X0051508Y0002962D01*
X0309008Y0002962D01*
X0309435Y0003034D01*
X0309860Y0003116D01*
X0310283Y0003208D01*
X0310703Y0003310D01*
X0311121Y0003423D01*
X0311536Y0003546D01*
X0311947Y0003679D01*
X0312356Y0003822D01*
X0312761Y0003975D01*
X0313162Y0004137D01*
X0313558Y0004310D01*
X0313951Y0004492D01*
X0314339Y0004684D01*
X0314722Y0004885D01*
X0315100Y0005095D01*
X0315473Y0005315D01*
X0315840Y0005544D01*
X0316202Y0005781D01*
X0316557Y0006027D01*
X0316907Y0006282D01*
X0317250Y0006546D01*
X0317587Y0006817D01*
X0317917Y0007097D01*
X0318240Y0007385D01*
X0318556Y0007681D01*
X0318865Y0007984D01*
X0319166Y0008295D01*
X0319459Y0008613D01*
X0319745Y0008938D01*
X0320022Y0009270D01*
X0320292Y0009608D01*
X0320553Y0009953D01*
X0320805Y0010305D01*
X0321049Y0010662D01*
X0321284Y0011026D01*
X0321510Y0011394D01*
X0321727Y0011769D01*
X0321935Y0012148D01*
X0322134Y0012533D01*
X0322323Y0012922D01*
X0322502Y0013316D01*
X0322672Y0013714D01*
X0322832Y0014116D01*
X0322982Y0014522D01*
X0323122Y0014931D01*
X0323252Y0015344D01*
X0323372Y0015759D01*
X0323482Y0016178D01*
X0323582Y0016599D01*
X0323671Y0017022D01*
X0323750Y0017448D01*
X0323818Y0017875D01*
X0323876Y0018304D01*
X0323923Y0018734D01*
X0323960Y0019165D01*
X0323987Y0019597D01*
X0324003Y0020029D01*
X0324008Y0020462D01*
X0324008Y0020463D02*
X0324008Y0025462D01*
X0324012Y0025824D01*
X0324026Y0026187D01*
X0324047Y0026549D01*
X0324078Y0026910D01*
X0324117Y0027270D01*
X0324165Y0027629D01*
X0324222Y0027987D01*
X0324287Y0028344D01*
X0324361Y0028699D01*
X0324444Y0029052D01*
X0324535Y0029403D01*
X0324634Y0029751D01*
X0324742Y0030097D01*
X0324858Y0030441D01*
X0324983Y0030781D01*
X0325115Y0031118D01*
X0325256Y0031452D01*
X0325405Y0031783D01*
X0325562Y0032110D01*
X0325726Y0032433D01*
X0325898Y0032752D01*
X0326078Y0033066D01*
X0326266Y0033377D01*
X0326461Y0033682D01*
X0326663Y0033983D01*
X0326873Y0034279D01*
X0327089Y0034569D01*
X0327313Y0034855D01*
X0327543Y0035135D01*
X0327780Y0035409D01*
X0328024Y0035677D01*
X0328274Y0035940D01*
X0328530Y0036196D01*
X0328793Y0036446D01*
X0329061Y0036690D01*
X0329335Y0036927D01*
X0329615Y0037157D01*
X0329901Y0037381D01*
X0330191Y0037597D01*
X0330487Y0037807D01*
X0330788Y0038009D01*
X0331093Y0038204D01*
X0331404Y0038392D01*
X0331718Y0038572D01*
X0332037Y0038744D01*
X0332360Y0038908D01*
X0332687Y0039065D01*
X0333018Y0039214D01*
X0333352Y0039355D01*
X0333689Y0039487D01*
X0334029Y0039612D01*
X0334373Y0039728D01*
X0334719Y0039836D01*
X0335067Y0039935D01*
X0335418Y0040026D01*
X0335771Y0040109D01*
X0336126Y0040183D01*
X0336483Y0040248D01*
X0336841Y0040305D01*
X0337200Y0040353D01*
X0337560Y0040392D01*
X0337921Y0040423D01*
X0338283Y0040444D01*
X0338646Y0040458D01*
X0339008Y0040462D01*
X0339008Y0040463D02*
X0349008Y0040463D01*
X0349008Y0040462D02*
X0349310Y0040466D01*
X0349612Y0040477D01*
X0349913Y0040495D01*
X0350214Y0040520D01*
X0350515Y0040553D01*
X0350814Y0040593D01*
X0351112Y0040640D01*
X0351410Y0040695D01*
X0351705Y0040756D01*
X0351999Y0040825D01*
X0352292Y0040901D01*
X0352582Y0040984D01*
X0352871Y0041074D01*
X0353157Y0041171D01*
X0353441Y0041274D01*
X0353722Y0041385D01*
X0354000Y0041502D01*
X0354276Y0041626D01*
X0354548Y0041757D01*
X0354817Y0041894D01*
X0355083Y0042037D01*
X0355345Y0042187D01*
X0355604Y0042344D01*
X0355858Y0042506D01*
X0356109Y0042675D01*
X0356355Y0042849D01*
X0356598Y0043030D01*
X0356835Y0043216D01*
X0357069Y0043408D01*
X0357297Y0043606D01*
X0357521Y0043809D01*
X0357739Y0044017D01*
X0357953Y0044231D01*
X0358161Y0044449D01*
X0358364Y0044673D01*
X0358562Y0044901D01*
X0358754Y0045135D01*
X0358940Y0045372D01*
X0359121Y0045615D01*
X0359295Y0045861D01*
X0359464Y0046112D01*
X0359626Y0046366D01*
X0359783Y0046625D01*
X0359933Y0046887D01*
X0360076Y0047153D01*
X0360213Y0047422D01*
X0360344Y0047694D01*
X0360468Y0047970D01*
X0360585Y0048248D01*
X0360696Y0048529D01*
X0360799Y0048813D01*
X0360896Y0049099D01*
X0360986Y0049388D01*
X0361069Y0049678D01*
X0361145Y0049971D01*
X0361214Y0050265D01*
X0361275Y0050560D01*
X0361330Y0050858D01*
X0361377Y0051156D01*
X0361417Y0051455D01*
X0361450Y0051756D01*
X0361475Y0052057D01*
X0361493Y0052358D01*
X0361504Y0052660D01*
X0361508Y0052962D01*
X0361508Y0182962D01*
X0361503Y0183385D01*
X0361488Y0183807D01*
X0361462Y0184230D01*
X0361426Y0184651D01*
X0361380Y0185071D01*
X0361324Y0185491D01*
X0361258Y0185908D01*
X0361182Y0186324D01*
X0361096Y0186738D01*
X0360999Y0187150D01*
X0360893Y0187559D01*
X0360777Y0187966D01*
X0360651Y0188370D01*
X0360516Y0188770D01*
X0360371Y0189168D01*
X0360216Y0189561D01*
X0360052Y0189951D01*
X0359878Y0190337D01*
X0359695Y0190718D01*
X0359503Y0191095D01*
X0359302Y0191467D01*
X0359092Y0191834D01*
X0358874Y0192196D01*
X0358646Y0192552D01*
X0358410Y0192903D01*
X0358166Y0193248D01*
X0357913Y0193587D01*
X0357652Y0193920D01*
X0357384Y0194247D01*
X0357107Y0194567D01*
X0356823Y0194880D01*
X0356531Y0195186D01*
X0356232Y0195485D01*
X0355926Y0195777D01*
X0355613Y0196061D01*
X0355293Y0196338D01*
X0354966Y0196606D01*
X0354633Y0196867D01*
X0354294Y0197120D01*
X0353949Y0197364D01*
X0353598Y0197600D01*
X0353242Y0197828D01*
X0352880Y0198046D01*
X0352513Y0198256D01*
X0352141Y0198457D01*
X0351764Y0198649D01*
X0351383Y0198832D01*
X0350997Y0199006D01*
X0350607Y0199170D01*
X0350214Y0199325D01*
X0349816Y0199470D01*
X0349416Y0199605D01*
X0349012Y0199731D01*
X0348605Y0199847D01*
X0348196Y0199953D01*
X0347784Y0200050D01*
X0347370Y0200136D01*
X0346954Y0200212D01*
X0346537Y0200278D01*
X0346117Y0200334D01*
X0345697Y0200380D01*
X0345276Y0200416D01*
X0344853Y0200442D01*
X0344431Y0200457D01*
X0344008Y0200462D01*
X0339008Y0200462D01*
X0338646Y0200466D01*
X0338283Y0200480D01*
X0337921Y0200501D01*
X0337560Y0200532D01*
X0337200Y0200571D01*
X0336841Y0200619D01*
X0336483Y0200676D01*
X0336126Y0200741D01*
X0335771Y0200815D01*
X0335418Y0200898D01*
X0335067Y0200989D01*
X0334719Y0201088D01*
X0334373Y0201196D01*
X0334029Y0201312D01*
X0333689Y0201437D01*
X0333352Y0201569D01*
X0333018Y0201710D01*
X0332687Y0201859D01*
X0332360Y0202016D01*
X0332037Y0202180D01*
X0331718Y0202352D01*
X0331404Y0202532D01*
X0331093Y0202720D01*
X0330788Y0202915D01*
X0330487Y0203117D01*
X0330191Y0203327D01*
X0329901Y0203543D01*
X0329615Y0203767D01*
X0329335Y0203997D01*
X0329061Y0204234D01*
X0328793Y0204478D01*
X0328530Y0204728D01*
X0328274Y0204984D01*
X0328024Y0205247D01*
X0327780Y0205515D01*
X0327543Y0205789D01*
X0327313Y0206069D01*
X0327089Y0206355D01*
X0326873Y0206645D01*
X0326663Y0206941D01*
X0326461Y0207242D01*
X0326266Y0207547D01*
X0326078Y0207858D01*
X0325898Y0208172D01*
X0325726Y0208491D01*
X0325562Y0208814D01*
X0325405Y0209141D01*
X0325256Y0209472D01*
X0325115Y0209806D01*
X0324983Y0210143D01*
X0324858Y0210483D01*
X0324742Y0210827D01*
X0324634Y0211173D01*
X0324535Y0211521D01*
X0324444Y0211872D01*
X0324361Y0212225D01*
X0324287Y0212580D01*
X0324222Y0212937D01*
X0324165Y0213295D01*
X0324117Y0213654D01*
X0324078Y0214014D01*
X0324047Y0214375D01*
X0324026Y0214737D01*
X0324012Y0215100D01*
X0324008Y0215462D01*
X0324008Y0225462D01*
X0324004Y0225764D01*
X0323993Y0226066D01*
X0323975Y0226367D01*
X0323950Y0226668D01*
X0323917Y0226969D01*
X0323877Y0227268D01*
X0323830Y0227566D01*
X0323775Y0227864D01*
X0323714Y0228159D01*
X0323645Y0228453D01*
X0323569Y0228746D01*
X0323486Y0229036D01*
X0323396Y0229325D01*
X0323299Y0229611D01*
X0323196Y0229895D01*
X0323085Y0230176D01*
X0322968Y0230454D01*
X0322844Y0230730D01*
X0322713Y0231002D01*
X0322576Y0231271D01*
X0322433Y0231537D01*
X0322283Y0231799D01*
X0322126Y0232058D01*
X0321964Y0232312D01*
X0321795Y0232563D01*
X0321621Y0232809D01*
X0321440Y0233052D01*
X0321254Y0233289D01*
X0321062Y0233523D01*
X0320864Y0233751D01*
X0320661Y0233975D01*
X0320453Y0234193D01*
X0320239Y0234407D01*
X0320021Y0234615D01*
X0319797Y0234818D01*
X0319569Y0235016D01*
X0319335Y0235208D01*
X0319098Y0235394D01*
X0318855Y0235575D01*
X0318609Y0235749D01*
X0318358Y0235918D01*
X0318104Y0236080D01*
X0317845Y0236237D01*
X0317583Y0236387D01*
X0317317Y0236530D01*
X0317048Y0236667D01*
X0316776Y0236798D01*
X0316500Y0236922D01*
X0316222Y0237039D01*
X0315941Y0237150D01*
X0315657Y0237253D01*
X0315371Y0237350D01*
X0315082Y0237440D01*
X0314792Y0237523D01*
X0314499Y0237599D01*
X0314205Y0237668D01*
X0313910Y0237729D01*
X0313612Y0237784D01*
X0313314Y0237831D01*
X0313015Y0237871D01*
X0312714Y0237904D01*
X0312413Y0237929D01*
X0312112Y0237947D01*
X0311810Y0237958D01*
X0311508Y0237962D01*
X0051508Y0237962D01*
X0054208Y0236562D02*
X0162008Y0236562D01*
X0162008Y0226862D01*
X0054208Y0226862D01*
X0054208Y0236562D01*
X0051508Y0237962D02*
X0051206Y0237958D01*
X0050904Y0237947D01*
X0050603Y0237929D01*
X0050302Y0237904D01*
X0050001Y0237871D01*
X0049702Y0237831D01*
X0049404Y0237784D01*
X0049106Y0237729D01*
X0048811Y0237668D01*
X0048517Y0237599D01*
X0048224Y0237523D01*
X0047934Y0237440D01*
X0047645Y0237350D01*
X0047359Y0237253D01*
X0047075Y0237150D01*
X0046794Y0237039D01*
X0046516Y0236922D01*
X0046240Y0236798D01*
X0045968Y0236667D01*
X0045699Y0236530D01*
X0045433Y0236387D01*
X0045171Y0236237D01*
X0044912Y0236080D01*
X0044658Y0235918D01*
X0044407Y0235749D01*
X0044161Y0235575D01*
X0043918Y0235394D01*
X0043681Y0235208D01*
X0043447Y0235016D01*
X0043219Y0234818D01*
X0042995Y0234615D01*
X0042777Y0234407D01*
X0042563Y0234193D01*
X0042355Y0233975D01*
X0042152Y0233751D01*
X0041954Y0233523D01*
X0041762Y0233289D01*
X0041576Y0233052D01*
X0041395Y0232809D01*
X0041221Y0232563D01*
X0041052Y0232312D01*
X0040890Y0232058D01*
X0040733Y0231799D01*
X0040583Y0231537D01*
X0040440Y0231271D01*
X0040303Y0231002D01*
X0040172Y0230730D01*
X0040048Y0230454D01*
X0039931Y0230176D01*
X0039820Y0229895D01*
X0039717Y0229611D01*
X0039620Y0229325D01*
X0039530Y0229036D01*
X0039447Y0228746D01*
X0039371Y0228453D01*
X0039302Y0228159D01*
X0039241Y0227864D01*
X0039186Y0227566D01*
X0039139Y0227268D01*
X0039099Y0226969D01*
X0039066Y0226668D01*
X0039041Y0226367D01*
X0039023Y0226066D01*
X0039012Y0225764D01*
X0039008Y0225462D01*
X0039008Y0215462D01*
X0039004Y0215100D01*
X0038990Y0214737D01*
X0038969Y0214375D01*
X0038938Y0214014D01*
X0038899Y0213654D01*
X0038851Y0213295D01*
X0038794Y0212937D01*
X0038729Y0212580D01*
X0038655Y0212225D01*
X0038572Y0211872D01*
X0038481Y0211521D01*
X0038382Y0211173D01*
X0038274Y0210827D01*
X0038158Y0210483D01*
X0038033Y0210143D01*
X0037901Y0209806D01*
X0037760Y0209472D01*
X0037611Y0209141D01*
X0037454Y0208814D01*
X0037290Y0208491D01*
X0037118Y0208172D01*
X0036938Y0207858D01*
X0036750Y0207547D01*
X0036555Y0207242D01*
X0036353Y0206941D01*
X0036143Y0206645D01*
X0035927Y0206355D01*
X0035703Y0206069D01*
X0035473Y0205789D01*
X0035236Y0205515D01*
X0034992Y0205247D01*
X0034742Y0204984D01*
X0034486Y0204728D01*
X0034223Y0204478D01*
X0033955Y0204234D01*
X0033681Y0203997D01*
X0033401Y0203767D01*
X0033115Y0203543D01*
X0032825Y0203327D01*
X0032529Y0203117D01*
X0032228Y0202915D01*
X0031923Y0202720D01*
X0031612Y0202532D01*
X0031298Y0202352D01*
X0030979Y0202180D01*
X0030656Y0202016D01*
X0030329Y0201859D01*
X0029998Y0201710D01*
X0029664Y0201569D01*
X0029327Y0201437D01*
X0028987Y0201312D01*
X0028643Y0201196D01*
X0028297Y0201088D01*
X0027949Y0200989D01*
X0027598Y0200898D01*
X0027245Y0200815D01*
X0026890Y0200741D01*
X0026533Y0200676D01*
X0026175Y0200619D01*
X0025816Y0200571D01*
X0025456Y0200532D01*
X0025095Y0200501D01*
X0024733Y0200480D01*
X0024370Y0200466D01*
X0024008Y0200462D01*
X0016508Y0200462D01*
X0016146Y0200458D01*
X0015783Y0200444D01*
X0015421Y0200423D01*
X0015060Y0200392D01*
X0014700Y0200353D01*
X0014341Y0200305D01*
X0013983Y0200248D01*
X0013626Y0200183D01*
X0013271Y0200109D01*
X0012918Y0200026D01*
X0012567Y0199935D01*
X0012219Y0199836D01*
X0011873Y0199728D01*
X0011529Y0199612D01*
X0011189Y0199487D01*
X0010852Y0199355D01*
X0010518Y0199214D01*
X0010187Y0199065D01*
X0009860Y0198908D01*
X0009537Y0198744D01*
X0009218Y0198572D01*
X0008904Y0198392D01*
X0008593Y0198204D01*
X0008288Y0198009D01*
X0007987Y0197807D01*
X0007691Y0197597D01*
X0007401Y0197381D01*
X0007115Y0197157D01*
X0006835Y0196927D01*
X0006561Y0196690D01*
X0006293Y0196446D01*
X0006030Y0196196D01*
X0005774Y0195940D01*
X0005524Y0195677D01*
X0005280Y0195409D01*
X0005043Y0195135D01*
X0004813Y0194855D01*
X0004589Y0194569D01*
X0004373Y0194279D01*
X0004163Y0193983D01*
X0003961Y0193682D01*
X0003766Y0193377D01*
X0003578Y0193066D01*
X0003398Y0192752D01*
X0003226Y0192433D01*
X0003062Y0192110D01*
X0002905Y0191783D01*
X0002756Y0191452D01*
X0002615Y0191118D01*
X0002483Y0190781D01*
X0002358Y0190441D01*
X0002242Y0190097D01*
X0002134Y0189751D01*
X0002035Y0189403D01*
X0001944Y0189052D01*
X0001861Y0188699D01*
X0001787Y0188344D01*
X0001722Y0187987D01*
X0001665Y0187629D01*
X0001617Y0187270D01*
X0001578Y0186910D01*
X0001547Y0186549D01*
X0001526Y0186187D01*
X0001512Y0185824D01*
X0001508Y0185462D01*
X0001508Y0055462D01*
X0001508Y0055463D02*
X0001456Y0055158D01*
X0001412Y0054852D01*
X0001374Y0054545D01*
X0001345Y0054237D01*
X0001323Y0053929D01*
X0001308Y0053620D01*
X0001301Y0053310D01*
X0001301Y0053001D01*
X0001309Y0052692D01*
X0001324Y0052383D01*
X0001347Y0052075D01*
X0001378Y0051767D01*
X0001416Y0051460D01*
X0001461Y0051154D01*
X0001514Y0050850D01*
X0001574Y0050546D01*
X0001642Y0050244D01*
X0001716Y0049944D01*
X0001799Y0049646D01*
X0001888Y0049350D01*
X0001985Y0049056D01*
X0002088Y0048765D01*
X0002199Y0048476D01*
X0002317Y0048190D01*
X0002441Y0047907D01*
X0002573Y0047628D01*
X0002711Y0047351D01*
X0002856Y0047078D01*
X0003008Y0046808D01*
X0003166Y0046542D01*
X0003330Y0046281D01*
X0003501Y0046023D01*
X0003678Y0045769D01*
X0003861Y0045520D01*
X0004050Y0045275D01*
X0004245Y0045036D01*
X0004446Y0044800D01*
X0004653Y0044570D01*
X0004865Y0044345D01*
X0005082Y0044125D01*
X0005305Y0043911D01*
X0005533Y0043702D01*
X0005766Y0043498D01*
X0006004Y0043301D01*
X0006246Y0043109D01*
X0006493Y0042923D01*
X0006745Y0042743D01*
X0007001Y0042569D01*
X0007261Y0042402D01*
X0007525Y0042241D01*
X0007793Y0042087D01*
X0008064Y0041939D01*
X0008339Y0041797D01*
X0008618Y0041663D01*
X0008899Y0041535D01*
X0009184Y0041414D01*
X0009472Y0041300D01*
X0009762Y0041193D01*
X0010054Y0041094D01*
X0010350Y0041001D01*
X0010647Y0040916D01*
X0010946Y0040837D01*
X0011247Y0040767D01*
X0011550Y0040703D01*
X0011854Y0040647D01*
X0012159Y0040598D01*
X0012466Y0040557D01*
X0012773Y0040523D01*
X0013081Y0040497D01*
X0013390Y0040478D01*
X0013699Y0040467D01*
X0014008Y0040463D01*
X0021508Y0040463D01*
D13*
X0011247Y0062522D02*
X0006643Y0062522D01*
X0005108Y0064056D01*
X0006643Y0065591D01*
X0005108Y0067126D01*
X0006643Y0068660D01*
X0011247Y0068660D01*
X0011247Y0071729D02*
X0006643Y0071729D01*
X0005108Y0073264D01*
X0006643Y0074799D01*
X0005108Y0076333D01*
X0006643Y0077868D01*
X0011247Y0077868D01*
X0011247Y0080937D02*
X0006643Y0080937D01*
X0005108Y0082472D01*
X0006643Y0084007D01*
X0005108Y0085541D01*
X0006643Y0087076D01*
X0011247Y0087076D01*
X0006643Y0090145D02*
X0006643Y0091680D01*
X0005108Y0091680D01*
X0005108Y0090145D01*
X0006643Y0090145D01*
X0005108Y0094749D02*
X0005108Y0097818D01*
X0005108Y0096284D02*
X0014316Y0096284D01*
X0014316Y0097818D02*
X0014316Y0094749D01*
X0009712Y0100888D02*
X0006643Y0100888D01*
X0005108Y0102422D01*
X0005108Y0105492D01*
X0006643Y0107026D01*
X0009712Y0107026D01*
X0011247Y0105492D01*
X0011247Y0102422D01*
X0009712Y0100888D01*
X0014316Y0110096D02*
X0014316Y0116234D01*
X0009712Y0119303D02*
X0009712Y0125442D01*
X0005108Y0123907D02*
X0014316Y0123907D01*
X0009712Y0119303D01*
X0005108Y0113165D02*
X0014316Y0113165D01*
X0014316Y0128511D02*
X0005108Y0128511D01*
X0005108Y0133115D01*
X0006643Y0134650D01*
X0008178Y0134650D01*
X0009712Y0133115D01*
X0009712Y0128511D01*
X0014316Y0128511D02*
X0014316Y0133115D01*
X0012782Y0134650D01*
X0011247Y0134650D01*
X0009712Y0133115D01*
X0009712Y0137719D02*
X0006643Y0137719D01*
X0005108Y0139254D01*
X0005108Y0142323D01*
X0008178Y0143858D02*
X0008178Y0137719D01*
X0009712Y0137719D02*
X0011247Y0139254D01*
X0011247Y0142323D01*
X0009712Y0143858D01*
X0008178Y0143858D01*
X0008178Y0146927D02*
X0008178Y0153066D01*
X0009712Y0153066D01*
X0011247Y0151531D01*
X0011247Y0148462D01*
X0009712Y0146927D01*
X0006643Y0146927D01*
X0005108Y0148462D01*
X0005108Y0151531D01*
X0005108Y0156135D02*
X0005108Y0160739D01*
X0006643Y0162273D01*
X0008178Y0160739D01*
X0008178Y0157670D01*
X0009712Y0156135D01*
X0011247Y0157670D01*
X0011247Y0162273D01*
X0006643Y0165343D02*
X0006643Y0166877D01*
X0005108Y0166877D01*
X0005108Y0165343D01*
X0006643Y0165343D01*
X0006643Y0169947D02*
X0009712Y0169947D01*
X0011247Y0171481D01*
X0011247Y0176085D01*
X0014316Y0176085D02*
X0005108Y0176085D01*
X0005108Y0171481D01*
X0006643Y0169947D01*
X0006643Y0179155D02*
X0009712Y0179155D01*
X0011247Y0180689D01*
X0011247Y0183758D01*
X0009712Y0185293D01*
X0008178Y0185293D01*
X0008178Y0179155D01*
X0006643Y0179155D02*
X0005108Y0180689D01*
X0005108Y0183758D01*
D14*
X0239608Y0221562D03*
D15*
X0236282Y0010317D02*
X0236282Y0004813D01*
X0234447Y0006647D01*
X0232612Y0004813D01*
X0232612Y0010317D01*
X0230757Y0008482D02*
X0228922Y0010317D01*
X0227088Y0008482D01*
X0227088Y0004813D01*
X0225233Y0004813D02*
X0225233Y0010317D01*
X0221563Y0004813D01*
X0221563Y0010317D01*
X0219708Y0008482D02*
X0219708Y0007565D01*
X0218790Y0007565D01*
X0218790Y0008482D01*
X0219708Y0008482D01*
X0219708Y0005730D02*
X0219708Y0004813D01*
X0218790Y0004813D01*
X0218790Y0005730D01*
X0219708Y0005730D01*
X0227088Y0007565D02*
X0230757Y0007565D01*
X0230757Y0008482D02*
X0230757Y0004813D01*
X0238137Y0004813D02*
X0238137Y0007565D01*
X0239054Y0008482D01*
X0240889Y0008482D01*
X0240889Y0006647D02*
X0238137Y0006647D01*
X0238137Y0004813D02*
X0240889Y0004813D01*
X0241807Y0005730D01*
X0240889Y0006647D01*
X0243662Y0007565D02*
X0244579Y0006647D01*
X0247331Y0006647D01*
X0245497Y0006647D02*
X0243662Y0004813D01*
X0247331Y0004813D02*
X0247331Y0010317D01*
X0244579Y0010317D01*
X0243662Y0009400D01*
X0243662Y0007565D01*
X0249186Y0007565D02*
X0249186Y0005730D01*
X0250104Y0004813D01*
X0251939Y0004813D01*
X0252856Y0005730D01*
X0252856Y0007565D01*
X0251939Y0008482D01*
X0250104Y0008482D01*
X0249186Y0007565D01*
X0254711Y0004813D02*
X0258381Y0004813D01*
X0258381Y0010317D01*
X0211421Y0007565D02*
X0207751Y0007565D01*
X0205896Y0010317D02*
X0205896Y0004813D01*
X0204061Y0006647D01*
X0202226Y0004813D01*
X0202226Y0010317D01*
X0200371Y0008482D02*
X0199454Y0008482D01*
X0199454Y0004813D01*
X0200371Y0004813D02*
X0198537Y0004813D01*
X0196688Y0004813D02*
X0196688Y0010317D01*
X0193018Y0010317D01*
X0191164Y0008482D02*
X0190246Y0008482D01*
X0190246Y0004813D01*
X0189329Y0004813D02*
X0191164Y0004813D01*
X0194853Y0007565D02*
X0196688Y0007565D01*
X0199454Y0010317D02*
X0199454Y0011235D01*
X0190246Y0011235D02*
X0190246Y0010317D01*
X0181956Y0007565D02*
X0180121Y0007565D01*
X0181038Y0009400D02*
X0180121Y0010317D01*
X0181038Y0009400D02*
X0181038Y0004813D01*
X0178273Y0005730D02*
X0177355Y0004813D01*
X0174603Y0004813D01*
X0174603Y0008482D01*
X0172748Y0008482D02*
X0172748Y0004813D01*
X0172748Y0006647D02*
X0170913Y0008482D01*
X0169995Y0008482D01*
X0175520Y0010317D02*
X0175520Y0011235D01*
X0177355Y0011235D02*
X0177355Y0010317D01*
X0178273Y0008482D02*
X0178273Y0005730D01*
X0162619Y0005730D02*
X0161702Y0004813D01*
X0158949Y0004813D01*
X0158949Y0010317D01*
X0158949Y0008482D02*
X0161702Y0008482D01*
X0162619Y0007565D01*
X0162619Y0005730D01*
X0157094Y0005730D02*
X0156177Y0006647D01*
X0153425Y0006647D01*
X0153425Y0007565D02*
X0153425Y0004813D01*
X0156177Y0004813D01*
X0157094Y0005730D01*
X0156177Y0008482D02*
X0154342Y0008482D01*
X0153425Y0007565D01*
X0151570Y0007565D02*
X0150652Y0006647D01*
X0148817Y0006647D01*
X0147900Y0005730D01*
X0148817Y0004813D01*
X0151570Y0004813D01*
X0151570Y0007565D02*
X0150652Y0008482D01*
X0147900Y0008482D01*
X0140520Y0010317D02*
X0138685Y0010317D01*
X0139603Y0010317D02*
X0139603Y0004813D01*
X0140520Y0004813D02*
X0138685Y0004813D01*
X0136837Y0004813D02*
X0136837Y0008482D01*
X0134085Y0008482D01*
X0133167Y0007565D01*
X0133167Y0004813D01*
X0130395Y0005730D02*
X0129478Y0004813D01*
X0130395Y0005730D02*
X0130395Y0009400D01*
X0131312Y0008482D02*
X0129478Y0008482D01*
X0127629Y0007565D02*
X0126712Y0008482D01*
X0124877Y0008482D01*
X0123959Y0007565D01*
X0123959Y0006647D01*
X0127629Y0006647D01*
X0127629Y0005730D02*
X0127629Y0007565D01*
X0127629Y0005730D02*
X0126712Y0004813D01*
X0124877Y0004813D01*
X0122105Y0004813D02*
X0122105Y0008482D01*
X0122105Y0006647D02*
X0120270Y0008482D01*
X0119352Y0008482D01*
X0117501Y0008482D02*
X0114748Y0008482D01*
X0113831Y0007565D01*
X0113831Y0004813D01*
X0111976Y0005730D02*
X0111976Y0007565D01*
X0111058Y0008482D01*
X0109224Y0008482D01*
X0108306Y0007565D01*
X0108306Y0006647D01*
X0111976Y0006647D01*
X0111976Y0005730D02*
X0111058Y0004813D01*
X0109224Y0004813D01*
X0105534Y0005730D02*
X0105534Y0009400D01*
X0106451Y0008482D02*
X0104616Y0008482D01*
X0105534Y0005730D02*
X0104616Y0004813D01*
X0097243Y0005730D02*
X0097243Y0007565D01*
X0096326Y0008482D01*
X0093574Y0008482D01*
X0093574Y0010317D02*
X0093574Y0004813D01*
X0096326Y0004813D01*
X0097243Y0005730D01*
X0091719Y0005730D02*
X0091719Y0007565D01*
X0090801Y0008482D01*
X0088966Y0008482D01*
X0088049Y0007565D01*
X0088049Y0006647D01*
X0091719Y0006647D01*
X0091719Y0005730D02*
X0090801Y0004813D01*
X0088966Y0004813D01*
X0086194Y0004813D02*
X0086194Y0008482D01*
X0086194Y0006647D02*
X0084359Y0008482D01*
X0083442Y0008482D01*
X0076065Y0010317D02*
X0076065Y0004813D01*
X0073313Y0004813D01*
X0072395Y0005730D01*
X0072395Y0009400D01*
X0073313Y0010317D01*
X0076065Y0010317D01*
X0070541Y0008482D02*
X0069623Y0008482D01*
X0069623Y0004813D01*
X0068706Y0004813D02*
X0070541Y0004813D01*
X0066857Y0004813D02*
X0066857Y0008482D01*
X0064105Y0008482D01*
X0063188Y0007565D01*
X0063188Y0004813D01*
X0061333Y0005730D02*
X0060415Y0004813D01*
X0057663Y0004813D01*
X0057663Y0003895D02*
X0057663Y0008482D01*
X0060415Y0008482D01*
X0061333Y0007565D01*
X0061333Y0005730D01*
X0059498Y0002978D02*
X0058580Y0002978D01*
X0057663Y0003895D01*
X0055808Y0005730D02*
X0054891Y0004813D01*
X0053056Y0004813D01*
X0052138Y0006647D02*
X0055808Y0006647D01*
X0055808Y0005730D02*
X0055808Y0007565D01*
X0054891Y0008482D01*
X0053056Y0008482D01*
X0052138Y0007565D01*
X0052138Y0006647D01*
X0050283Y0007565D02*
X0046613Y0007565D01*
X0069623Y0010317D02*
X0069623Y0011235D01*
X0117501Y0008482D02*
X0117501Y0004813D01*
D16*
X0157632Y0047457D03*
X0148632Y0114957D03*
X0133932Y0141657D03*
X0157032Y0143157D03*
X0160932Y0150657D03*
X0166332Y0151557D03*
X0187332Y0139257D03*
X0198132Y0138957D03*
X0176232Y0176757D03*
D17*
X0178032Y0176757D03*
X0178032Y0176457D03*
X0178032Y0177057D03*
X0155832Y0172557D03*
X0156432Y0169857D03*
X0154932Y0176757D03*
X0140232Y0169857D03*
X0169332Y0147657D03*
X0169632Y0147957D03*
X0169932Y0148257D03*
X0170232Y0148557D03*
X0170532Y0148857D03*
X0169032Y0147057D03*
X0168132Y0144657D03*
X0168132Y0144357D03*
X0168132Y0144057D03*
X0166932Y0140757D03*
X0166632Y0140457D03*
X0166332Y0140157D03*
X0166032Y0139857D03*
X0161532Y0135357D03*
X0160932Y0134457D03*
X0160332Y0133557D03*
X0160032Y0132957D03*
X0159432Y0132057D03*
X0159132Y0131457D03*
X0158832Y0130857D03*
X0158532Y0130257D03*
X0158232Y0129657D03*
X0157932Y0129057D03*
X0157632Y0128457D03*
X0157332Y0127857D03*
X0157332Y0127557D03*
X0157032Y0127257D03*
X0157032Y0126957D03*
X0156732Y0126357D03*
X0156732Y0126057D03*
X0156432Y0125757D03*
X0156432Y0125457D03*
X0156132Y0124857D03*
X0156132Y0124557D03*
X0155832Y0124257D03*
X0155832Y0123957D03*
X0155832Y0123657D03*
X0155532Y0123357D03*
X0155532Y0123057D03*
X0155532Y0122757D03*
X0155232Y0122457D03*
X0155232Y0122157D03*
X0155232Y0121857D03*
X0155232Y0121557D03*
X0154932Y0121257D03*
X0154932Y0120957D03*
X0154932Y0120657D03*
X0154932Y0120357D03*
X0154632Y0119757D03*
X0154632Y0119457D03*
X0154632Y0119157D03*
X0154632Y0118857D03*
X0154632Y0118557D03*
X0154332Y0118257D03*
X0154332Y0117957D03*
X0154332Y0117657D03*
X0154332Y0117357D03*
X0154332Y0117057D03*
X0154332Y0116757D03*
X0154032Y0115857D03*
X0154032Y0115557D03*
X0154032Y0115257D03*
X0154032Y0114957D03*
X0154032Y0114657D03*
X0154032Y0114357D03*
X0154032Y0112257D03*
X0148332Y0114357D03*
X0148332Y0114657D03*
X0147432Y0111957D03*
X0147432Y0111657D03*
X0147432Y0111357D03*
X0147432Y0111057D03*
X0147432Y0110757D03*
X0147432Y0110457D03*
X0147432Y0110157D03*
X0147432Y0109857D03*
X0147432Y0109557D03*
X0147432Y0109257D03*
X0151332Y0106257D03*
X0145632Y0104157D03*
X0145632Y0103857D03*
X0145632Y0103557D03*
X0145332Y0102357D03*
X0144732Y0100857D03*
X0144432Y0100257D03*
X0144132Y0099957D03*
X0143832Y0099657D03*
X0143532Y0099357D03*
X0146832Y0095757D03*
X0146832Y0095457D03*
X0147132Y0095157D03*
X0147132Y0094857D03*
X0147132Y0094557D03*
X0147132Y0094257D03*
X0146832Y0093657D03*
X0146832Y0093357D03*
X0146532Y0093057D03*
X0146532Y0092757D03*
X0146232Y0092457D03*
X0148632Y0090057D03*
X0147432Y0088857D03*
X0147132Y0088557D03*
X0147132Y0088257D03*
X0146832Y0087657D03*
X0146832Y0087357D03*
X0145932Y0083457D03*
X0145932Y0083157D03*
X0145932Y0082857D03*
X0145932Y0082557D03*
X0145632Y0081957D03*
X0145632Y0081657D03*
X0145332Y0081357D03*
X0144732Y0080457D03*
X0155232Y0091557D03*
X0174132Y0095157D03*
X0175932Y0093657D03*
X0181332Y0091557D03*
X0181632Y0090957D03*
X0175632Y0099957D03*
X0179832Y0109557D03*
X0180432Y0111057D03*
X0180732Y0111957D03*
X0181032Y0112857D03*
X0194832Y0119757D03*
X0195132Y0120057D03*
X0195432Y0120657D03*
X0195732Y0121257D03*
X0196032Y0121857D03*
X0196032Y0122157D03*
X0196332Y0122757D03*
X0196332Y0123057D03*
X0196332Y0123357D03*
X0196332Y0123657D03*
X0196332Y0126057D03*
X0196332Y0126357D03*
X0195732Y0128157D03*
X0195432Y0128757D03*
X0196032Y0139257D03*
X0198432Y0139257D03*
X0198432Y0139557D03*
X0198732Y0139857D03*
X0201732Y0137757D03*
X0202332Y0138057D03*
X0202932Y0138357D03*
X0203832Y0138957D03*
X0204132Y0139557D03*
X0204132Y0139857D03*
X0187932Y0143157D03*
X0187932Y0143457D03*
X0187932Y0144957D03*
X0187932Y0145257D03*
X0187932Y0145557D03*
X0187032Y0141357D03*
X0186732Y0141057D03*
X0186132Y0140457D03*
X0187332Y0138957D03*
X0176532Y0145857D03*
X0147732Y0146757D03*
X0147432Y0146457D03*
X0146832Y0146157D03*
X0146232Y0145257D03*
X0146232Y0144657D03*
X0146232Y0143157D03*
X0143532Y0145557D03*
X0143832Y0137757D03*
X0143532Y0137157D03*
X0143232Y0136857D03*
X0143232Y0136557D03*
X0142932Y0135957D03*
X0142632Y0135357D03*
X0142632Y0135057D03*
X0142332Y0134757D03*
X0142332Y0134457D03*
X0142032Y0134157D03*
X0142032Y0133857D03*
X0142032Y0133557D03*
X0141732Y0133257D03*
X0141732Y0132957D03*
X0141432Y0132357D03*
X0141132Y0131457D03*
X0141132Y0131157D03*
X0140832Y0130857D03*
X0140832Y0130557D03*
X0140532Y0129657D03*
X0140232Y0128457D03*
X0131532Y0141657D03*
X0131532Y0141957D03*
X0127632Y0142857D03*
X0127632Y0143157D03*
X0127632Y0143457D03*
X0127932Y0143757D03*
X0119532Y0133257D03*
X0119232Y0132957D03*
X0118932Y0132657D03*
X0117732Y0130857D03*
X0132132Y0108657D03*
X0157332Y0048357D03*
X0157632Y0047757D03*
D18*
X0157482Y0048057D03*
X0157182Y0048657D03*
X0156882Y0048957D03*
X0156882Y0049257D03*
X0156582Y0049557D03*
X0156582Y0049857D03*
X0161982Y0052857D03*
X0150882Y0073557D03*
X0150582Y0076257D03*
X0150582Y0076557D03*
X0150582Y0076857D03*
X0150582Y0077157D03*
X0150582Y0077457D03*
X0150582Y0077757D03*
X0150582Y0078057D03*
X0150582Y0078357D03*
X0150582Y0078657D03*
X0150582Y0078957D03*
X0150582Y0079257D03*
X0150582Y0079557D03*
X0150582Y0079857D03*
X0150582Y0080157D03*
X0150582Y0080457D03*
X0150582Y0080757D03*
X0150582Y0081057D03*
X0150582Y0081357D03*
X0150582Y0081657D03*
X0150582Y0081957D03*
X0150282Y0082257D03*
X0150282Y0082557D03*
X0150282Y0082857D03*
X0145782Y0083757D03*
X0145782Y0084057D03*
X0145182Y0081057D03*
X0144882Y0080757D03*
X0144282Y0080157D03*
X0146982Y0087057D03*
X0147582Y0089157D03*
X0147882Y0089457D03*
X0148182Y0089757D03*
X0145782Y0091857D03*
X0145482Y0091557D03*
X0145182Y0091257D03*
X0144882Y0090957D03*
X0146082Y0092157D03*
X0146682Y0096057D03*
X0146382Y0096357D03*
X0140682Y0097557D03*
X0145482Y0104457D03*
X0145482Y0104757D03*
X0145482Y0105057D03*
X0145182Y0105357D03*
X0145182Y0105657D03*
X0147582Y0108957D03*
X0148182Y0113757D03*
X0154182Y0111957D03*
X0154182Y0111657D03*
X0154182Y0111357D03*
X0154182Y0111057D03*
X0154182Y0110757D03*
X0154482Y0110457D03*
X0154482Y0110157D03*
X0154482Y0109857D03*
X0154482Y0109557D03*
X0154782Y0109257D03*
X0154782Y0108957D03*
X0154182Y0116157D03*
X0154182Y0116457D03*
X0154782Y0120057D03*
X0139182Y0120057D03*
X0139182Y0119757D03*
X0139182Y0119457D03*
X0139182Y0119157D03*
X0139182Y0120357D03*
X0139182Y0120657D03*
X0139182Y0120957D03*
X0139182Y0121257D03*
X0139182Y0121557D03*
X0139182Y0121857D03*
X0139182Y0122157D03*
X0139182Y0122457D03*
X0139482Y0123657D03*
X0139482Y0123957D03*
X0139482Y0124257D03*
X0139482Y0124557D03*
X0139482Y0124857D03*
X0139782Y0125457D03*
X0139782Y0125757D03*
X0139782Y0126057D03*
X0139782Y0126357D03*
X0139782Y0126657D03*
X0139782Y0126957D03*
X0140082Y0127257D03*
X0140082Y0127557D03*
X0140082Y0127857D03*
X0140082Y0128157D03*
X0140382Y0128757D03*
X0140382Y0129057D03*
X0140382Y0129357D03*
X0140682Y0129957D03*
X0140682Y0130257D03*
X0141282Y0131757D03*
X0141282Y0132057D03*
X0141582Y0132657D03*
X0134082Y0129957D03*
X0133782Y0130557D03*
X0134382Y0129057D03*
X0134382Y0128757D03*
X0134382Y0128457D03*
X0134382Y0128157D03*
X0134682Y0127857D03*
X0134682Y0127557D03*
X0134682Y0127257D03*
X0134682Y0126957D03*
X0134682Y0126657D03*
X0134682Y0126357D03*
X0134682Y0126057D03*
X0134382Y0125157D03*
X0134382Y0124857D03*
X0134082Y0123957D03*
X0132282Y0119457D03*
X0131982Y0118857D03*
X0131982Y0108957D03*
X0125382Y0106257D03*
X0119082Y0101157D03*
X0118182Y0098157D03*
X0118182Y0097857D03*
X0118182Y0097557D03*
X0117882Y0096957D03*
X0117882Y0096657D03*
X0117582Y0095757D03*
X0117582Y0095457D03*
X0117582Y0095157D03*
X0117282Y0094857D03*
X0117282Y0094557D03*
X0117282Y0094257D03*
X0117282Y0093957D03*
X0116982Y0093657D03*
X0116982Y0093357D03*
X0116982Y0093057D03*
X0116682Y0092157D03*
X0116682Y0091857D03*
X0116382Y0090057D03*
X0116382Y0089757D03*
X0116382Y0089457D03*
X0116082Y0087657D03*
X0157782Y0083457D03*
X0158082Y0082857D03*
X0158082Y0082557D03*
X0158382Y0081657D03*
X0159282Y0078357D03*
X0178782Y0078357D03*
X0179082Y0078057D03*
X0179082Y0077757D03*
X0179382Y0077457D03*
X0181182Y0086757D03*
X0181182Y0087057D03*
X0181482Y0087657D03*
X0181782Y0088557D03*
X0181782Y0088857D03*
X0181782Y0089157D03*
X0181782Y0089457D03*
X0181782Y0089757D03*
X0181782Y0090057D03*
X0181782Y0090357D03*
X0181782Y0090657D03*
X0181482Y0091257D03*
X0181182Y0091857D03*
X0180882Y0092157D03*
X0175782Y0093357D03*
X0175482Y0092757D03*
X0160782Y0095457D03*
X0158382Y0099357D03*
X0177282Y0106257D03*
X0177582Y0106557D03*
X0177882Y0106857D03*
X0179082Y0108357D03*
X0179382Y0108657D03*
X0179382Y0108957D03*
X0179682Y0109257D03*
X0179982Y0109857D03*
X0179982Y0110157D03*
X0180282Y0110457D03*
X0180282Y0110757D03*
X0180582Y0111357D03*
X0180582Y0111657D03*
X0180882Y0112257D03*
X0180882Y0112557D03*
X0181182Y0113157D03*
X0181482Y0114657D03*
X0181482Y0114957D03*
X0181482Y0115257D03*
X0181482Y0115557D03*
X0181482Y0115857D03*
X0181482Y0116157D03*
X0181482Y0116757D03*
X0181782Y0117057D03*
X0181782Y0117357D03*
X0181782Y0117657D03*
X0181782Y0117957D03*
X0181782Y0118257D03*
X0181782Y0118557D03*
X0181782Y0118857D03*
X0181782Y0119157D03*
X0181782Y0119457D03*
X0181782Y0119757D03*
X0181782Y0120057D03*
X0181782Y0120357D03*
X0181482Y0121557D03*
X0181482Y0121857D03*
X0181482Y0122157D03*
X0181482Y0122457D03*
X0181482Y0122757D03*
X0181482Y0123057D03*
X0181182Y0123957D03*
X0181182Y0124257D03*
X0181182Y0124557D03*
X0180882Y0125757D03*
X0180582Y0126957D03*
X0179982Y0128757D03*
X0175182Y0136257D03*
X0168882Y0140757D03*
X0165582Y0139557D03*
X0164982Y0139257D03*
X0167982Y0144957D03*
X0167982Y0145257D03*
X0167382Y0146757D03*
X0167082Y0147057D03*
X0170982Y0149157D03*
X0171282Y0149457D03*
X0159582Y0151857D03*
X0148782Y0147657D03*
X0148482Y0147357D03*
X0148182Y0147057D03*
X0146382Y0142857D03*
X0146382Y0142557D03*
X0143382Y0145857D03*
X0128682Y0144657D03*
X0128382Y0144357D03*
X0128082Y0144057D03*
X0127482Y0142557D03*
X0127482Y0142257D03*
X0127482Y0141957D03*
X0127782Y0141657D03*
X0120582Y0133857D03*
X0119982Y0133557D03*
X0118782Y0132357D03*
X0118482Y0132057D03*
X0118182Y0131757D03*
X0118182Y0131457D03*
X0117882Y0131157D03*
X0117582Y0130557D03*
X0117282Y0130257D03*
X0116682Y0128757D03*
X0157182Y0165657D03*
X0157182Y0165957D03*
X0157182Y0166257D03*
X0157182Y0166557D03*
X0157182Y0166857D03*
X0156882Y0167157D03*
X0156882Y0167457D03*
X0156882Y0167757D03*
X0156882Y0168057D03*
X0156582Y0168357D03*
X0156582Y0168657D03*
X0156582Y0168957D03*
X0156582Y0169257D03*
X0156582Y0169557D03*
X0156282Y0170157D03*
X0155682Y0172857D03*
X0155682Y0173157D03*
X0155382Y0174057D03*
X0165582Y0177357D03*
X0175482Y0176157D03*
X0177882Y0176157D03*
X0177882Y0175857D03*
X0177882Y0175557D03*
X0176382Y0164757D03*
X0176382Y0164457D03*
X0173682Y0163257D03*
X0187182Y0147357D03*
X0187482Y0147057D03*
X0187482Y0146757D03*
X0185982Y0140157D03*
X0185682Y0139857D03*
X0185082Y0139557D03*
X0187482Y0138657D03*
X0187782Y0138357D03*
X0189582Y0136857D03*
X0191082Y0135057D03*
X0191382Y0134757D03*
X0191682Y0134457D03*
X0192882Y0132957D03*
X0193182Y0132657D03*
X0193782Y0131757D03*
X0194082Y0131457D03*
X0194082Y0131157D03*
X0194382Y0130857D03*
X0194382Y0130557D03*
X0194682Y0130257D03*
X0194982Y0129957D03*
X0194982Y0129657D03*
X0195282Y0129357D03*
X0195282Y0129057D03*
X0195582Y0128457D03*
X0195882Y0127857D03*
X0195882Y0127557D03*
X0196182Y0127257D03*
X0196182Y0126957D03*
X0196182Y0126657D03*
X0196482Y0125757D03*
X0196482Y0125457D03*
X0196482Y0125157D03*
X0196482Y0124857D03*
X0196482Y0124557D03*
X0196482Y0124257D03*
X0196482Y0123957D03*
X0196182Y0122457D03*
X0195882Y0121557D03*
X0195582Y0120957D03*
X0195282Y0120357D03*
X0194682Y0119457D03*
X0194382Y0119157D03*
X0194082Y0118857D03*
X0193782Y0118557D03*
X0192882Y0117957D03*
X0191982Y0117357D03*
X0186882Y0113757D03*
X0186882Y0113457D03*
X0186882Y0113157D03*
X0186882Y0112857D03*
X0186882Y0112557D03*
X0186882Y0109557D03*
X0186882Y0109257D03*
X0186582Y0108657D03*
X0186582Y0108357D03*
X0186282Y0108057D03*
X0185982Y0107757D03*
X0203982Y0139257D03*
X0204282Y0140157D03*
X0204282Y0140457D03*
X0204282Y0140757D03*
X0203982Y0141057D03*
X0199182Y0141057D03*
X0199182Y0141357D03*
X0198882Y0140457D03*
X0198882Y0140157D03*
X0143982Y0169257D03*
D19*
X0144132Y0168957D03*
X0143832Y0169557D03*
X0143532Y0169857D03*
X0143232Y0170157D03*
X0142032Y0172257D03*
X0137832Y0170157D03*
X0157332Y0165357D03*
X0157332Y0165057D03*
X0157332Y0164757D03*
X0166332Y0165057D03*
X0166332Y0165357D03*
X0166332Y0165657D03*
X0166332Y0165957D03*
X0173532Y0163857D03*
X0173532Y0163557D03*
X0173532Y0162957D03*
X0175932Y0162957D03*
X0175932Y0162657D03*
X0175932Y0162057D03*
X0176232Y0163257D03*
X0176232Y0163557D03*
X0176232Y0163857D03*
X0176232Y0164157D03*
X0177432Y0172857D03*
X0177432Y0173157D03*
X0177732Y0174957D03*
X0177732Y0175257D03*
X0175332Y0175857D03*
X0177732Y0177957D03*
X0166332Y0151857D03*
X0166032Y0148257D03*
X0166332Y0147957D03*
X0166632Y0147657D03*
X0166932Y0147357D03*
X0168132Y0145557D03*
X0168132Y0142257D03*
X0169032Y0140457D03*
X0169332Y0140157D03*
X0164232Y0138957D03*
X0175032Y0135957D03*
X0178632Y0131757D03*
X0178932Y0131157D03*
X0179232Y0130557D03*
X0179232Y0130257D03*
X0179532Y0129957D03*
X0179532Y0129657D03*
X0179832Y0129357D03*
X0179832Y0129057D03*
X0180132Y0128457D03*
X0180132Y0128157D03*
X0180432Y0127857D03*
X0180432Y0127557D03*
X0180432Y0127257D03*
X0180732Y0126657D03*
X0180732Y0126357D03*
X0180732Y0126057D03*
X0181032Y0125457D03*
X0181032Y0125157D03*
X0181032Y0124857D03*
X0181332Y0123657D03*
X0181332Y0123357D03*
X0181632Y0121257D03*
X0181632Y0120957D03*
X0181632Y0120657D03*
X0181632Y0116457D03*
X0187032Y0112257D03*
X0187032Y0111957D03*
X0187032Y0111657D03*
X0187032Y0111357D03*
X0187032Y0111057D03*
X0187032Y0110757D03*
X0187032Y0110457D03*
X0187032Y0110157D03*
X0187032Y0109857D03*
X0186732Y0108957D03*
X0185832Y0107457D03*
X0185532Y0107157D03*
X0177132Y0105957D03*
X0176832Y0105657D03*
X0175932Y0105057D03*
X0175632Y0099657D03*
X0175632Y0099357D03*
X0175632Y0099057D03*
X0175332Y0098457D03*
X0175332Y0098157D03*
X0175032Y0097557D03*
X0174732Y0096957D03*
X0174432Y0096057D03*
X0174432Y0095757D03*
X0174432Y0095457D03*
X0175632Y0093057D03*
X0175332Y0092457D03*
X0175332Y0092157D03*
X0175032Y0091857D03*
X0175032Y0091557D03*
X0175032Y0091257D03*
X0174732Y0090957D03*
X0174732Y0090657D03*
X0172632Y0092157D03*
X0181632Y0088257D03*
X0181632Y0087957D03*
X0181332Y0087357D03*
X0181032Y0086457D03*
X0181032Y0086157D03*
X0180732Y0085857D03*
X0180732Y0085557D03*
X0180432Y0085257D03*
X0180432Y0084957D03*
X0180132Y0084357D03*
X0179832Y0083757D03*
X0179832Y0083457D03*
X0179532Y0083157D03*
X0179532Y0082857D03*
X0179232Y0082257D03*
X0178932Y0081357D03*
X0178632Y0080457D03*
X0178632Y0080157D03*
X0178632Y0079857D03*
X0178632Y0078657D03*
X0179532Y0077157D03*
X0179832Y0076857D03*
X0180132Y0076557D03*
X0181632Y0074757D03*
X0182232Y0073857D03*
X0182832Y0072957D03*
X0169932Y0059757D03*
X0181032Y0054057D03*
X0156432Y0050157D03*
X0156132Y0050457D03*
X0156132Y0050757D03*
X0156132Y0051057D03*
X0154332Y0058857D03*
X0154032Y0060357D03*
X0154032Y0060657D03*
X0154032Y0060957D03*
X0154032Y0061257D03*
X0153732Y0062757D03*
X0153732Y0063057D03*
X0153432Y0063957D03*
X0153432Y0064257D03*
X0153432Y0064557D03*
X0153132Y0065157D03*
X0153132Y0065457D03*
X0152832Y0066657D03*
X0152532Y0067257D03*
X0152232Y0068457D03*
X0151932Y0069357D03*
X0151932Y0069657D03*
X0151632Y0069957D03*
X0151632Y0070257D03*
X0151632Y0070557D03*
X0151632Y0070857D03*
X0151332Y0071157D03*
X0151332Y0071457D03*
X0151332Y0071757D03*
X0151032Y0072357D03*
X0151032Y0072657D03*
X0151032Y0072957D03*
X0151032Y0073257D03*
X0150732Y0073857D03*
X0150732Y0074157D03*
X0150732Y0074457D03*
X0150732Y0074757D03*
X0150732Y0075057D03*
X0150732Y0075357D03*
X0150732Y0075657D03*
X0150732Y0075957D03*
X0144132Y0079857D03*
X0143532Y0079557D03*
X0143232Y0079257D03*
X0145632Y0084357D03*
X0145632Y0084657D03*
X0147432Y0086457D03*
X0147132Y0086757D03*
X0149832Y0083757D03*
X0150132Y0083457D03*
X0150132Y0083157D03*
X0156732Y0086157D03*
X0156732Y0086457D03*
X0157032Y0085857D03*
X0157032Y0085557D03*
X0157332Y0085257D03*
X0157332Y0084957D03*
X0157332Y0084657D03*
X0157632Y0084357D03*
X0157632Y0084057D03*
X0157632Y0083757D03*
X0157932Y0083157D03*
X0158232Y0082257D03*
X0158232Y0081957D03*
X0158532Y0081357D03*
X0158532Y0081057D03*
X0158532Y0080757D03*
X0158832Y0080457D03*
X0158832Y0080157D03*
X0158832Y0079857D03*
X0159132Y0079557D03*
X0159132Y0079257D03*
X0159132Y0078957D03*
X0159132Y0078657D03*
X0159432Y0078057D03*
X0159432Y0077757D03*
X0159732Y0077157D03*
X0159732Y0076857D03*
X0159732Y0076557D03*
X0159732Y0076257D03*
X0160032Y0075657D03*
X0160032Y0075357D03*
X0160032Y0075057D03*
X0160332Y0074157D03*
X0160332Y0073857D03*
X0160332Y0073557D03*
X0160632Y0072057D03*
X0156432Y0087357D03*
X0156132Y0087957D03*
X0156132Y0088257D03*
X0156132Y0088557D03*
X0155832Y0090057D03*
X0155232Y0091257D03*
X0157632Y0092157D03*
X0150732Y0091257D03*
X0149832Y0090657D03*
X0149232Y0090357D03*
X0144432Y0090657D03*
X0144132Y0090357D03*
X0146232Y0096657D03*
X0145932Y0096957D03*
X0145032Y0105957D03*
X0145032Y0106257D03*
X0147732Y0108357D03*
X0147732Y0108657D03*
X0154932Y0108657D03*
X0155232Y0108357D03*
X0155232Y0108057D03*
X0155532Y0107757D03*
X0140532Y0115257D03*
X0140232Y0115557D03*
X0139932Y0116157D03*
X0139632Y0116757D03*
X0139632Y0117057D03*
X0139332Y0117357D03*
X0139332Y0117657D03*
X0139332Y0117957D03*
X0139332Y0118257D03*
X0139332Y0118557D03*
X0139332Y0118857D03*
X0139332Y0122757D03*
X0139332Y0123057D03*
X0139332Y0123357D03*
X0139632Y0125157D03*
X0134532Y0125457D03*
X0134532Y0125757D03*
X0134232Y0124557D03*
X0134232Y0124257D03*
X0133932Y0123657D03*
X0133932Y0123357D03*
X0133932Y0123057D03*
X0133632Y0122757D03*
X0133632Y0122457D03*
X0133632Y0122157D03*
X0133332Y0121857D03*
X0133332Y0121557D03*
X0133332Y0121257D03*
X0133032Y0120957D03*
X0133032Y0120657D03*
X0132732Y0120357D03*
X0132732Y0120057D03*
X0132432Y0119757D03*
X0132132Y0119157D03*
X0131832Y0118557D03*
X0131832Y0118257D03*
X0131832Y0117957D03*
X0131532Y0117657D03*
X0131532Y0117357D03*
X0131232Y0116457D03*
X0131232Y0116157D03*
X0130932Y0115557D03*
X0130932Y0115257D03*
X0130932Y0114957D03*
X0132132Y0109257D03*
X0120132Y0109257D03*
X0120132Y0108957D03*
X0120132Y0108657D03*
X0120132Y0108357D03*
X0120132Y0108057D03*
X0120132Y0107757D03*
X0120132Y0106857D03*
X0120132Y0106557D03*
X0120132Y0106257D03*
X0120132Y0105957D03*
X0120132Y0105657D03*
X0120132Y0105357D03*
X0120132Y0105057D03*
X0119832Y0104457D03*
X0119832Y0104157D03*
X0119832Y0103857D03*
X0119832Y0103557D03*
X0119532Y0103257D03*
X0119532Y0102957D03*
X0119532Y0102657D03*
X0119532Y0102357D03*
X0119232Y0102057D03*
X0119232Y0101757D03*
X0119232Y0101457D03*
X0118932Y0100857D03*
X0118932Y0100557D03*
X0118932Y0100257D03*
X0118632Y0099957D03*
X0118632Y0099657D03*
X0118632Y0099357D03*
X0118632Y0099057D03*
X0118332Y0098757D03*
X0118332Y0098457D03*
X0118032Y0097257D03*
X0117732Y0096357D03*
X0117732Y0096057D03*
X0116832Y0092757D03*
X0116832Y0092457D03*
X0116532Y0091557D03*
X0116532Y0091257D03*
X0116532Y0090957D03*
X0116532Y0090657D03*
X0116532Y0090357D03*
X0116232Y0089157D03*
X0116232Y0088857D03*
X0116232Y0088557D03*
X0116232Y0088257D03*
X0116232Y0087957D03*
X0115932Y0087357D03*
X0115932Y0087057D03*
X0115932Y0086757D03*
X0115932Y0086457D03*
X0115932Y0086157D03*
X0115932Y0085857D03*
X0115932Y0085557D03*
X0116232Y0085257D03*
X0116232Y0084957D03*
X0116232Y0084657D03*
X0116232Y0083757D03*
X0116232Y0083457D03*
X0116532Y0082557D03*
X0116832Y0081957D03*
X0119832Y0110457D03*
X0119832Y0110757D03*
X0119832Y0111057D03*
X0119532Y0111957D03*
X0119532Y0112257D03*
X0119232Y0112857D03*
X0119232Y0113157D03*
X0119232Y0113457D03*
X0118932Y0113757D03*
X0118932Y0114057D03*
X0118632Y0114657D03*
X0118632Y0114957D03*
X0118332Y0115857D03*
X0118032Y0117357D03*
X0116532Y0123057D03*
X0116232Y0125157D03*
X0116232Y0125457D03*
X0116232Y0125757D03*
X0116232Y0126057D03*
X0116232Y0126357D03*
X0116232Y0126657D03*
X0116232Y0126957D03*
X0116532Y0128157D03*
X0116532Y0128457D03*
X0116832Y0129057D03*
X0116832Y0129357D03*
X0117132Y0129657D03*
X0117132Y0129957D03*
X0132132Y0132357D03*
X0132432Y0132057D03*
X0132732Y0131757D03*
X0133032Y0131457D03*
X0133332Y0131157D03*
X0133632Y0130857D03*
X0133932Y0130257D03*
X0134232Y0129657D03*
X0134232Y0129357D03*
X0127932Y0141357D03*
X0129132Y0144957D03*
X0129732Y0145257D03*
X0142632Y0146457D03*
X0142932Y0146157D03*
X0146532Y0144357D03*
X0149232Y0147957D03*
X0149832Y0148257D03*
X0159732Y0151257D03*
X0159732Y0151557D03*
X0184632Y0139257D03*
X0188232Y0138057D03*
X0188532Y0137757D03*
X0188832Y0137457D03*
X0189132Y0137157D03*
X0190632Y0135657D03*
X0190932Y0135357D03*
X0191832Y0134157D03*
X0192132Y0133857D03*
X0192432Y0133557D03*
X0192732Y0133257D03*
X0193332Y0132357D03*
X0193632Y0132057D03*
X0200832Y0137457D03*
X0199032Y0140757D03*
X0196032Y0139557D03*
X0194532Y0144657D03*
X0188232Y0145857D03*
X0187032Y0147657D03*
X0186732Y0147957D03*
X0186432Y0148257D03*
X0203232Y0142257D03*
X0203532Y0141957D03*
X0203532Y0141657D03*
X0203832Y0141357D03*
X0193332Y0118257D03*
X0192432Y0117657D03*
X0191532Y0117057D03*
X0190932Y0116757D03*
D20*
X0190482Y0116457D03*
X0189882Y0116157D03*
X0179082Y0108057D03*
X0176382Y0105357D03*
X0175482Y0104757D03*
X0175482Y0098757D03*
X0175182Y0097857D03*
X0174882Y0097257D03*
X0174582Y0096657D03*
X0174582Y0096357D03*
X0174582Y0090357D03*
X0174582Y0090057D03*
X0174282Y0089757D03*
X0174282Y0089457D03*
X0174282Y0089157D03*
X0173982Y0088857D03*
X0173982Y0088557D03*
X0173982Y0088257D03*
X0173682Y0087957D03*
X0173682Y0087657D03*
X0173682Y0087357D03*
X0173382Y0087057D03*
X0173382Y0086757D03*
X0173382Y0086457D03*
X0173082Y0085857D03*
X0173082Y0085557D03*
X0173082Y0085257D03*
X0172782Y0084957D03*
X0172782Y0084657D03*
X0172782Y0084357D03*
X0172782Y0084057D03*
X0172482Y0083757D03*
X0172482Y0083457D03*
X0172482Y0083157D03*
X0172182Y0082257D03*
X0172182Y0081957D03*
X0172182Y0081657D03*
X0171882Y0081057D03*
X0171882Y0080757D03*
X0171582Y0079257D03*
X0171582Y0078957D03*
X0171282Y0078057D03*
X0171282Y0077757D03*
X0171282Y0077457D03*
X0170982Y0076257D03*
X0170982Y0075957D03*
X0170982Y0075657D03*
X0160482Y0073257D03*
X0160482Y0072957D03*
X0160482Y0072657D03*
X0160482Y0072357D03*
X0160782Y0071757D03*
X0160782Y0071457D03*
X0160782Y0071157D03*
X0160782Y0070857D03*
X0160782Y0070557D03*
X0161082Y0069657D03*
X0161082Y0069357D03*
X0161082Y0069057D03*
X0161082Y0068757D03*
X0161382Y0066957D03*
X0161382Y0066657D03*
X0161382Y0066357D03*
X0153282Y0064857D03*
X0152982Y0065757D03*
X0152982Y0066057D03*
X0152982Y0066357D03*
X0152682Y0066957D03*
X0152382Y0067557D03*
X0152382Y0067857D03*
X0152382Y0068157D03*
X0152082Y0068757D03*
X0152082Y0069057D03*
X0151182Y0072057D03*
X0159882Y0075957D03*
X0160182Y0074757D03*
X0160182Y0074457D03*
X0159582Y0077457D03*
X0149682Y0084057D03*
X0149382Y0084357D03*
X0149082Y0084657D03*
X0145182Y0084957D03*
X0143082Y0089757D03*
X0143682Y0090057D03*
X0150282Y0090957D03*
X0155382Y0090957D03*
X0155682Y0090657D03*
X0155682Y0090357D03*
X0155982Y0089757D03*
X0155982Y0089457D03*
X0155982Y0089157D03*
X0155982Y0088857D03*
X0156282Y0087657D03*
X0156582Y0087057D03*
X0156582Y0086757D03*
X0160782Y0095757D03*
X0160182Y0096357D03*
X0159882Y0096657D03*
X0159582Y0097257D03*
X0159282Y0097557D03*
X0158982Y0097857D03*
X0158682Y0098157D03*
X0158682Y0098457D03*
X0158382Y0098757D03*
X0158382Y0099057D03*
X0157182Y0105957D03*
X0156882Y0106257D03*
X0156582Y0106557D03*
X0156282Y0106857D03*
X0155982Y0107157D03*
X0155682Y0107457D03*
X0148182Y0108057D03*
X0144582Y0106557D03*
X0143082Y0099057D03*
X0145482Y0097257D03*
X0130482Y0097257D03*
X0119982Y0104757D03*
X0120282Y0107157D03*
X0120282Y0107457D03*
X0119982Y0109557D03*
X0119982Y0109857D03*
X0119982Y0110157D03*
X0119682Y0111357D03*
X0119682Y0111657D03*
X0119382Y0112557D03*
X0118782Y0114357D03*
X0118482Y0115257D03*
X0118482Y0115557D03*
X0118182Y0116157D03*
X0118182Y0116457D03*
X0118182Y0116757D03*
X0118182Y0117057D03*
X0117882Y0117657D03*
X0117882Y0117957D03*
X0117582Y0118257D03*
X0117582Y0118557D03*
X0117582Y0118857D03*
X0117282Y0119757D03*
X0117282Y0120057D03*
X0116982Y0120357D03*
X0116982Y0120657D03*
X0116982Y0120957D03*
X0116982Y0121257D03*
X0116682Y0121557D03*
X0116682Y0121857D03*
X0116682Y0122157D03*
X0116682Y0122457D03*
X0116682Y0122757D03*
X0116382Y0123357D03*
X0116382Y0123657D03*
X0116382Y0123957D03*
X0116382Y0124257D03*
X0116382Y0124557D03*
X0116382Y0124857D03*
X0116382Y0127257D03*
X0116382Y0127557D03*
X0116382Y0127857D03*
X0131082Y0133257D03*
X0131382Y0132957D03*
X0131982Y0132657D03*
X0128382Y0140757D03*
X0128082Y0141057D03*
X0130182Y0145557D03*
X0146382Y0142257D03*
X0146682Y0141957D03*
X0150282Y0148557D03*
X0150882Y0148857D03*
X0159282Y0152157D03*
X0159282Y0152457D03*
X0159282Y0152757D03*
X0159282Y0153057D03*
X0158982Y0153357D03*
X0158982Y0153657D03*
X0158982Y0153957D03*
X0158982Y0154257D03*
X0158682Y0154557D03*
X0158682Y0154857D03*
X0158682Y0155157D03*
X0158682Y0155457D03*
X0158382Y0155757D03*
X0158382Y0156057D03*
X0158382Y0156357D03*
X0158382Y0156657D03*
X0166482Y0152457D03*
X0166482Y0152157D03*
X0165582Y0148557D03*
X0167982Y0146157D03*
X0167982Y0145857D03*
X0167682Y0143757D03*
X0167982Y0141957D03*
X0167982Y0141657D03*
X0169482Y0139857D03*
X0169782Y0139557D03*
X0175182Y0135657D03*
X0177582Y0133257D03*
X0177882Y0132957D03*
X0178182Y0132657D03*
X0178182Y0132357D03*
X0178482Y0132057D03*
X0178782Y0131457D03*
X0179082Y0130857D03*
X0183582Y0138657D03*
X0184182Y0138957D03*
X0190482Y0135957D03*
X0195882Y0139857D03*
X0202782Y0142557D03*
X0175782Y0142857D03*
X0171882Y0149757D03*
X0173082Y0154257D03*
X0173682Y0162057D03*
X0173682Y0162657D03*
X0173682Y0164157D03*
X0173682Y0164457D03*
X0173382Y0165957D03*
X0176382Y0165957D03*
X0176382Y0166257D03*
X0177582Y0173457D03*
X0177582Y0173757D03*
X0175182Y0175557D03*
X0172482Y0175557D03*
X0172182Y0175857D03*
X0172182Y0176157D03*
X0165282Y0176157D03*
X0165282Y0175857D03*
X0165282Y0175557D03*
X0165282Y0176457D03*
X0163182Y0169257D03*
X0163182Y0168957D03*
X0164082Y0165357D03*
X0164082Y0165057D03*
X0164082Y0164457D03*
X0164082Y0164157D03*
X0166482Y0164157D03*
X0166482Y0164457D03*
X0155082Y0164757D03*
X0155082Y0165057D03*
X0154782Y0165357D03*
X0154782Y0165657D03*
X0154482Y0165957D03*
X0154482Y0166257D03*
X0154182Y0166557D03*
X0154182Y0166857D03*
X0153882Y0167157D03*
X0153882Y0167457D03*
X0153582Y0167757D03*
X0153582Y0168057D03*
X0153282Y0168657D03*
X0149682Y0174657D03*
X0154482Y0176457D03*
X0140982Y0170157D03*
X0139782Y0116457D03*
X0140082Y0115857D03*
X0140682Y0114957D03*
X0131382Y0116757D03*
X0131382Y0117057D03*
X0131082Y0115857D03*
X0130782Y0114657D03*
X0130782Y0114357D03*
X0130782Y0114057D03*
X0130782Y0113757D03*
X0130782Y0113457D03*
X0130782Y0113157D03*
X0130782Y0112857D03*
X0130782Y0112557D03*
X0130782Y0112257D03*
X0131082Y0111957D03*
X0131082Y0111657D03*
X0131382Y0111057D03*
X0131382Y0110757D03*
X0131682Y0110457D03*
X0131982Y0109857D03*
X0131982Y0109557D03*
X0132282Y0086157D03*
X0142782Y0078957D03*
X0153582Y0063657D03*
X0153582Y0063357D03*
X0153882Y0062457D03*
X0153882Y0062157D03*
X0153882Y0061857D03*
X0153882Y0061557D03*
X0154182Y0060057D03*
X0154182Y0059757D03*
X0154182Y0059457D03*
X0154182Y0059157D03*
X0154482Y0058557D03*
X0154482Y0058257D03*
X0154482Y0057957D03*
X0154482Y0057657D03*
X0154782Y0056157D03*
X0155982Y0051657D03*
X0155982Y0051357D03*
X0161982Y0053157D03*
X0170082Y0060057D03*
X0184782Y0064257D03*
X0184782Y0067557D03*
X0184782Y0067857D03*
X0184782Y0068157D03*
X0184782Y0068457D03*
X0184782Y0068757D03*
X0184482Y0069057D03*
X0184482Y0069357D03*
X0184482Y0069657D03*
X0184182Y0069957D03*
X0184182Y0070257D03*
X0184182Y0070557D03*
X0183882Y0071157D03*
X0183582Y0071457D03*
X0183582Y0071757D03*
X0183282Y0072057D03*
X0183282Y0072357D03*
X0182982Y0072657D03*
X0182682Y0073257D03*
X0182382Y0073557D03*
X0182082Y0074157D03*
X0181782Y0074457D03*
X0181482Y0075057D03*
X0181182Y0075357D03*
X0180882Y0075657D03*
X0180582Y0075957D03*
X0180282Y0076257D03*
X0178482Y0078957D03*
X0178482Y0079257D03*
X0178482Y0079557D03*
X0178782Y0080757D03*
X0178782Y0081057D03*
X0179082Y0081657D03*
X0179082Y0081957D03*
X0179382Y0082557D03*
X0179982Y0084057D03*
X0180282Y0084657D03*
X0180582Y0092457D03*
X0118182Y0079857D03*
X0117882Y0080157D03*
X0117582Y0080457D03*
X0117282Y0080757D03*
X0117282Y0081057D03*
X0116982Y0081357D03*
X0116982Y0081657D03*
X0116682Y0082257D03*
X0116382Y0082857D03*
X0116382Y0083157D03*
X0116082Y0084057D03*
X0116082Y0084357D03*
D21*
X0118332Y0079557D03*
X0118632Y0079257D03*
X0118932Y0078957D03*
X0119532Y0078357D03*
X0142332Y0078657D03*
X0145032Y0085257D03*
X0147732Y0086157D03*
X0148032Y0085857D03*
X0148332Y0085557D03*
X0148632Y0085257D03*
X0148932Y0084957D03*
X0142332Y0089457D03*
X0138432Y0099357D03*
X0138732Y0099657D03*
X0144432Y0106857D03*
X0141132Y0114657D03*
X0131832Y0110157D03*
X0131232Y0111357D03*
X0117432Y0119157D03*
X0117432Y0119457D03*
X0128832Y0140457D03*
X0130632Y0145857D03*
X0141432Y0165957D03*
X0137832Y0169857D03*
X0138432Y0170457D03*
X0141732Y0171957D03*
X0149832Y0174357D03*
X0150132Y0174057D03*
X0153132Y0174057D03*
X0153132Y0169257D03*
X0153132Y0168957D03*
X0153432Y0168357D03*
X0163032Y0169557D03*
X0163932Y0165957D03*
X0163932Y0165657D03*
X0157932Y0158457D03*
X0157932Y0158157D03*
X0158232Y0157857D03*
X0158232Y0157557D03*
X0158232Y0157257D03*
X0158232Y0156957D03*
X0165132Y0148857D03*
X0172632Y0150057D03*
X0173232Y0154557D03*
X0173532Y0155157D03*
X0176832Y0145557D03*
X0170532Y0138957D03*
X0170232Y0139257D03*
X0175932Y0135057D03*
X0176232Y0134757D03*
X0176532Y0134457D03*
X0176832Y0134157D03*
X0177132Y0133857D03*
X0177432Y0133557D03*
X0196032Y0140157D03*
X0196332Y0140457D03*
X0196332Y0143757D03*
X0195732Y0144057D03*
X0195132Y0144357D03*
X0201132Y0144057D03*
X0201432Y0143757D03*
X0202032Y0143457D03*
X0202332Y0143157D03*
X0202632Y0142857D03*
X0186132Y0148557D03*
X0172932Y0174057D03*
X0172932Y0174657D03*
X0189132Y0115857D03*
X0188532Y0115557D03*
X0184632Y0106857D03*
X0175032Y0104457D03*
X0160632Y0096057D03*
X0159732Y0096957D03*
X0157932Y0105357D03*
X0157632Y0105657D03*
X0154332Y0114057D03*
X0178632Y0093657D03*
X0173232Y0086157D03*
X0172332Y0082857D03*
X0172332Y0082557D03*
X0172032Y0081357D03*
X0171732Y0080457D03*
X0171732Y0080157D03*
X0171732Y0079857D03*
X0171732Y0079557D03*
X0171432Y0078657D03*
X0171432Y0078357D03*
X0171132Y0077157D03*
X0171132Y0076857D03*
X0171132Y0076557D03*
X0170832Y0075357D03*
X0170832Y0075057D03*
X0170832Y0074757D03*
X0170832Y0074457D03*
X0170832Y0074157D03*
X0170832Y0073857D03*
X0170832Y0073557D03*
X0170532Y0072957D03*
X0170532Y0072657D03*
X0170532Y0072357D03*
X0170532Y0072057D03*
X0170532Y0071757D03*
X0170532Y0071457D03*
X0170532Y0071157D03*
X0170532Y0070857D03*
X0170532Y0070557D03*
X0170532Y0070257D03*
X0170532Y0069957D03*
X0170232Y0067257D03*
X0170232Y0066957D03*
X0170232Y0066657D03*
X0170232Y0066357D03*
X0170232Y0066057D03*
X0170232Y0065757D03*
X0170232Y0065457D03*
X0170232Y0065157D03*
X0170232Y0064857D03*
X0170232Y0064557D03*
X0170232Y0064257D03*
X0170232Y0063957D03*
X0170232Y0063657D03*
X0170232Y0063357D03*
X0170232Y0063057D03*
X0170232Y0062757D03*
X0170232Y0062457D03*
X0170232Y0062157D03*
X0170232Y0061857D03*
X0170232Y0061557D03*
X0170232Y0061257D03*
X0170232Y0060957D03*
X0170232Y0060657D03*
X0170232Y0060357D03*
X0161832Y0060357D03*
X0161832Y0060057D03*
X0161832Y0059757D03*
X0161832Y0059457D03*
X0161832Y0059157D03*
X0161832Y0058257D03*
X0161832Y0057957D03*
X0161832Y0057657D03*
X0161832Y0057357D03*
X0161832Y0060657D03*
X0161832Y0060957D03*
X0161832Y0061257D03*
X0161832Y0061557D03*
X0161832Y0061857D03*
X0161832Y0062157D03*
X0161832Y0062457D03*
X0161532Y0063657D03*
X0161532Y0063957D03*
X0161532Y0064257D03*
X0161532Y0064557D03*
X0161532Y0064857D03*
X0161532Y0065157D03*
X0161532Y0065457D03*
X0161532Y0065757D03*
X0161532Y0066057D03*
X0161232Y0067257D03*
X0161232Y0067557D03*
X0161232Y0067857D03*
X0161232Y0068157D03*
X0161232Y0068457D03*
X0160932Y0069957D03*
X0160932Y0070257D03*
X0154632Y0057357D03*
X0154632Y0057057D03*
X0154632Y0056757D03*
X0154632Y0056457D03*
X0154932Y0055857D03*
X0154932Y0055557D03*
X0154932Y0055257D03*
X0154932Y0054957D03*
X0155232Y0054657D03*
X0155232Y0054357D03*
X0155232Y0054057D03*
X0155232Y0053757D03*
X0155532Y0053457D03*
X0155532Y0053157D03*
X0155832Y0052257D03*
X0155832Y0051957D03*
X0183432Y0059157D03*
X0183732Y0060057D03*
X0184032Y0060957D03*
X0184332Y0061557D03*
X0184332Y0061857D03*
X0184332Y0062157D03*
X0184632Y0062757D03*
X0184632Y0063057D03*
X0184632Y0063357D03*
X0184632Y0063657D03*
X0184632Y0063957D03*
X0184932Y0064557D03*
X0184932Y0064857D03*
X0184932Y0065157D03*
X0184932Y0065457D03*
X0184932Y0065757D03*
X0184932Y0066057D03*
X0184932Y0066357D03*
X0184932Y0066657D03*
X0184932Y0066957D03*
X0184932Y0067257D03*
D22*
X0184482Y0062457D03*
X0184182Y0061257D03*
X0183882Y0060657D03*
X0183882Y0060357D03*
X0183582Y0059757D03*
X0183582Y0059457D03*
X0183282Y0058857D03*
X0183282Y0058557D03*
X0182982Y0057957D03*
X0182682Y0057657D03*
X0182682Y0057357D03*
X0182382Y0057057D03*
X0182382Y0056757D03*
X0182082Y0056457D03*
X0182082Y0056157D03*
X0181782Y0055857D03*
X0181182Y0054957D03*
X0180882Y0054357D03*
X0170382Y0067557D03*
X0170382Y0067857D03*
X0170382Y0068157D03*
X0170382Y0068457D03*
X0170382Y0068757D03*
X0170382Y0069057D03*
X0170382Y0069357D03*
X0170382Y0069657D03*
X0170682Y0073257D03*
X0161682Y0063357D03*
X0161682Y0063057D03*
X0161682Y0062757D03*
X0161982Y0058857D03*
X0161982Y0058557D03*
X0161982Y0057057D03*
X0161982Y0056757D03*
X0161982Y0056457D03*
X0161982Y0056157D03*
X0161982Y0055857D03*
X0161982Y0055557D03*
X0161982Y0055257D03*
X0161982Y0054957D03*
X0161982Y0054657D03*
X0161982Y0054357D03*
X0161982Y0054057D03*
X0161982Y0053757D03*
X0161982Y0053457D03*
X0155682Y0052857D03*
X0155682Y0052557D03*
X0141582Y0078357D03*
X0144582Y0085557D03*
X0141882Y0089157D03*
X0144882Y0097557D03*
X0143982Y0107157D03*
X0141582Y0114357D03*
X0158382Y0105057D03*
X0158682Y0104757D03*
X0179982Y0092757D03*
X0187782Y0115257D03*
X0193482Y0135957D03*
X0199782Y0137157D03*
X0196182Y0140757D03*
X0195582Y0141357D03*
X0196782Y0143457D03*
X0200082Y0144657D03*
X0200682Y0144357D03*
X0185682Y0148857D03*
X0185082Y0149157D03*
X0176682Y0149757D03*
X0173382Y0154857D03*
X0173682Y0155457D03*
X0173682Y0155757D03*
X0164382Y0149157D03*
X0167982Y0146457D03*
X0167982Y0141357D03*
X0167982Y0141057D03*
X0170982Y0138657D03*
X0175482Y0135357D03*
X0182982Y0138357D03*
X0176082Y0143157D03*
X0163182Y0138657D03*
X0141882Y0146757D03*
X0131382Y0146157D03*
X0129282Y0140157D03*
X0130482Y0133557D03*
X0157782Y0158757D03*
X0157782Y0159057D03*
X0157782Y0159357D03*
X0157482Y0159957D03*
X0157482Y0160257D03*
X0165882Y0168957D03*
X0165882Y0169257D03*
X0165882Y0169557D03*
X0173682Y0166257D03*
X0173982Y0164757D03*
X0172182Y0176457D03*
X0149982Y0174957D03*
X0119082Y0078657D03*
X0119982Y0078057D03*
X0120282Y0077757D03*
D23*
X0127182Y0075057D03*
X0157482Y0092457D03*
X0160482Y0095157D03*
X0176082Y0093957D03*
X0138282Y0099957D03*
X0144582Y0138957D03*
X0143382Y0145257D03*
X0131382Y0141357D03*
X0162282Y0143457D03*
X0141582Y0169857D03*
X0164382Y0177357D03*
X0171582Y0177357D03*
X0181182Y0053757D03*
D24*
X0181032Y0054657D03*
X0181332Y0055257D03*
X0181632Y0055557D03*
X0183132Y0058257D03*
X0141132Y0088857D03*
X0120732Y0077457D03*
X0159132Y0104457D03*
X0174432Y0104157D03*
X0179232Y0107757D03*
X0181032Y0106857D03*
X0182532Y0105957D03*
X0187032Y0114957D03*
X0178932Y0093357D03*
X0179232Y0093057D03*
X0182232Y0138057D03*
X0176832Y0145257D03*
X0166032Y0152757D03*
X0166032Y0153057D03*
X0166032Y0153357D03*
X0166032Y0153657D03*
X0163632Y0149457D03*
X0151932Y0149157D03*
X0147432Y0141057D03*
X0147732Y0140757D03*
X0173832Y0156057D03*
X0173832Y0156357D03*
X0173832Y0156657D03*
X0174132Y0157557D03*
X0174132Y0157857D03*
X0174432Y0158757D03*
X0174432Y0159057D03*
X0157632Y0159657D03*
X0157332Y0160557D03*
X0157332Y0160857D03*
X0153132Y0169557D03*
X0154032Y0176157D03*
X0193032Y0147057D03*
D25*
X0194382Y0144957D03*
X0188082Y0144657D03*
X0188082Y0144357D03*
X0188082Y0144057D03*
X0188082Y0143757D03*
X0187782Y0142857D03*
X0187782Y0142557D03*
X0187482Y0142257D03*
X0187482Y0141957D03*
X0187182Y0141657D03*
X0186582Y0140757D03*
X0203382Y0138657D03*
X0169182Y0147357D03*
X0168882Y0146757D03*
X0164082Y0138057D03*
X0163782Y0137757D03*
X0163482Y0137457D03*
X0163182Y0137157D03*
X0162882Y0136857D03*
X0162582Y0136557D03*
X0162282Y0136257D03*
X0161982Y0135957D03*
X0161682Y0135657D03*
X0161382Y0135057D03*
X0161082Y0134757D03*
X0160782Y0134157D03*
X0160482Y0133857D03*
X0160182Y0133257D03*
X0159882Y0132657D03*
X0159582Y0132357D03*
X0159282Y0131757D03*
X0158982Y0131157D03*
X0158682Y0130557D03*
X0158382Y0129957D03*
X0158082Y0129357D03*
X0157782Y0128757D03*
X0157482Y0128157D03*
X0156882Y0126657D03*
X0156282Y0125157D03*
X0148182Y0114057D03*
X0145482Y0103257D03*
X0145482Y0102957D03*
X0145482Y0102657D03*
X0145182Y0102057D03*
X0145182Y0101757D03*
X0145182Y0101457D03*
X0144882Y0101157D03*
X0144582Y0100557D03*
X0139482Y0099957D03*
X0135282Y0097257D03*
X0146982Y0093957D03*
X0146982Y0087957D03*
X0145782Y0082257D03*
X0158382Y0099657D03*
X0142782Y0135657D03*
X0143082Y0136257D03*
X0143682Y0137457D03*
X0143982Y0138057D03*
X0144282Y0138357D03*
X0144282Y0138657D03*
X0146382Y0143457D03*
X0146082Y0144957D03*
X0146382Y0145557D03*
X0146682Y0145857D03*
X0150882Y0150357D03*
X0134082Y0141957D03*
X0178182Y0178257D03*
X0169482Y0059457D03*
D26*
X0127932Y0075357D03*
X0162732Y0103257D03*
X0166932Y0102057D03*
X0151032Y0106857D03*
X0127932Y0106857D03*
X0132432Y0139257D03*
X0145632Y0162957D03*
X0145332Y0163557D03*
X0145032Y0163857D03*
X0144732Y0164157D03*
X0153732Y0171057D03*
X0153732Y0171357D03*
X0154032Y0170757D03*
X0163332Y0173757D03*
X0163332Y0174057D03*
X0163632Y0173157D03*
X0163932Y0172857D03*
X0163932Y0172557D03*
X0175032Y0170757D03*
X0175032Y0170457D03*
X0175032Y0170157D03*
X0175032Y0169857D03*
X0175032Y0169557D03*
X0175032Y0169257D03*
X0175032Y0168957D03*
X0182532Y0149757D03*
D27*
X0166932Y0102657D03*
X0129132Y0075657D03*
D28*
X0129582Y0075957D03*
X0164982Y0091257D03*
X0148482Y0113157D03*
D29*
X0129882Y0076257D03*
D30*
X0123432Y0076557D03*
X0139332Y0077457D03*
X0143232Y0086157D03*
X0182832Y0113757D03*
X0181032Y0137757D03*
X0196332Y0142857D03*
X0174732Y0162357D03*
X0165432Y0162357D03*
X0165432Y0162057D03*
X0165432Y0162657D03*
X0165432Y0162957D03*
X0165432Y0163257D03*
X0165432Y0163557D03*
X0165432Y0163857D03*
X0165132Y0164757D03*
X0161532Y0175557D03*
X0161532Y0175857D03*
X0161232Y0176157D03*
X0154032Y0174957D03*
X0154032Y0174657D03*
X0154032Y0174357D03*
X0142032Y0170457D03*
X0139032Y0169557D03*
X0145032Y0165957D03*
X0150132Y0154857D03*
X0150432Y0154257D03*
X0150432Y0153957D03*
X0150732Y0153657D03*
X0151032Y0153057D03*
X0151632Y0150957D03*
X0162432Y0149757D03*
X0149232Y0139857D03*
X0135432Y0144957D03*
X0133932Y0143757D03*
X0133632Y0143457D03*
X0133332Y0143157D03*
X0133032Y0142557D03*
X0176532Y0174057D03*
X0176532Y0174657D03*
D31*
X0157632Y0137757D03*
X0134532Y0076557D03*
D32*
X0122382Y0076857D03*
X0138582Y0087957D03*
X0138282Y0099057D03*
X0160482Y0103857D03*
X0172782Y0103557D03*
X0179382Y0107157D03*
X0185982Y0114657D03*
X0196482Y0143157D03*
X0197982Y0145557D03*
X0184182Y0149457D03*
X0176682Y0144357D03*
X0176682Y0144057D03*
X0158382Y0150957D03*
X0153582Y0149757D03*
X0151482Y0151257D03*
X0151482Y0151557D03*
X0151482Y0151857D03*
X0150882Y0153357D03*
X0148182Y0143757D03*
X0134082Y0144057D03*
X0133182Y0142857D03*
X0132882Y0142257D03*
X0130782Y0139557D03*
X0133482Y0138657D03*
X0129582Y0133857D03*
X0133482Y0146757D03*
X0156582Y0163257D03*
X0156582Y0163557D03*
X0156282Y0163857D03*
X0156282Y0164157D03*
X0156282Y0164457D03*
X0153282Y0170157D03*
X0165582Y0161757D03*
X0165582Y0161457D03*
X0165582Y0161157D03*
X0165582Y0160857D03*
X0165582Y0160557D03*
X0165582Y0160257D03*
X0165582Y0159957D03*
X0174582Y0161757D03*
D33*
X0163332Y0174357D03*
X0163032Y0174657D03*
X0163032Y0174957D03*
X0163032Y0176757D03*
X0153432Y0172257D03*
X0152532Y0175557D03*
X0143832Y0165657D03*
X0144132Y0165357D03*
X0175332Y0177357D03*
X0150732Y0107457D03*
X0136632Y0076857D03*
D34*
X0140982Y0078057D03*
X0143982Y0085857D03*
X0140382Y0088557D03*
X0121482Y0077157D03*
X0159882Y0104157D03*
X0146982Y0112257D03*
X0143382Y0107457D03*
X0173682Y0103857D03*
X0179382Y0107457D03*
X0182082Y0113457D03*
X0195882Y0141057D03*
X0199482Y0144957D03*
X0176982Y0144957D03*
X0176382Y0143457D03*
X0165882Y0153957D03*
X0165882Y0154257D03*
X0165882Y0154557D03*
X0165882Y0154857D03*
X0165882Y0155157D03*
X0165882Y0155457D03*
X0165882Y0155757D03*
X0165882Y0156057D03*
X0165882Y0156357D03*
X0165882Y0156657D03*
X0165882Y0156957D03*
X0165882Y0157257D03*
X0165882Y0157557D03*
X0165882Y0157857D03*
X0173982Y0157257D03*
X0173982Y0156957D03*
X0174282Y0158157D03*
X0174282Y0158457D03*
X0174582Y0159657D03*
X0174582Y0159957D03*
X0174582Y0160257D03*
X0174582Y0160557D03*
X0157182Y0161157D03*
X0157182Y0161457D03*
X0156882Y0162057D03*
X0152982Y0169857D03*
X0164682Y0177057D03*
X0172482Y0176757D03*
X0176982Y0177657D03*
X0132282Y0146457D03*
X0134382Y0144657D03*
X0129882Y0139857D03*
X0147282Y0144057D03*
X0148182Y0140457D03*
D35*
X0149832Y0143457D03*
X0151932Y0138957D03*
X0149532Y0156057D03*
X0149232Y0156357D03*
X0149232Y0156657D03*
X0148932Y0156957D03*
X0148932Y0157257D03*
X0148632Y0157557D03*
X0148332Y0158157D03*
X0139932Y0168957D03*
X0139632Y0169257D03*
X0152232Y0172557D03*
X0152232Y0172857D03*
X0164832Y0168057D03*
X0164832Y0167757D03*
X0164832Y0167457D03*
X0164832Y0167157D03*
X0164832Y0166857D03*
X0175032Y0165357D03*
X0175032Y0165057D03*
X0196932Y0145857D03*
X0196632Y0142557D03*
X0182532Y0106257D03*
X0137532Y0087657D03*
X0138432Y0077157D03*
D36*
X0140232Y0077757D03*
X0139632Y0088257D03*
X0126432Y0106557D03*
X0142332Y0114057D03*
X0172332Y0138057D03*
X0176532Y0143757D03*
X0176832Y0144657D03*
X0165732Y0158157D03*
X0165732Y0158457D03*
X0165732Y0158757D03*
X0165732Y0159057D03*
X0165732Y0159357D03*
X0165732Y0159657D03*
X0174432Y0159357D03*
X0174732Y0160857D03*
X0174732Y0161157D03*
X0174732Y0161457D03*
X0157032Y0161757D03*
X0156732Y0162357D03*
X0156732Y0162657D03*
X0156732Y0162957D03*
X0151332Y0152757D03*
X0151332Y0152457D03*
X0151332Y0152157D03*
X0151932Y0150657D03*
X0152532Y0149457D03*
X0148632Y0140157D03*
X0135732Y0145257D03*
X0134232Y0144357D03*
X0141432Y0171657D03*
X0198732Y0145257D03*
X0198732Y0136857D03*
D37*
X0157632Y0138357D03*
X0137532Y0108057D03*
X0137832Y0086457D03*
D38*
X0137682Y0086757D03*
D39*
X0137382Y0087057D03*
D40*
X0137532Y0087357D03*
X0133932Y0097557D03*
X0139332Y0098757D03*
X0176832Y0137157D03*
X0180132Y0150057D03*
D41*
X0129882Y0107157D03*
X0165282Y0090957D03*
D42*
X0164832Y0091557D03*
D43*
X0160332Y0091857D03*
X0131532Y0107457D03*
X0151932Y0141957D03*
X0151932Y0143157D03*
X0141732Y0168357D03*
X0141432Y0168657D03*
X0152832Y0173457D03*
X0152832Y0173757D03*
X0193032Y0146757D03*
X0184032Y0114057D03*
D44*
X0171432Y0103257D03*
X0170832Y0091857D03*
X0151032Y0106557D03*
X0125832Y0135057D03*
X0133032Y0138957D03*
X0152832Y0138657D03*
X0157332Y0137457D03*
X0173532Y0137757D03*
X0176832Y0136557D03*
X0196932Y0141657D03*
X0175032Y0167157D03*
X0175032Y0167457D03*
X0175032Y0167757D03*
X0175032Y0168057D03*
X0175032Y0168357D03*
X0175032Y0168657D03*
X0164532Y0169857D03*
X0164232Y0170457D03*
X0164232Y0170757D03*
X0164232Y0171057D03*
X0164232Y0171357D03*
X0153132Y0175857D03*
X0146532Y0161457D03*
X0146532Y0161157D03*
X0147732Y0159357D03*
D45*
X0137682Y0097857D03*
D46*
X0137682Y0098157D03*
D47*
X0138732Y0098457D03*
X0137832Y0108357D03*
X0148632Y0112857D03*
X0178032Y0150357D03*
D48*
X0177582Y0150957D03*
X0137682Y0147357D03*
X0125382Y0134757D03*
X0166782Y0102357D03*
D49*
X0166782Y0102957D03*
D50*
X0161382Y0103557D03*
X0150882Y0139257D03*
X0149982Y0139557D03*
X0148182Y0141357D03*
X0150282Y0154557D03*
X0149982Y0155157D03*
X0149682Y0155457D03*
X0149682Y0155757D03*
X0164982Y0166257D03*
X0164982Y0166557D03*
X0173982Y0172857D03*
X0173982Y0173157D03*
X0173982Y0173457D03*
X0173982Y0173757D03*
X0161682Y0176457D03*
X0141282Y0171357D03*
X0197082Y0142257D03*
D51*
X0165882Y0143457D03*
X0157482Y0150657D03*
X0147282Y0160257D03*
X0147282Y0160557D03*
X0146982Y0160857D03*
X0146382Y0161757D03*
X0146082Y0162057D03*
X0146082Y0162357D03*
X0145782Y0162657D03*
X0145482Y0163257D03*
X0154182Y0170457D03*
X0163482Y0173457D03*
X0164082Y0172257D03*
X0164082Y0171957D03*
X0164082Y0171657D03*
X0164382Y0170157D03*
X0173982Y0177057D03*
X0152982Y0113757D03*
X0143382Y0113757D03*
X0138882Y0108957D03*
X0182682Y0106557D03*
D52*
X0150882Y0107157D03*
X0137682Y0147657D03*
X0144582Y0164457D03*
X0144282Y0164757D03*
X0144282Y0165057D03*
X0140682Y0170757D03*
X0153582Y0171657D03*
X0153582Y0171957D03*
X0175182Y0171957D03*
X0175182Y0171657D03*
X0175182Y0171357D03*
X0175182Y0171057D03*
X0175182Y0172257D03*
X0175182Y0172557D03*
D53*
X0136932Y0107757D03*
D54*
X0150582Y0107757D03*
X0184182Y0114357D03*
X0143382Y0166257D03*
X0143082Y0166557D03*
X0143082Y0166857D03*
X0142782Y0167157D03*
X0142482Y0167457D03*
X0142182Y0167757D03*
X0141882Y0168057D03*
X0152382Y0175257D03*
X0162882Y0175257D03*
X0175182Y0174357D03*
D55*
X0125382Y0134457D03*
X0138282Y0108657D03*
D56*
X0149082Y0112557D03*
X0176982Y0137457D03*
X0163182Y0143157D03*
X0157482Y0138057D03*
D57*
X0148332Y0113457D03*
D58*
X0125532Y0134157D03*
X0192432Y0146457D03*
X0194232Y0136557D03*
D59*
X0193632Y0136257D03*
D60*
X0176682Y0136857D03*
X0149382Y0141657D03*
D61*
X0148482Y0157857D03*
X0148182Y0158457D03*
X0148182Y0158757D03*
X0147882Y0159057D03*
X0147582Y0159657D03*
X0147282Y0159957D03*
X0140982Y0171057D03*
X0152082Y0173157D03*
X0164682Y0168657D03*
X0164682Y0168357D03*
X0174882Y0166857D03*
X0174882Y0166557D03*
X0174882Y0165657D03*
X0173982Y0174957D03*
X0173982Y0175257D03*
X0176682Y0151257D03*
X0197082Y0141957D03*
D62*
X0177882Y0150657D03*
X0157182Y0150357D03*
X0155082Y0142257D03*
X0137682Y0147057D03*
D63*
X0159582Y0142557D03*
D64*
X0159132Y0142857D03*
D65*
X0157782Y0150057D03*
X0192882Y0146157D03*
D66*
X0283658Y0119562D03*
X0312158Y0130262D03*
X0353458Y0129162D03*
X0353658Y0086862D03*
X0311958Y0085463D03*
X0311958Y0085363D03*
X0279558Y0070063D03*
D67*
X0312008Y0085563D03*
X0353608Y0086962D03*
X0353408Y0129062D03*
X0312208Y0130162D03*
D68*
X0312258Y0130062D03*
X0283558Y0119662D03*
X0241458Y0105962D03*
X0312058Y0085663D03*
X0353558Y0087062D03*
X0353358Y0128962D03*
D69*
X0353258Y0128762D03*
X0312358Y0129862D03*
X0353458Y0087262D03*
X0312158Y0085863D03*
X0312158Y0085763D03*
X0279458Y0070163D03*
D70*
X0312208Y0085963D03*
X0341308Y0095162D03*
X0353408Y0087362D03*
X0353208Y0128662D03*
X0312408Y0129762D03*
X0283508Y0119762D03*
D71*
X0268558Y0107962D03*
X0255758Y0103962D03*
X0233158Y0105062D03*
X0312258Y0086063D03*
X0353358Y0087462D03*
X0345858Y0123262D03*
X0345858Y0127162D03*
X0353158Y0128562D03*
D72*
X0353108Y0128462D03*
X0312408Y0129662D03*
X0283408Y0119862D03*
X0241408Y0105862D03*
X0223108Y0104062D03*
X0279308Y0070263D03*
X0312308Y0086163D03*
X0353308Y0087562D03*
D73*
X0353258Y0087662D03*
X0312358Y0086262D03*
X0261958Y0103862D03*
X0312458Y0129562D03*
X0353058Y0128362D03*
D74*
X0353008Y0128262D03*
X0312508Y0129462D03*
X0257908Y0120062D03*
X0241408Y0105762D03*
X0312408Y0086362D03*
X0341308Y0091562D03*
X0353208Y0087762D03*
D75*
X0353158Y0087862D03*
X0312458Y0086462D03*
X0281158Y0083963D03*
X0281158Y0083863D03*
X0281058Y0084863D03*
X0280958Y0085563D03*
X0280858Y0086163D03*
X0280658Y0087062D03*
X0280558Y0087462D03*
X0280358Y0088162D03*
X0281158Y0079963D03*
X0281158Y0079863D03*
X0281158Y0079763D03*
X0281058Y0078863D03*
X0280958Y0078063D03*
X0280858Y0077363D03*
X0280758Y0076763D03*
X0280658Y0076163D03*
X0280558Y0075663D03*
X0280358Y0074763D03*
X0280258Y0074363D03*
X0280058Y0073563D03*
X0279958Y0073163D03*
X0279858Y0072763D03*
X0279558Y0071763D03*
X0260858Y0085863D03*
X0260758Y0086163D03*
X0260658Y0086562D03*
X0260458Y0087362D03*
X0260258Y0088362D03*
X0260158Y0088962D03*
X0260058Y0089762D03*
X0260058Y0089862D03*
X0259958Y0091062D03*
X0259958Y0091162D03*
X0259958Y0091262D03*
X0259958Y0091362D03*
X0259958Y0093262D03*
X0259958Y0093362D03*
X0259958Y0093462D03*
X0260058Y0094762D03*
X0260158Y0095662D03*
X0260158Y0095762D03*
X0260258Y0096462D03*
X0260358Y0097062D03*
X0260358Y0097162D03*
X0260458Y0097662D03*
X0260558Y0098162D03*
X0260758Y0099162D03*
X0260858Y0099562D03*
X0261158Y0100762D03*
X0261258Y0101162D03*
X0261358Y0101562D03*
X0261458Y0101862D03*
X0261658Y0102562D03*
X0259458Y0107662D03*
X0259458Y0108762D03*
X0259358Y0109162D03*
X0252158Y0108862D03*
X0252158Y0107662D03*
X0252258Y0107262D03*
X0250258Y0116162D03*
X0250158Y0116462D03*
X0233158Y0104962D03*
X0268258Y0128662D03*
X0268358Y0128962D03*
X0268358Y0129062D03*
X0268458Y0129262D03*
X0268458Y0129362D03*
X0268458Y0129462D03*
X0268558Y0129762D03*
X0268558Y0129862D03*
X0268558Y0129962D03*
X0268558Y0130062D03*
X0268658Y0130262D03*
X0268658Y0130362D03*
X0268658Y0130462D03*
X0268658Y0130562D03*
X0268658Y0130662D03*
X0268658Y0130762D03*
X0268658Y0130862D03*
X0268658Y0130962D03*
X0268658Y0131062D03*
X0268658Y0131163D03*
X0268658Y0131263D03*
X0268758Y0131363D03*
X0268758Y0131463D03*
X0268758Y0131563D03*
X0268658Y0131663D03*
X0268658Y0131763D03*
X0268658Y0131863D03*
X0268658Y0131963D03*
X0268658Y0132063D03*
X0268658Y0132163D03*
X0268658Y0132263D03*
X0268658Y0132363D03*
X0268658Y0132463D03*
X0268658Y0132563D03*
X0268658Y0132663D03*
X0268658Y0132763D03*
X0268658Y0132863D03*
X0268558Y0133063D03*
X0268558Y0133163D03*
X0268558Y0133263D03*
X0268558Y0133363D03*
X0268558Y0133463D03*
X0268458Y0133663D03*
X0268458Y0133763D03*
X0268458Y0133863D03*
X0268358Y0134063D03*
X0268358Y0134163D03*
X0268258Y0134463D03*
X0268158Y0134763D03*
X0268058Y0135063D03*
X0283358Y0119962D03*
X0312558Y0129362D03*
X0352958Y0128162D03*
X0218258Y0131463D03*
D76*
X0218308Y0131163D03*
X0218708Y0129962D03*
X0218808Y0129662D03*
X0218908Y0129362D03*
X0219008Y0129062D03*
X0219208Y0128562D03*
X0219408Y0128062D03*
X0219608Y0127562D03*
X0219908Y0126862D03*
X0220508Y0125562D03*
X0220608Y0125362D03*
X0220708Y0125162D03*
X0247908Y0121962D03*
X0248008Y0121762D03*
X0248108Y0121562D03*
X0248208Y0121362D03*
X0248308Y0121162D03*
X0248808Y0120062D03*
X0248908Y0119862D03*
X0249108Y0119362D03*
X0249208Y0119162D03*
X0249308Y0118862D03*
X0249508Y0118362D03*
X0249708Y0117862D03*
X0249808Y0117562D03*
X0250508Y0115462D03*
X0250508Y0115162D03*
X0252508Y0109862D03*
X0252308Y0109462D03*
X0241408Y0105662D03*
X0268708Y0108062D03*
X0279708Y0090062D03*
X0279908Y0089562D03*
X0280108Y0089062D03*
X0280208Y0088762D03*
X0280308Y0088462D03*
X0262008Y0082963D03*
X0261908Y0083163D03*
X0261808Y0083363D03*
X0261408Y0084263D03*
X0261108Y0084963D03*
X0261008Y0085263D03*
X0260908Y0085563D03*
X0279508Y0071563D03*
X0279108Y0070363D03*
X0312508Y0086562D03*
X0353108Y0087962D03*
X0347508Y0117762D03*
X0347508Y0117862D03*
X0347508Y0117962D03*
X0347508Y0118062D03*
X0347508Y0118162D03*
X0347508Y0118262D03*
X0347508Y0118362D03*
X0347508Y0118462D03*
X0347508Y0118562D03*
X0347508Y0118662D03*
X0347508Y0118762D03*
X0347508Y0118862D03*
X0347508Y0118962D03*
X0347508Y0119062D03*
X0347508Y0119162D03*
X0347508Y0119262D03*
X0347508Y0119362D03*
X0347508Y0119462D03*
X0347508Y0119562D03*
X0347508Y0119662D03*
X0347508Y0119762D03*
X0347508Y0119862D03*
X0347508Y0119962D03*
X0347508Y0120062D03*
X0352908Y0128062D03*
X0312608Y0129262D03*
X0268608Y0130162D03*
X0268508Y0129662D03*
X0268508Y0129562D03*
X0268408Y0129162D03*
X0268308Y0128862D03*
X0268308Y0128762D03*
X0268208Y0128562D03*
X0268208Y0128462D03*
X0268108Y0128362D03*
X0268108Y0128262D03*
X0268008Y0128162D03*
X0268008Y0128062D03*
X0267908Y0127862D03*
X0267808Y0127662D03*
X0267708Y0127462D03*
X0268608Y0132963D03*
X0268508Y0133563D03*
X0268408Y0133963D03*
X0268308Y0134263D03*
X0268308Y0134363D03*
X0268208Y0134563D03*
X0268208Y0134663D03*
X0268108Y0134863D03*
X0268108Y0134963D03*
X0268008Y0135163D03*
X0268008Y0135263D03*
X0267908Y0135363D03*
D77*
X0267958Y0127962D03*
X0267858Y0127762D03*
X0267758Y0127562D03*
X0267658Y0127362D03*
X0267558Y0127262D03*
X0267558Y0127162D03*
X0267458Y0127062D03*
X0247458Y0122862D03*
X0247358Y0123062D03*
X0247058Y0123562D03*
X0246758Y0124062D03*
X0246558Y0124362D03*
X0246358Y0124662D03*
X0246158Y0124962D03*
X0245958Y0125262D03*
X0259058Y0109962D03*
X0258958Y0106362D03*
X0252658Y0106362D03*
X0278658Y0092162D03*
X0278958Y0091662D03*
X0263058Y0081163D03*
X0262858Y0081463D03*
X0262658Y0081763D03*
X0262358Y0082263D03*
X0312558Y0086662D03*
X0341358Y0088862D03*
X0353058Y0088062D03*
X0345858Y0127062D03*
X0352858Y0127962D03*
X0312658Y0129162D03*
X0222758Y0121662D03*
X0222358Y0122262D03*
X0222158Y0122562D03*
X0221958Y0122862D03*
X0221658Y0123362D03*
X0221358Y0123862D03*
D78*
X0223008Y0121262D03*
X0245008Y0126562D03*
X0245408Y0126062D03*
X0245708Y0125662D03*
X0255808Y0112462D03*
X0252908Y0110462D03*
X0252808Y0110362D03*
X0262108Y0103762D03*
X0268808Y0108162D03*
X0277108Y0094362D03*
X0277208Y0094262D03*
X0277608Y0093762D03*
X0277908Y0093362D03*
X0263308Y0080763D03*
X0263608Y0080363D03*
X0264008Y0079863D03*
X0241408Y0105562D03*
X0223108Y0103962D03*
X0267408Y0126962D03*
X0283208Y0120062D03*
X0312708Y0129062D03*
X0352808Y0127862D03*
X0341308Y0095062D03*
X0353008Y0088162D03*
X0312608Y0086762D03*
D79*
X0312658Y0086862D03*
X0341358Y0091662D03*
X0352958Y0088262D03*
X0352758Y0127762D03*
X0312758Y0128962D03*
X0278858Y0121962D03*
X0257658Y0120162D03*
X0244558Y0127162D03*
X0244458Y0127262D03*
X0244358Y0127362D03*
X0224158Y0119762D03*
X0224058Y0119862D03*
X0233158Y0104862D03*
X0253158Y0105762D03*
X0252958Y0110562D03*
X0258558Y0105862D03*
X0276158Y0095462D03*
X0276258Y0095362D03*
X0276358Y0095262D03*
X0276458Y0095162D03*
X0264658Y0079063D03*
X0264758Y0078963D03*
X0264858Y0078863D03*
X0264958Y0078763D03*
X0279358Y0071663D03*
D80*
X0279008Y0070463D03*
X0265408Y0078263D03*
X0265308Y0078363D03*
X0265208Y0078463D03*
X0265108Y0078563D03*
X0265008Y0078663D03*
X0276108Y0095562D03*
X0276008Y0095662D03*
X0275908Y0095762D03*
X0275808Y0095862D03*
X0253208Y0110762D03*
X0255808Y0111162D03*
X0250408Y0115062D03*
X0241408Y0105462D03*
X0242908Y0128862D03*
X0312808Y0128862D03*
X0322008Y0125262D03*
X0322208Y0123162D03*
X0322208Y0123062D03*
X0322208Y0122962D03*
X0322208Y0122862D03*
X0322208Y0122762D03*
X0322208Y0122662D03*
X0322208Y0122562D03*
X0322208Y0122462D03*
X0322208Y0122362D03*
X0322308Y0121962D03*
X0322308Y0121862D03*
X0322308Y0121762D03*
X0322308Y0121662D03*
X0322308Y0121562D03*
X0322308Y0121462D03*
X0322308Y0121362D03*
X0322808Y0116562D03*
X0322808Y0116462D03*
X0322808Y0116362D03*
X0322808Y0116262D03*
X0322908Y0115962D03*
X0322908Y0115862D03*
X0322908Y0115762D03*
X0322908Y0115662D03*
X0322908Y0115562D03*
X0322908Y0115462D03*
X0322908Y0115362D03*
X0322908Y0115262D03*
X0323008Y0114962D03*
X0323008Y0114862D03*
X0323008Y0114762D03*
X0323008Y0114662D03*
X0323008Y0114562D03*
X0323008Y0114462D03*
X0323008Y0114362D03*
X0323008Y0114262D03*
X0323008Y0114162D03*
X0323008Y0114062D03*
X0323108Y0113762D03*
X0323108Y0113662D03*
X0323108Y0113562D03*
X0323108Y0113462D03*
X0323108Y0113362D03*
X0323108Y0113262D03*
X0323108Y0113162D03*
X0323108Y0113062D03*
X0323108Y0112962D03*
X0323208Y0112762D03*
X0323208Y0112662D03*
X0323208Y0112562D03*
X0323208Y0112462D03*
X0323208Y0112362D03*
X0323208Y0112262D03*
X0323208Y0112162D03*
X0323208Y0112062D03*
X0323308Y0111962D03*
X0323308Y0111862D03*
X0323308Y0111762D03*
X0323308Y0111662D03*
X0323308Y0111562D03*
X0323308Y0111462D03*
X0323308Y0111362D03*
X0323308Y0111262D03*
X0323308Y0111162D03*
X0323308Y0111062D03*
X0323408Y0110762D03*
X0323408Y0110662D03*
X0323408Y0110562D03*
X0323408Y0110462D03*
X0323408Y0110362D03*
X0323408Y0110262D03*
X0323408Y0110162D03*
X0323408Y0110062D03*
X0323408Y0109962D03*
X0323508Y0109662D03*
X0323508Y0109562D03*
X0323508Y0109462D03*
X0323508Y0109362D03*
X0323508Y0109262D03*
X0323508Y0109162D03*
X0323508Y0109062D03*
X0323508Y0108962D03*
X0323508Y0108862D03*
X0323508Y0108762D03*
X0323608Y0108562D03*
X0323608Y0108462D03*
X0323608Y0108362D03*
X0323608Y0108262D03*
X0323608Y0108162D03*
X0323608Y0108062D03*
X0323608Y0107962D03*
X0323708Y0107762D03*
X0323708Y0107662D03*
X0323708Y0107562D03*
X0323708Y0107462D03*
X0323708Y0107362D03*
X0323708Y0107262D03*
X0323708Y0107162D03*
X0323708Y0107062D03*
X0323708Y0106962D03*
X0323808Y0106662D03*
X0323808Y0106562D03*
X0323808Y0106462D03*
X0323808Y0106362D03*
X0323808Y0106262D03*
X0323808Y0106162D03*
X0323808Y0106062D03*
X0323808Y0105962D03*
X0323808Y0105862D03*
X0323808Y0105762D03*
X0323908Y0105462D03*
X0323908Y0105362D03*
X0323908Y0105262D03*
X0323908Y0105162D03*
X0323908Y0105062D03*
X0323908Y0104962D03*
X0323908Y0104862D03*
X0323908Y0104762D03*
X0323908Y0104662D03*
X0323908Y0104562D03*
X0324008Y0104462D03*
X0324008Y0104362D03*
X0324008Y0104262D03*
X0324008Y0104162D03*
X0324008Y0104062D03*
X0324008Y0103962D03*
X0324008Y0103862D03*
X0324008Y0103762D03*
X0324008Y0103662D03*
X0324108Y0103462D03*
X0324108Y0103362D03*
X0324108Y0103262D03*
X0324108Y0103162D03*
X0324108Y0103062D03*
X0324108Y0102962D03*
X0324108Y0102862D03*
X0324108Y0102762D03*
X0324208Y0102562D03*
X0324208Y0102462D03*
X0324208Y0102362D03*
X0324208Y0102262D03*
X0324208Y0102162D03*
X0324208Y0102062D03*
X0324208Y0101962D03*
X0324208Y0101862D03*
X0324208Y0101762D03*
X0324208Y0101662D03*
X0324308Y0101362D03*
X0324308Y0101262D03*
X0324308Y0101162D03*
X0324308Y0101062D03*
X0324308Y0100962D03*
X0324308Y0100862D03*
X0324708Y0097062D03*
X0324708Y0096962D03*
X0324708Y0096862D03*
X0324708Y0096762D03*
X0324708Y0096662D03*
X0324708Y0096562D03*
X0324708Y0096462D03*
X0324708Y0096362D03*
X0324708Y0096262D03*
X0324808Y0096162D03*
X0324808Y0096062D03*
X0324808Y0095962D03*
X0324808Y0095862D03*
X0324808Y0095762D03*
X0324808Y0095662D03*
X0324808Y0095562D03*
X0324808Y0095462D03*
X0324808Y0095362D03*
X0324808Y0095262D03*
X0324908Y0094962D03*
X0324908Y0094862D03*
X0324908Y0094762D03*
X0324908Y0094662D03*
X0324908Y0094562D03*
X0324908Y0094462D03*
X0324908Y0094362D03*
X0325008Y0094162D03*
X0325008Y0094062D03*
X0325008Y0093962D03*
X0325008Y0093862D03*
X0325008Y0093762D03*
X0325008Y0093662D03*
X0325008Y0093562D03*
X0325008Y0093462D03*
X0325008Y0093362D03*
X0325108Y0093162D03*
X0325108Y0093062D03*
X0325108Y0092962D03*
X0325108Y0092862D03*
X0325108Y0092762D03*
X0325108Y0092662D03*
X0312708Y0086962D03*
X0342408Y0100962D03*
X0342408Y0101062D03*
X0342408Y0101162D03*
X0342508Y0101462D03*
X0342508Y0101562D03*
X0342508Y0101662D03*
X0342508Y0101762D03*
X0342508Y0101862D03*
X0342508Y0101962D03*
X0342608Y0102462D03*
X0342608Y0102562D03*
X0342608Y0102662D03*
X0342608Y0102762D03*
X0342608Y0102862D03*
X0342608Y0102962D03*
X0342608Y0103062D03*
X0342608Y0103162D03*
X0342608Y0103262D03*
X0342708Y0103862D03*
X0342708Y0103962D03*
X0342708Y0104062D03*
X0342708Y0104162D03*
X0342708Y0104262D03*
X0342708Y0104362D03*
X0342708Y0104462D03*
X0342708Y0104562D03*
X0342708Y0104662D03*
X0342808Y0105262D03*
X0342808Y0105362D03*
X0342808Y0105462D03*
X0342808Y0105562D03*
X0342808Y0105662D03*
X0342808Y0105762D03*
X0342808Y0105862D03*
X0342808Y0105962D03*
X0342908Y0106062D03*
X0342908Y0106162D03*
X0342908Y0106262D03*
X0342908Y0106362D03*
X0342908Y0106462D03*
X0342908Y0106562D03*
X0342908Y0106662D03*
X0342908Y0106762D03*
X0342908Y0106862D03*
X0343008Y0107062D03*
X0343008Y0107162D03*
X0343008Y0107262D03*
X0343008Y0107362D03*
X0343008Y0107462D03*
X0343008Y0107562D03*
X0343008Y0107662D03*
X0343008Y0107762D03*
X0343008Y0107862D03*
X0343008Y0107962D03*
X0343008Y0108062D03*
X0343108Y0108262D03*
X0343108Y0108362D03*
X0343108Y0108462D03*
X0343108Y0108562D03*
X0343108Y0108662D03*
X0343108Y0108762D03*
X0343108Y0108862D03*
X0343108Y0108962D03*
X0343108Y0109062D03*
X0343108Y0109162D03*
X0343108Y0109262D03*
X0343108Y0109362D03*
X0343208Y0109562D03*
X0343208Y0109662D03*
X0343208Y0109762D03*
X0343208Y0109862D03*
X0343208Y0109962D03*
X0343208Y0110062D03*
X0343208Y0110162D03*
X0343208Y0110262D03*
X0343208Y0110362D03*
X0343208Y0110462D03*
X0343208Y0110562D03*
X0343208Y0110662D03*
X0343308Y0110862D03*
X0343308Y0110962D03*
X0343308Y0111062D03*
X0343308Y0111162D03*
X0343308Y0111262D03*
X0343308Y0111362D03*
X0343308Y0111462D03*
X0343308Y0111562D03*
X0343308Y0111662D03*
X0343408Y0111762D03*
X0343408Y0111862D03*
X0343408Y0111962D03*
X0343408Y0112062D03*
X0343408Y0112162D03*
X0343408Y0112262D03*
X0343408Y0112362D03*
X0343408Y0112462D03*
X0343408Y0112562D03*
X0343408Y0112662D03*
X0343408Y0112762D03*
X0343508Y0112962D03*
X0343508Y0113062D03*
X0343508Y0113162D03*
X0343508Y0113262D03*
X0343508Y0113362D03*
X0343508Y0113462D03*
X0343508Y0113562D03*
X0343508Y0113662D03*
X0343508Y0113762D03*
X0343508Y0113862D03*
X0343508Y0113962D03*
X0343508Y0114062D03*
X0343608Y0114262D03*
X0343608Y0114362D03*
X0343608Y0114462D03*
X0343608Y0114562D03*
X0343608Y0114662D03*
X0343608Y0114762D03*
X0343608Y0114862D03*
X0343608Y0114962D03*
X0343608Y0115062D03*
X0343608Y0115162D03*
X0343608Y0115262D03*
X0343608Y0115362D03*
X0343708Y0115562D03*
X0343708Y0115662D03*
X0343708Y0115762D03*
X0343708Y0115862D03*
X0343708Y0115962D03*
X0344208Y0121762D03*
X0344208Y0121862D03*
X0344208Y0121962D03*
X0344208Y0122062D03*
X0344208Y0122162D03*
X0344208Y0122262D03*
X0344308Y0122462D03*
X0344308Y0122562D03*
X0344308Y0122662D03*
X0344308Y0122762D03*
X0344308Y0122862D03*
X0344308Y0122962D03*
X0344308Y0123062D03*
X0344308Y0123162D03*
X0352708Y0127662D03*
X0352908Y0088362D03*
D81*
X0352858Y0088462D03*
X0352758Y0088562D03*
X0342458Y0101262D03*
X0342458Y0101362D03*
X0342558Y0102062D03*
X0342558Y0102162D03*
X0342558Y0102262D03*
X0342558Y0102362D03*
X0342658Y0103362D03*
X0342658Y0103462D03*
X0342658Y0103562D03*
X0342658Y0103662D03*
X0342658Y0103762D03*
X0342758Y0104762D03*
X0342758Y0104862D03*
X0342758Y0104962D03*
X0342758Y0105062D03*
X0342758Y0105162D03*
X0342958Y0106962D03*
X0343058Y0108162D03*
X0343158Y0109462D03*
X0343258Y0110762D03*
X0343458Y0112862D03*
X0343558Y0114162D03*
X0343658Y0115462D03*
X0344258Y0122362D03*
X0344358Y0123262D03*
X0352658Y0127462D03*
X0352658Y0127562D03*
X0322058Y0125362D03*
X0321958Y0125162D03*
X0322158Y0123262D03*
X0322258Y0122262D03*
X0322258Y0122162D03*
X0322258Y0122062D03*
X0322358Y0121262D03*
X0322358Y0121162D03*
X0322858Y0116162D03*
X0322858Y0116062D03*
X0322958Y0115162D03*
X0322958Y0115062D03*
X0323058Y0113962D03*
X0323058Y0113862D03*
X0323158Y0112862D03*
X0323358Y0110962D03*
X0323358Y0110862D03*
X0323458Y0109862D03*
X0323458Y0109762D03*
X0323558Y0108662D03*
X0323658Y0107862D03*
X0323758Y0106862D03*
X0323758Y0106762D03*
X0323858Y0105662D03*
X0323858Y0105562D03*
X0324058Y0103562D03*
X0324158Y0102662D03*
X0324258Y0101562D03*
X0324258Y0101462D03*
X0324858Y0095162D03*
X0324858Y0095062D03*
X0324958Y0094262D03*
X0325058Y0093262D03*
X0312758Y0087062D03*
X0274958Y0096662D03*
X0262258Y0103662D03*
X0261858Y0102462D03*
X0268958Y0108262D03*
X0283158Y0120162D03*
X0312858Y0128762D03*
X0242258Y0129462D03*
X0226558Y0117362D03*
X0225958Y0117862D03*
X0233158Y0104762D03*
X0266258Y0077463D03*
D82*
X0266708Y0077063D03*
X0266808Y0076963D03*
X0267208Y0076663D03*
X0274408Y0097162D03*
X0274008Y0097462D03*
X0258208Y0110962D03*
X0253508Y0105462D03*
X0241408Y0105362D03*
X0223108Y0103862D03*
X0226908Y0117062D03*
X0241508Y0130062D03*
X0241908Y0129762D03*
X0229108Y0134663D03*
X0218408Y0131863D03*
X0312908Y0128662D03*
X0313008Y0128562D03*
X0313108Y0128462D03*
X0313208Y0128362D03*
X0313308Y0128262D03*
X0313408Y0128162D03*
X0313508Y0128062D03*
X0313608Y0127962D03*
X0313708Y0127862D03*
X0322108Y0125462D03*
X0344208Y0121662D03*
X0345908Y0126962D03*
X0352608Y0127362D03*
X0339308Y0102062D03*
X0339708Y0101662D03*
X0340108Y0101262D03*
X0342208Y0099162D03*
X0342308Y0099062D03*
X0341308Y0094962D03*
X0346708Y0094662D03*
X0346808Y0094562D03*
X0346908Y0094462D03*
X0347008Y0094362D03*
X0347108Y0094262D03*
X0347208Y0094162D03*
X0347308Y0094062D03*
X0347408Y0093962D03*
X0347508Y0093862D03*
X0347608Y0093762D03*
X0347708Y0093662D03*
X0347808Y0093562D03*
X0347908Y0093462D03*
X0348008Y0093362D03*
X0348108Y0093262D03*
X0348208Y0093162D03*
X0348308Y0093062D03*
X0348408Y0092962D03*
X0348508Y0092862D03*
X0348608Y0092762D03*
X0348708Y0092662D03*
X0348808Y0092562D03*
X0348908Y0092462D03*
X0349008Y0092362D03*
X0349108Y0092262D03*
X0349208Y0092162D03*
X0349308Y0092062D03*
X0349408Y0091962D03*
X0349508Y0091862D03*
X0349608Y0091762D03*
X0349708Y0091662D03*
X0349808Y0091562D03*
X0349908Y0091462D03*
X0350008Y0091362D03*
X0350108Y0091262D03*
X0350208Y0091162D03*
X0350308Y0091062D03*
X0350408Y0090962D03*
X0350508Y0090862D03*
X0350608Y0090762D03*
X0350708Y0090662D03*
X0350808Y0090562D03*
X0350908Y0090462D03*
X0351008Y0090362D03*
X0351108Y0090262D03*
X0351208Y0090162D03*
X0351308Y0090062D03*
X0351408Y0089962D03*
X0351508Y0089862D03*
X0351608Y0089762D03*
X0351708Y0089662D03*
X0351808Y0089562D03*
X0351908Y0089462D03*
X0352008Y0089362D03*
X0352108Y0089262D03*
X0352208Y0089162D03*
X0352308Y0089062D03*
X0352408Y0088962D03*
X0352508Y0088862D03*
X0352608Y0088762D03*
X0352708Y0088662D03*
X0312808Y0087162D03*
D83*
X0353508Y0087162D03*
X0353308Y0128862D03*
X0312308Y0129962D03*
X0268408Y0107862D03*
X0261908Y0103962D03*
X0258108Y0119962D03*
D84*
X0269058Y0108362D03*
X0255758Y0104062D03*
X0273258Y0098062D03*
X0273658Y0097762D03*
X0267858Y0076163D03*
X0278858Y0070563D03*
X0312858Y0087262D03*
X0312958Y0087362D03*
X0313058Y0087462D03*
X0313158Y0087562D03*
X0313258Y0087662D03*
X0313358Y0087762D03*
X0313458Y0087862D03*
X0313558Y0087962D03*
X0313658Y0088062D03*
X0313758Y0088162D03*
X0313858Y0088262D03*
X0313958Y0088362D03*
X0314058Y0088462D03*
X0314158Y0088562D03*
X0314258Y0088662D03*
X0314358Y0088762D03*
X0314458Y0088862D03*
X0314558Y0088962D03*
X0314658Y0089062D03*
X0314758Y0089162D03*
X0314858Y0089262D03*
X0314958Y0089362D03*
X0315058Y0089462D03*
X0315158Y0089562D03*
X0315258Y0089662D03*
X0315358Y0089762D03*
X0315458Y0089862D03*
X0315558Y0089962D03*
X0315658Y0090062D03*
X0315758Y0090162D03*
X0315858Y0090262D03*
X0315958Y0090362D03*
X0316058Y0090462D03*
X0316158Y0090562D03*
X0316258Y0090662D03*
X0316358Y0090762D03*
X0316458Y0090862D03*
X0316558Y0090962D03*
X0316658Y0091062D03*
X0316758Y0091162D03*
X0316858Y0091262D03*
X0316958Y0091362D03*
X0317058Y0091462D03*
X0317158Y0091562D03*
X0317258Y0091662D03*
X0317358Y0091762D03*
X0317458Y0091862D03*
X0317558Y0091962D03*
X0317658Y0092062D03*
X0317758Y0092162D03*
X0317858Y0092262D03*
X0317958Y0092362D03*
X0318058Y0092462D03*
X0318158Y0092562D03*
X0318258Y0092662D03*
X0318358Y0092762D03*
X0318458Y0092862D03*
X0318558Y0092962D03*
X0318658Y0093062D03*
X0318758Y0093162D03*
X0318858Y0093262D03*
X0318958Y0093362D03*
X0319058Y0093462D03*
X0319158Y0093562D03*
X0319258Y0093662D03*
X0319558Y0093962D03*
X0319658Y0094062D03*
X0319958Y0094362D03*
X0337858Y0093662D03*
X0337858Y0093562D03*
X0337858Y0093462D03*
X0337858Y0093362D03*
X0337858Y0093262D03*
X0337858Y0093162D03*
X0337858Y0093062D03*
X0337958Y0093762D03*
X0337958Y0093862D03*
X0337958Y0093962D03*
X0337958Y0094062D03*
X0342358Y0098962D03*
X0342158Y0099262D03*
X0340458Y0100962D03*
X0340358Y0101062D03*
X0340258Y0101162D03*
X0340058Y0101362D03*
X0339958Y0101462D03*
X0339858Y0101562D03*
X0339658Y0101762D03*
X0339558Y0101862D03*
X0339458Y0101962D03*
X0339258Y0102162D03*
X0339158Y0102262D03*
X0339058Y0102362D03*
X0338958Y0102462D03*
X0338858Y0102562D03*
X0338758Y0102662D03*
X0338658Y0102762D03*
X0338558Y0102862D03*
X0338458Y0102962D03*
X0338358Y0103062D03*
X0338258Y0103162D03*
X0338158Y0103262D03*
X0338058Y0103362D03*
X0337958Y0103462D03*
X0337858Y0103562D03*
X0337758Y0103662D03*
X0337658Y0103762D03*
X0337558Y0103862D03*
X0337458Y0103962D03*
X0337358Y0104062D03*
X0337258Y0104162D03*
X0337158Y0104262D03*
X0337058Y0104362D03*
X0336958Y0104462D03*
X0336858Y0104562D03*
X0336758Y0104662D03*
X0336658Y0104762D03*
X0336558Y0104862D03*
X0336458Y0104962D03*
X0336358Y0105062D03*
X0336258Y0105162D03*
X0336158Y0105262D03*
X0336058Y0105362D03*
X0335958Y0105462D03*
X0335858Y0105562D03*
X0335758Y0105662D03*
X0335658Y0105762D03*
X0335558Y0105862D03*
X0335458Y0105962D03*
X0335358Y0106062D03*
X0335258Y0106162D03*
X0335158Y0106262D03*
X0335058Y0106362D03*
X0334958Y0106462D03*
X0334858Y0106562D03*
X0334758Y0106662D03*
X0334658Y0106762D03*
X0332258Y0109162D03*
X0332158Y0109262D03*
X0332058Y0109362D03*
X0331958Y0109462D03*
X0331858Y0109562D03*
X0331758Y0109662D03*
X0331658Y0109762D03*
X0331558Y0109862D03*
X0331458Y0109962D03*
X0331358Y0110062D03*
X0331258Y0110162D03*
X0331158Y0110262D03*
X0331058Y0110362D03*
X0330958Y0110462D03*
X0330858Y0110562D03*
X0330758Y0110662D03*
X0330658Y0110762D03*
X0330558Y0110862D03*
X0330458Y0110962D03*
X0330358Y0111062D03*
X0330258Y0111162D03*
X0330158Y0111262D03*
X0330058Y0111362D03*
X0329958Y0111462D03*
X0329858Y0111562D03*
X0329758Y0111662D03*
X0329658Y0111762D03*
X0329558Y0111862D03*
X0329458Y0111962D03*
X0329358Y0112062D03*
X0329258Y0112162D03*
X0329158Y0112262D03*
X0329058Y0112362D03*
X0328958Y0112462D03*
X0328858Y0112562D03*
X0328758Y0112662D03*
X0328658Y0112762D03*
X0328558Y0112862D03*
X0328458Y0112962D03*
X0328358Y0113062D03*
X0328258Y0113162D03*
X0328158Y0113262D03*
X0328058Y0113362D03*
X0327958Y0113462D03*
X0327858Y0113562D03*
X0327758Y0113662D03*
X0327658Y0113762D03*
X0327558Y0113862D03*
X0327458Y0113962D03*
X0327358Y0114062D03*
X0327258Y0114162D03*
X0327158Y0114262D03*
X0327058Y0114362D03*
X0326958Y0114462D03*
X0326858Y0114562D03*
X0326758Y0114662D03*
X0326658Y0114762D03*
X0326558Y0114862D03*
X0326458Y0114962D03*
X0326358Y0115062D03*
X0326258Y0115162D03*
X0326158Y0115262D03*
X0326058Y0115362D03*
X0325958Y0115462D03*
X0325858Y0115562D03*
X0325658Y0115762D03*
X0325558Y0115862D03*
X0325458Y0115962D03*
X0325358Y0116062D03*
X0325158Y0116262D03*
X0325058Y0116362D03*
X0316058Y0125462D03*
X0315958Y0125562D03*
X0315858Y0125662D03*
X0315758Y0125762D03*
X0315658Y0125862D03*
X0315558Y0125962D03*
X0315458Y0126062D03*
X0315358Y0126162D03*
X0315258Y0126262D03*
X0315158Y0126362D03*
X0315058Y0126462D03*
X0314958Y0126562D03*
X0314858Y0126662D03*
X0314758Y0126762D03*
X0314658Y0126862D03*
X0314558Y0126962D03*
X0314458Y0127062D03*
X0314358Y0127162D03*
X0314258Y0127262D03*
X0314158Y0127362D03*
X0314058Y0127462D03*
X0313958Y0127562D03*
X0313858Y0127662D03*
X0313758Y0127762D03*
X0322158Y0125562D03*
X0344758Y0094062D03*
X0344758Y0093962D03*
X0344758Y0093862D03*
X0344758Y0093762D03*
X0344858Y0093662D03*
X0344858Y0093562D03*
X0344858Y0093462D03*
X0344858Y0093362D03*
X0344858Y0093262D03*
X0344858Y0093162D03*
X0344858Y0093062D03*
X0344858Y0092962D03*
X0344758Y0092862D03*
X0344758Y0092762D03*
X0344758Y0092662D03*
X0239558Y0113462D03*
D85*
X0250058Y0114862D03*
X0255858Y0112362D03*
X0263358Y0101862D03*
X0242658Y0099862D03*
X0242658Y0099762D03*
X0242558Y0099962D03*
X0242558Y0100062D03*
X0242458Y0100162D03*
X0242458Y0100262D03*
X0242358Y0100362D03*
X0242258Y0100562D03*
X0242258Y0100662D03*
X0242158Y0100862D03*
X0270258Y0074563D03*
X0326358Y0088762D03*
X0326358Y0088862D03*
X0326358Y0088962D03*
X0326358Y0089062D03*
X0326358Y0089162D03*
X0326358Y0089262D03*
X0326358Y0089362D03*
X0326358Y0089462D03*
X0326358Y0089562D03*
X0326358Y0089662D03*
X0326358Y0089762D03*
X0326358Y0089862D03*
X0326358Y0089962D03*
X0326358Y0090062D03*
X0326358Y0090162D03*
X0326358Y0090262D03*
X0326358Y0090362D03*
X0326358Y0090462D03*
X0326358Y0090562D03*
X0326358Y0090662D03*
X0326358Y0090762D03*
X0326358Y0090862D03*
X0324758Y0099362D03*
X0341958Y0099662D03*
X0342558Y0098562D03*
X0341358Y0094762D03*
X0344358Y0091662D03*
X0344258Y0091562D03*
X0339458Y0114062D03*
X0343558Y0118062D03*
X0343758Y0118362D03*
X0352158Y0126762D03*
X0352258Y0126862D03*
X0322358Y0125862D03*
X0322158Y0119462D03*
X0322958Y0118362D03*
X0239658Y0131363D03*
D86*
X0218558Y0131963D03*
X0228558Y0115862D03*
X0241458Y0105062D03*
X0241458Y0104962D03*
X0241458Y0104862D03*
X0241458Y0104762D03*
X0241458Y0104662D03*
X0241458Y0104562D03*
X0241458Y0104462D03*
X0241458Y0104362D03*
X0241458Y0104262D03*
X0241458Y0104162D03*
X0241458Y0104062D03*
X0241458Y0103962D03*
X0241458Y0103862D03*
X0241458Y0103762D03*
X0241558Y0103562D03*
X0241558Y0103462D03*
X0241558Y0103362D03*
X0241558Y0103262D03*
X0241558Y0103162D03*
X0241558Y0103062D03*
X0241658Y0102762D03*
X0241658Y0102662D03*
X0241758Y0102262D03*
X0241758Y0102162D03*
X0241858Y0101862D03*
X0241958Y0101462D03*
X0253758Y0111162D03*
X0257858Y0111162D03*
X0269158Y0108462D03*
X0271958Y0098962D03*
X0268958Y0075363D03*
X0223058Y0103762D03*
X0283058Y0120262D03*
X0322358Y0119162D03*
X0322858Y0118562D03*
X0322858Y0118462D03*
X0325458Y0126362D03*
X0325558Y0128962D03*
X0345858Y0126862D03*
X0351458Y0126062D03*
X0352458Y0127062D03*
X0352458Y0127162D03*
X0341358Y0115862D03*
X0341258Y0115762D03*
X0341158Y0115662D03*
X0341058Y0115562D03*
X0340958Y0115462D03*
X0340858Y0115362D03*
X0340758Y0115262D03*
X0340658Y0115162D03*
X0340558Y0115062D03*
X0340458Y0114962D03*
X0340358Y0114862D03*
X0339358Y0113862D03*
X0339258Y0113762D03*
X0339158Y0113662D03*
X0339058Y0113562D03*
X0338958Y0113462D03*
X0338858Y0113362D03*
X0338758Y0113262D03*
X0338658Y0113162D03*
X0338558Y0113062D03*
X0338458Y0112962D03*
X0338358Y0112862D03*
X0338258Y0112762D03*
X0338158Y0112662D03*
X0338058Y0112562D03*
X0337958Y0112462D03*
X0337858Y0112362D03*
X0337758Y0112262D03*
X0337658Y0112162D03*
X0337558Y0112062D03*
X0337458Y0111962D03*
X0337358Y0111862D03*
X0337258Y0111762D03*
X0337158Y0111662D03*
X0337058Y0111562D03*
X0336958Y0111462D03*
X0336858Y0111362D03*
X0336758Y0111262D03*
X0336658Y0111162D03*
X0336558Y0111062D03*
X0336458Y0110962D03*
X0336358Y0110862D03*
X0336258Y0110762D03*
X0336158Y0110662D03*
X0336058Y0110562D03*
X0335958Y0110462D03*
X0335858Y0110362D03*
X0335758Y0110262D03*
X0335658Y0110162D03*
X0335558Y0110062D03*
X0335258Y0109762D03*
X0335158Y0109662D03*
X0335058Y0109562D03*
X0334958Y0109462D03*
X0334858Y0109362D03*
X0334758Y0109262D03*
X0334658Y0109162D03*
X0333458Y0107962D03*
X0332258Y0106762D03*
X0332158Y0106662D03*
X0332058Y0106562D03*
X0331958Y0106462D03*
X0331858Y0106362D03*
X0331758Y0106262D03*
X0331658Y0106162D03*
X0331558Y0106062D03*
X0331458Y0105962D03*
X0331358Y0105862D03*
X0331258Y0105762D03*
X0331158Y0105662D03*
X0331058Y0105562D03*
X0330958Y0105462D03*
X0330858Y0105362D03*
X0330758Y0105262D03*
X0330658Y0105162D03*
X0330458Y0104962D03*
X0330358Y0104862D03*
X0330258Y0104762D03*
X0324658Y0099162D03*
X0324358Y0098762D03*
X0324258Y0098662D03*
X0338158Y0094562D03*
X0338258Y0094762D03*
X0341358Y0094862D03*
X0344558Y0094662D03*
X0344658Y0092262D03*
X0344558Y0092062D03*
X0344558Y0091962D03*
X0341358Y0088962D03*
X0342458Y0098762D03*
X0342058Y0099462D03*
D87*
X0341758Y0100162D03*
X0342758Y0098062D03*
X0341358Y0094462D03*
X0339058Y0095662D03*
X0343758Y0091062D03*
X0341358Y0089062D03*
X0323958Y0097962D03*
X0325058Y0099962D03*
X0323358Y0117562D03*
X0321858Y0120062D03*
X0342558Y0126762D03*
X0344058Y0118962D03*
X0273458Y0116862D03*
X0273458Y0116762D03*
X0273458Y0116662D03*
X0273458Y0116562D03*
X0273458Y0116462D03*
X0273458Y0116362D03*
X0273458Y0116262D03*
X0273458Y0116162D03*
X0273458Y0116062D03*
X0273458Y0115962D03*
X0273458Y0115862D03*
X0273458Y0115762D03*
X0273458Y0115662D03*
X0273458Y0115562D03*
X0273458Y0115462D03*
X0273358Y0115262D03*
X0273358Y0115162D03*
X0273358Y0115062D03*
X0273358Y0114962D03*
X0273358Y0114862D03*
X0273258Y0114562D03*
X0273258Y0114462D03*
X0273358Y0117062D03*
X0273358Y0117162D03*
X0273358Y0117262D03*
X0273358Y0117362D03*
X0273358Y0117462D03*
X0273258Y0117862D03*
X0273258Y0117962D03*
X0269458Y0108862D03*
X0267458Y0101362D03*
X0244158Y0097762D03*
X0233158Y0104262D03*
X0223058Y0103462D03*
X0273558Y0072863D03*
X0278458Y0070863D03*
D88*
X0248908Y0085263D03*
X0250408Y0094262D03*
X0245108Y0097062D03*
X0262908Y0103162D03*
X0269608Y0109062D03*
X0272408Y0112462D03*
X0272508Y0112562D03*
X0272808Y0119562D03*
X0272108Y0120762D03*
X0272008Y0120862D03*
X0271908Y0121062D03*
X0257808Y0122362D03*
X0249508Y0114562D03*
X0255808Y0112162D03*
X0223108Y0103262D03*
X0321508Y0120662D03*
X0333508Y0108662D03*
X0333408Y0107262D03*
X0341508Y0100662D03*
X0341308Y0093962D03*
X0341308Y0092662D03*
X0341408Y0089162D03*
X0323708Y0097462D03*
X0325208Y0100362D03*
X0344308Y0119462D03*
X0341808Y0127162D03*
D89*
X0341358Y0127362D03*
X0344558Y0119962D03*
X0341358Y0089262D03*
X0278058Y0071163D03*
X0245758Y0096662D03*
X0234858Y0095362D03*
X0234758Y0095562D03*
X0234658Y0095662D03*
X0234658Y0095762D03*
X0234558Y0095962D03*
X0234558Y0096062D03*
X0234458Y0096262D03*
X0234358Y0096562D03*
X0234258Y0096762D03*
X0269858Y0109462D03*
X0271658Y0111562D03*
X0271058Y0122162D03*
X0270958Y0122262D03*
X0270858Y0122362D03*
X0258558Y0123262D03*
D90*
X0258758Y0123462D03*
X0270458Y0122762D03*
X0270558Y0122662D03*
X0270658Y0122562D03*
X0271558Y0111462D03*
X0271458Y0111362D03*
X0269858Y0109562D03*
X0245958Y0096562D03*
X0235658Y0093862D03*
X0235558Y0094062D03*
X0235458Y0094162D03*
X0235458Y0094262D03*
X0235358Y0094362D03*
X0324458Y0127062D03*
X0324558Y0127162D03*
X0342558Y0097662D03*
X0344758Y0095462D03*
X0344858Y0095362D03*
X0344958Y0095262D03*
X0345358Y0094862D03*
X0345458Y0094762D03*
X0341358Y0089362D03*
D91*
X0341358Y0089462D03*
X0324258Y0126762D03*
X0324858Y0127262D03*
X0269958Y0123162D03*
X0269858Y0123262D03*
X0259158Y0123762D03*
X0248758Y0114262D03*
X0255858Y0111862D03*
X0270058Y0109862D03*
X0271058Y0111062D03*
X0250058Y0094462D03*
X0236758Y0092362D03*
X0236658Y0092462D03*
X0236558Y0092562D03*
X0219758Y0132563D03*
D92*
X0220958Y0132863D03*
X0229158Y0134563D03*
X0234758Y0133263D03*
X0259458Y0123962D03*
X0269458Y0123562D03*
X0270758Y0110862D03*
X0270158Y0110162D03*
X0255758Y0104762D03*
X0249958Y0094562D03*
X0237558Y0091462D03*
X0324058Y0126462D03*
X0345358Y0125562D03*
X0342358Y0097462D03*
X0341358Y0089562D03*
D93*
X0341358Y0089662D03*
X0278858Y0121662D03*
X0273258Y0120262D03*
X0269258Y0123662D03*
X0247558Y0113962D03*
X0263258Y0101362D03*
X0270258Y0110462D03*
X0223058Y0102362D03*
X0221358Y0132963D03*
D94*
X0255808Y0111562D03*
X0256608Y0110562D03*
X0255808Y0104962D03*
X0270308Y0110662D03*
X0273408Y0120362D03*
X0268908Y0123862D03*
X0223108Y0102162D03*
X0223108Y0102062D03*
X0223108Y0101962D03*
X0223108Y0101862D03*
X0223108Y0101762D03*
X0223108Y0101662D03*
X0223108Y0101562D03*
X0223108Y0101462D03*
X0223108Y0101362D03*
X0223108Y0101262D03*
X0223108Y0101162D03*
X0223108Y0101062D03*
X0223108Y0100962D03*
X0223108Y0100862D03*
X0223108Y0100762D03*
X0223108Y0100662D03*
X0223108Y0100562D03*
X0223108Y0100462D03*
X0223208Y0099862D03*
X0223208Y0099762D03*
X0223208Y0099662D03*
X0223208Y0099562D03*
X0223208Y0099462D03*
X0223208Y0099362D03*
X0223208Y0099262D03*
X0223208Y0099162D03*
X0223308Y0098462D03*
X0223308Y0098362D03*
X0223308Y0098262D03*
X0223308Y0098162D03*
X0223408Y0097562D03*
X0223408Y0097462D03*
X0223508Y0096862D03*
X0238508Y0090662D03*
X0341408Y0089762D03*
X0339508Y0128062D03*
D95*
X0339658Y0127862D03*
X0344558Y0126462D03*
X0325658Y0127362D03*
X0341358Y0089862D03*
X0263858Y0102362D03*
X0239058Y0090262D03*
X0238958Y0090362D03*
X0225058Y0090962D03*
X0224958Y0091162D03*
X0224958Y0091262D03*
X0224858Y0091462D03*
X0224858Y0091562D03*
X0224758Y0091662D03*
X0224758Y0091762D03*
X0224758Y0091862D03*
X0224658Y0091962D03*
X0224658Y0092062D03*
X0224658Y0092162D03*
X0224558Y0092262D03*
X0224558Y0092362D03*
X0224458Y0092662D03*
X0224358Y0092962D03*
X0222358Y0133163D03*
D96*
X0268458Y0124062D03*
X0263958Y0102262D03*
X0249558Y0094862D03*
X0226058Y0088762D03*
X0225958Y0088962D03*
X0225858Y0089162D03*
X0225758Y0089262D03*
X0225758Y0089362D03*
X0225658Y0089562D03*
X0225558Y0089762D03*
X0225458Y0089962D03*
X0277258Y0071863D03*
X0341358Y0089962D03*
X0342158Y0097162D03*
X0339758Y0127762D03*
D97*
X0339858Y0127662D03*
X0345058Y0117662D03*
X0342158Y0097062D03*
X0341358Y0090062D03*
X0277158Y0071963D03*
X0246258Y0074563D03*
X0226858Y0087362D03*
X0226758Y0087562D03*
X0226658Y0087662D03*
X0226558Y0087862D03*
X0226458Y0087962D03*
X0226458Y0088062D03*
X0226358Y0088162D03*
X0226258Y0088362D03*
X0239458Y0089962D03*
X0249458Y0094962D03*
D98*
X0239658Y0089862D03*
X0227458Y0086462D03*
X0227258Y0086762D03*
X0227158Y0086862D03*
X0227058Y0087062D03*
X0255058Y0109962D03*
X0264058Y0102162D03*
X0268158Y0124162D03*
X0339858Y0127562D03*
X0344958Y0117462D03*
X0341358Y0090162D03*
X0277058Y0072063D03*
D99*
X0240058Y0089662D03*
X0227958Y0085763D03*
X0227858Y0085863D03*
X0227858Y0085963D03*
X0227758Y0086063D03*
X0227658Y0086163D03*
X0245458Y0113562D03*
X0341358Y0090262D03*
X0344858Y0117262D03*
D100*
X0344758Y0117062D03*
X0341358Y0090362D03*
X0276958Y0072163D03*
X0228458Y0085163D03*
X0228358Y0085263D03*
X0228258Y0085363D03*
X0255758Y0110862D03*
X0229058Y0134463D03*
D101*
X0256458Y0107262D03*
X0249058Y0095362D03*
X0229058Y0084463D03*
X0228958Y0084563D03*
X0228858Y0084663D03*
X0228758Y0084763D03*
X0341358Y0090462D03*
X0341358Y0090562D03*
X0342058Y0096762D03*
X0344658Y0116862D03*
D102*
X0344558Y0116662D03*
X0342058Y0096662D03*
X0341358Y0090662D03*
X0256458Y0108862D03*
X0255158Y0108762D03*
X0248958Y0095462D03*
X0229458Y0084063D03*
X0229358Y0084163D03*
X0229258Y0084263D03*
X0229158Y0084363D03*
X0245958Y0074663D03*
D103*
X0229858Y0083663D03*
X0229758Y0083763D03*
X0229658Y0083863D03*
X0240858Y0089262D03*
X0247658Y0085763D03*
X0264458Y0101762D03*
X0255758Y0106062D03*
X0276658Y0072463D03*
X0341358Y0090762D03*
X0342058Y0096562D03*
X0344458Y0116462D03*
D104*
X0344158Y0116062D03*
X0334258Y0129662D03*
X0334258Y0129762D03*
X0342058Y0096462D03*
X0341358Y0090862D03*
X0278958Y0121262D03*
X0264558Y0101662D03*
X0244558Y0113462D03*
X0241058Y0089162D03*
X0230158Y0083363D03*
X0230058Y0083463D03*
D105*
X0273358Y0077563D03*
X0332558Y0090962D03*
X0332558Y0128762D03*
D106*
X0342408Y0126862D03*
X0344108Y0119062D03*
X0333508Y0108462D03*
X0333408Y0107462D03*
X0341708Y0100262D03*
X0342808Y0097962D03*
X0341308Y0094362D03*
X0341308Y0092262D03*
X0343608Y0090962D03*
X0325108Y0100062D03*
X0323908Y0097862D03*
X0321808Y0120162D03*
X0273408Y0116962D03*
X0273308Y0117562D03*
X0273308Y0117662D03*
X0273308Y0117762D03*
X0273208Y0118062D03*
X0273208Y0118162D03*
X0273208Y0118262D03*
X0273108Y0118362D03*
X0273108Y0118462D03*
X0273108Y0118562D03*
X0273008Y0118762D03*
X0273008Y0118862D03*
X0273408Y0115362D03*
X0273308Y0114762D03*
X0273308Y0114662D03*
X0273208Y0114362D03*
X0273208Y0114262D03*
X0273208Y0114162D03*
X0273108Y0113962D03*
X0273108Y0113862D03*
X0273008Y0113662D03*
X0267008Y0101562D03*
X0262808Y0103262D03*
X0262408Y0102062D03*
X0255808Y0112262D03*
X0257008Y0120462D03*
X0257008Y0120562D03*
X0257008Y0120662D03*
X0257108Y0120762D03*
X0257108Y0120862D03*
X0257208Y0121162D03*
X0244308Y0097662D03*
X0244408Y0097562D03*
X0274008Y0072663D03*
X0218908Y0132163D03*
D107*
X0228608Y0133463D03*
X0267708Y0096762D03*
X0267508Y0095162D03*
X0273608Y0079063D03*
X0242808Y0076763D03*
X0332408Y0091062D03*
D108*
X0332308Y0091162D03*
X0332408Y0128862D03*
X0267708Y0096862D03*
X0267508Y0095262D03*
X0273508Y0077263D03*
D109*
X0272308Y0073463D03*
X0243708Y0098262D03*
X0243608Y0098362D03*
X0243508Y0098462D03*
X0243408Y0098662D03*
X0243308Y0098762D03*
X0255808Y0104162D03*
X0269308Y0108662D03*
X0230108Y0114962D03*
X0223108Y0103562D03*
X0322008Y0119762D03*
X0322508Y0126062D03*
X0322608Y0126162D03*
X0343408Y0117762D03*
X0343908Y0118662D03*
X0345908Y0126662D03*
X0333508Y0108262D03*
X0333408Y0107662D03*
X0324908Y0099662D03*
X0324108Y0098262D03*
X0338908Y0095562D03*
X0341308Y0092062D03*
X0343908Y0091162D03*
X0344008Y0091262D03*
X0342708Y0098262D03*
D110*
X0332208Y0091262D03*
X0273808Y0078663D03*
X0267408Y0095462D03*
X0238108Y0114162D03*
D111*
X0267508Y0097262D03*
X0272508Y0078063D03*
X0273908Y0078463D03*
X0332108Y0091362D03*
D112*
X0338608Y0095262D03*
X0338708Y0095362D03*
X0341308Y0091962D03*
X0344108Y0091362D03*
X0344208Y0091462D03*
X0341908Y0099762D03*
X0333408Y0107762D03*
X0333508Y0108162D03*
X0324808Y0099462D03*
X0324208Y0098462D03*
X0323008Y0118262D03*
X0322108Y0119562D03*
X0322408Y0125962D03*
X0343508Y0117962D03*
X0343808Y0118462D03*
X0345908Y0126762D03*
X0282908Y0120362D03*
X0262508Y0103462D03*
X0269908Y0100162D03*
X0270108Y0100062D03*
X0270308Y0099962D03*
X0270508Y0099862D03*
X0257608Y0111262D03*
X0242808Y0099562D03*
X0242808Y0099462D03*
X0242908Y0099362D03*
X0243008Y0099262D03*
X0243008Y0099162D03*
X0243108Y0099062D03*
X0242708Y0099662D03*
X0223108Y0103662D03*
D113*
X0243158Y0076463D03*
X0273658Y0076863D03*
X0332058Y0091462D03*
X0228658Y0133563D03*
D114*
X0230708Y0132763D03*
X0267408Y0097362D03*
X0267208Y0095862D03*
X0273908Y0078363D03*
X0332008Y0091562D03*
X0330508Y0127462D03*
D115*
X0331958Y0091662D03*
X0273958Y0078263D03*
X0237958Y0079463D03*
D116*
X0268508Y0096462D03*
X0240108Y0113262D03*
X0331908Y0091762D03*
D117*
X0337908Y0092662D03*
X0337908Y0092762D03*
X0337908Y0092862D03*
X0337908Y0092962D03*
X0338008Y0094162D03*
X0338008Y0094262D03*
X0338108Y0094362D03*
X0338108Y0094462D03*
X0338208Y0094662D03*
X0341308Y0091762D03*
X0344608Y0092162D03*
X0344708Y0092362D03*
X0344708Y0092462D03*
X0344708Y0092562D03*
X0344708Y0094162D03*
X0344708Y0094262D03*
X0344608Y0094362D03*
X0344608Y0094462D03*
X0344608Y0094562D03*
X0342408Y0098862D03*
X0342108Y0099362D03*
X0330608Y0105062D03*
X0330208Y0104662D03*
X0330108Y0104562D03*
X0330008Y0104462D03*
X0329908Y0104362D03*
X0329808Y0104262D03*
X0329708Y0104162D03*
X0329608Y0104062D03*
X0329508Y0103962D03*
X0329408Y0103862D03*
X0329308Y0103762D03*
X0329208Y0103662D03*
X0329108Y0103562D03*
X0329008Y0103462D03*
X0328908Y0103362D03*
X0328808Y0103262D03*
X0328708Y0103162D03*
X0328608Y0103062D03*
X0328508Y0102962D03*
X0328408Y0102862D03*
X0328308Y0102762D03*
X0328208Y0102662D03*
X0328108Y0102562D03*
X0328008Y0102462D03*
X0327908Y0102362D03*
X0327808Y0102262D03*
X0327708Y0102162D03*
X0327608Y0102062D03*
X0327508Y0101962D03*
X0327408Y0101862D03*
X0327308Y0101762D03*
X0327208Y0101662D03*
X0327108Y0101562D03*
X0327008Y0101462D03*
X0326908Y0101362D03*
X0326808Y0101262D03*
X0326708Y0101162D03*
X0326608Y0101062D03*
X0326508Y0100962D03*
X0326408Y0100862D03*
X0324608Y0099062D03*
X0324508Y0098962D03*
X0324408Y0098862D03*
X0322608Y0097062D03*
X0322508Y0096962D03*
X0322408Y0096862D03*
X0322308Y0096762D03*
X0322208Y0096662D03*
X0322108Y0096562D03*
X0322008Y0096462D03*
X0321908Y0096362D03*
X0321808Y0096262D03*
X0321708Y0096162D03*
X0321608Y0096062D03*
X0321508Y0095962D03*
X0321408Y0095862D03*
X0321308Y0095762D03*
X0321208Y0095662D03*
X0321108Y0095562D03*
X0321008Y0095462D03*
X0320908Y0095362D03*
X0320808Y0095262D03*
X0320708Y0095162D03*
X0320608Y0095062D03*
X0320508Y0094962D03*
X0320408Y0094862D03*
X0320308Y0094762D03*
X0320208Y0094662D03*
X0320108Y0094562D03*
X0320008Y0094462D03*
X0319808Y0094262D03*
X0319708Y0094162D03*
X0319408Y0093862D03*
X0319308Y0093762D03*
X0325808Y0115662D03*
X0325308Y0116162D03*
X0325008Y0116462D03*
X0324908Y0116562D03*
X0322808Y0118662D03*
X0322708Y0118762D03*
X0322608Y0118862D03*
X0322508Y0118962D03*
X0322408Y0119062D03*
X0320308Y0121162D03*
X0320208Y0121262D03*
X0320108Y0121362D03*
X0320008Y0121462D03*
X0319908Y0121562D03*
X0319808Y0121662D03*
X0319708Y0121762D03*
X0319608Y0121862D03*
X0319508Y0121962D03*
X0319408Y0122062D03*
X0319308Y0122162D03*
X0319208Y0122262D03*
X0319108Y0122362D03*
X0319008Y0122462D03*
X0318908Y0122562D03*
X0318808Y0122662D03*
X0318708Y0122762D03*
X0318608Y0122862D03*
X0318508Y0122962D03*
X0318408Y0123062D03*
X0318308Y0123162D03*
X0318208Y0123262D03*
X0318108Y0123362D03*
X0318008Y0123462D03*
X0317908Y0123562D03*
X0317808Y0123662D03*
X0317708Y0123762D03*
X0317608Y0123862D03*
X0317508Y0123962D03*
X0317408Y0124062D03*
X0317308Y0124162D03*
X0317208Y0124262D03*
X0317108Y0124362D03*
X0317008Y0124462D03*
X0316908Y0124562D03*
X0316808Y0124662D03*
X0316708Y0124762D03*
X0316608Y0124862D03*
X0316508Y0124962D03*
X0316408Y0125062D03*
X0316308Y0125162D03*
X0316208Y0125262D03*
X0316108Y0125362D03*
X0322208Y0125662D03*
X0325508Y0125662D03*
X0325508Y0125562D03*
X0325508Y0125462D03*
X0325508Y0125362D03*
X0325508Y0125262D03*
X0325508Y0125762D03*
X0325508Y0125862D03*
X0325508Y0125962D03*
X0325508Y0126062D03*
X0325508Y0126162D03*
X0325508Y0126262D03*
X0325508Y0129062D03*
X0325508Y0129162D03*
X0325508Y0129262D03*
X0325508Y0129362D03*
X0325508Y0129462D03*
X0325508Y0129562D03*
X0325508Y0129662D03*
X0352508Y0127262D03*
X0273008Y0098262D03*
X0262408Y0103562D03*
X0241408Y0105162D03*
X0241408Y0105262D03*
X0233108Y0104662D03*
X0228108Y0116162D03*
X0257408Y0120262D03*
X0268408Y0075763D03*
X0268708Y0075563D03*
D118*
X0269408Y0075063D03*
X0270108Y0074663D03*
X0278708Y0070663D03*
X0271308Y0099362D03*
X0253908Y0105262D03*
X0242108Y0101162D03*
X0242108Y0101062D03*
X0242108Y0100962D03*
X0242208Y0100762D03*
X0242308Y0100462D03*
X0242008Y0101262D03*
X0242008Y0101362D03*
X0241908Y0101562D03*
X0241908Y0101662D03*
X0241908Y0101762D03*
X0241808Y0101962D03*
X0241808Y0102062D03*
X0241708Y0102362D03*
X0241708Y0102462D03*
X0241708Y0102562D03*
X0241608Y0102862D03*
X0241608Y0102962D03*
X0241508Y0103662D03*
X0233108Y0104562D03*
X0322208Y0119362D03*
X0322308Y0119262D03*
X0325508Y0125162D03*
X0322308Y0125762D03*
X0339408Y0113962D03*
X0341408Y0115962D03*
X0343608Y0118162D03*
X0343708Y0118262D03*
X0347108Y0121662D03*
X0347208Y0121762D03*
X0347308Y0121862D03*
X0347408Y0121962D03*
X0347508Y0122062D03*
X0347608Y0122162D03*
X0347708Y0122262D03*
X0347808Y0122362D03*
X0347908Y0122462D03*
X0348008Y0122562D03*
X0348108Y0122662D03*
X0348208Y0122762D03*
X0348308Y0122862D03*
X0348408Y0122962D03*
X0348508Y0123062D03*
X0348608Y0123162D03*
X0348708Y0123262D03*
X0348808Y0123362D03*
X0348908Y0123462D03*
X0349008Y0123562D03*
X0349108Y0123662D03*
X0349208Y0123762D03*
X0349308Y0123862D03*
X0349408Y0123962D03*
X0349508Y0124062D03*
X0349608Y0124162D03*
X0349708Y0124262D03*
X0349808Y0124362D03*
X0349908Y0124462D03*
X0350008Y0124562D03*
X0350108Y0124662D03*
X0350208Y0124762D03*
X0350308Y0124862D03*
X0350408Y0124962D03*
X0350508Y0125062D03*
X0350608Y0125162D03*
X0350708Y0125262D03*
X0350808Y0125362D03*
X0350908Y0125462D03*
X0351008Y0125562D03*
X0351108Y0125662D03*
X0351208Y0125762D03*
X0351308Y0125862D03*
X0351408Y0125962D03*
X0351608Y0126162D03*
X0351708Y0126262D03*
X0351808Y0126362D03*
X0351808Y0126462D03*
X0352008Y0126562D03*
X0352108Y0126662D03*
X0352408Y0126962D03*
X0335508Y0109962D03*
X0335408Y0109862D03*
X0333508Y0108062D03*
X0333408Y0107862D03*
X0342008Y0099562D03*
X0342508Y0098662D03*
X0338508Y0095162D03*
X0338408Y0095062D03*
X0338408Y0094962D03*
X0338308Y0094862D03*
X0341308Y0091862D03*
X0344408Y0091762D03*
X0344508Y0091862D03*
X0324708Y0099262D03*
X0324208Y0098562D03*
D119*
X0331758Y0092062D03*
X0331858Y0091962D03*
X0331858Y0091862D03*
X0273858Y0076563D03*
X0267358Y0097562D03*
X0237958Y0114062D03*
X0243258Y0076363D03*
D120*
X0273908Y0076463D03*
X0331708Y0092162D03*
X0331708Y0092262D03*
D121*
X0341308Y0092162D03*
X0341808Y0100062D03*
X0333408Y0107562D03*
X0333508Y0108362D03*
X0325008Y0099862D03*
X0324008Y0098062D03*
X0323308Y0117662D03*
X0323308Y0117762D03*
X0321908Y0119962D03*
X0342708Y0126662D03*
X0345908Y0126562D03*
X0344008Y0118862D03*
X0282808Y0120462D03*
X0269408Y0108762D03*
X0267908Y0101162D03*
X0249908Y0114762D03*
X0243908Y0098062D03*
X0244008Y0097962D03*
X0244108Y0097862D03*
X0272908Y0073163D03*
D122*
X0243358Y0076263D03*
X0331658Y0092362D03*
X0331658Y0092462D03*
X0331658Y0092562D03*
D123*
X0339258Y0095762D03*
X0341358Y0092362D03*
X0342858Y0097862D03*
X0341658Y0100362D03*
X0325158Y0100162D03*
X0323858Y0097762D03*
X0323458Y0117462D03*
X0321758Y0120262D03*
X0342258Y0126962D03*
X0345058Y0123362D03*
X0344158Y0119162D03*
X0278858Y0121862D03*
X0275658Y0120662D03*
X0272858Y0119262D03*
X0272858Y0119162D03*
X0272958Y0119062D03*
X0272958Y0118962D03*
X0273058Y0118662D03*
X0273158Y0114062D03*
X0273058Y0113762D03*
X0272958Y0113562D03*
X0272958Y0113462D03*
X0272858Y0113262D03*
X0269558Y0108962D03*
X0255758Y0104262D03*
X0244658Y0097362D03*
X0244558Y0097462D03*
X0233158Y0104162D03*
X0257158Y0120962D03*
X0257158Y0121062D03*
X0257258Y0121262D03*
X0257258Y0121362D03*
X0257358Y0121562D03*
X0274758Y0072363D03*
D124*
X0275008Y0072263D03*
X0278308Y0070963D03*
X0244808Y0097262D03*
X0233108Y0104062D03*
X0223108Y0103362D03*
X0257308Y0121462D03*
X0257408Y0121662D03*
X0257508Y0121862D03*
X0272808Y0119462D03*
X0272808Y0119362D03*
X0272908Y0113362D03*
X0272808Y0113162D03*
X0272708Y0112962D03*
X0282608Y0120562D03*
X0266308Y0101862D03*
X0266008Y0101962D03*
X0263708Y0101562D03*
X0323808Y0097662D03*
X0325208Y0100262D03*
X0333408Y0107362D03*
X0333508Y0108562D03*
X0341608Y0100462D03*
X0342908Y0097762D03*
X0341308Y0094262D03*
X0341308Y0092462D03*
X0323508Y0117262D03*
X0323508Y0117362D03*
X0321708Y0120362D03*
X0342008Y0127062D03*
X0344208Y0119262D03*
D125*
X0344258Y0119362D03*
X0323558Y0117162D03*
X0321658Y0120462D03*
X0321558Y0120562D03*
X0341558Y0100562D03*
X0341358Y0094162D03*
X0341358Y0094062D03*
X0341358Y0092562D03*
X0323758Y0097562D03*
X0272758Y0113062D03*
X0272658Y0112862D03*
X0272558Y0112762D03*
X0272558Y0112662D03*
X0272158Y0120662D03*
X0257758Y0122262D03*
X0257658Y0122162D03*
X0257658Y0122062D03*
X0257558Y0121962D03*
X0257458Y0121762D03*
X0254458Y0111262D03*
X0262558Y0101962D03*
X0265758Y0102062D03*
X0244958Y0097162D03*
X0233158Y0103962D03*
D126*
X0233158Y0103862D03*
X0239558Y0112262D03*
X0257858Y0122462D03*
X0257958Y0122562D03*
X0271758Y0121262D03*
X0271858Y0121162D03*
X0271958Y0120962D03*
X0272858Y0119662D03*
X0272358Y0112362D03*
X0272258Y0112262D03*
X0269658Y0109162D03*
X0282258Y0120662D03*
X0321458Y0120762D03*
X0323658Y0117062D03*
X0323758Y0116862D03*
X0344358Y0119562D03*
X0341458Y0100762D03*
X0341358Y0093862D03*
X0341358Y0093762D03*
X0341358Y0092862D03*
X0341358Y0092762D03*
X0325258Y0100462D03*
X0278558Y0072263D03*
X0278158Y0071063D03*
D127*
X0276908Y0071563D03*
X0276608Y0071663D03*
X0245208Y0096962D03*
X0233508Y0099662D03*
X0233408Y0100162D03*
X0233408Y0100262D03*
X0233408Y0100362D03*
X0233308Y0100862D03*
X0233308Y0100962D03*
X0233308Y0101062D03*
X0233308Y0101162D03*
X0233308Y0101262D03*
X0233208Y0101662D03*
X0233208Y0101762D03*
X0233208Y0101862D03*
X0233208Y0101962D03*
X0233208Y0102062D03*
X0233208Y0102162D03*
X0233208Y0102262D03*
X0233208Y0102362D03*
X0233208Y0102462D03*
X0233208Y0102562D03*
X0233208Y0102662D03*
X0233108Y0103262D03*
X0233108Y0103362D03*
X0233108Y0103462D03*
X0233108Y0103562D03*
X0233108Y0103662D03*
X0233108Y0103762D03*
X0223108Y0103162D03*
X0255808Y0104362D03*
X0257008Y0105262D03*
X0264408Y0102562D03*
X0264708Y0102462D03*
X0272108Y0112062D03*
X0272208Y0112162D03*
X0271708Y0121362D03*
X0271608Y0121462D03*
X0258108Y0122762D03*
X0258008Y0122662D03*
X0321408Y0120862D03*
X0323708Y0116962D03*
X0323808Y0116762D03*
X0333508Y0108762D03*
X0333408Y0107162D03*
X0341408Y0100862D03*
X0341308Y0093662D03*
X0341308Y0093562D03*
X0341308Y0093462D03*
X0341308Y0093362D03*
X0341308Y0093262D03*
X0341308Y0093162D03*
X0341308Y0093062D03*
X0341308Y0092962D03*
X0325308Y0100562D03*
X0323708Y0097362D03*
X0344408Y0119662D03*
X0341608Y0127262D03*
D128*
X0342858Y0126562D03*
X0343958Y0118762D03*
X0323258Y0117862D03*
X0323158Y0117962D03*
X0321958Y0119862D03*
X0321658Y0123362D03*
X0322758Y0126262D03*
X0322858Y0126362D03*
X0324958Y0099762D03*
X0324058Y0098162D03*
X0341358Y0094562D03*
X0342758Y0098162D03*
X0341858Y0099962D03*
X0268558Y0100862D03*
X0262658Y0103362D03*
X0250658Y0094162D03*
X0243758Y0098162D03*
X0233158Y0104362D03*
X0230558Y0114762D03*
X0257158Y0120362D03*
D129*
X0263858Y0127162D03*
X0269258Y0108562D03*
X0269558Y0100362D03*
X0269758Y0100262D03*
X0243458Y0098562D03*
X0243258Y0098862D03*
X0243158Y0098962D03*
X0233158Y0104462D03*
X0218758Y0132063D03*
X0278558Y0070763D03*
X0324158Y0098362D03*
X0324858Y0099562D03*
X0338758Y0095462D03*
X0341358Y0094662D03*
X0342658Y0098362D03*
X0342658Y0098462D03*
X0341858Y0099862D03*
X0343458Y0117862D03*
X0343858Y0118562D03*
X0323058Y0118162D03*
X0323058Y0118062D03*
X0322058Y0119662D03*
D130*
X0333508Y0108962D03*
X0333408Y0106962D03*
X0345108Y0095162D03*
X0345208Y0095062D03*
X0345308Y0094962D03*
X0344608Y0120062D03*
X0281808Y0120762D03*
X0273008Y0119862D03*
X0270808Y0122462D03*
X0258608Y0123362D03*
X0255808Y0104462D03*
X0263208Y0102962D03*
X0250208Y0094362D03*
X0235308Y0094462D03*
X0235208Y0094562D03*
X0235208Y0094662D03*
X0235108Y0094762D03*
X0235108Y0094862D03*
X0235008Y0094962D03*
X0235008Y0095062D03*
X0234908Y0095162D03*
X0234908Y0095262D03*
X0234808Y0095462D03*
X0223108Y0102962D03*
D131*
X0223108Y0102862D03*
X0235608Y0093962D03*
X0235708Y0093762D03*
X0235808Y0093662D03*
X0235808Y0093562D03*
X0235908Y0093462D03*
X0255808Y0111962D03*
X0269908Y0109662D03*
X0271308Y0111262D03*
X0273008Y0119962D03*
X0278908Y0121762D03*
X0258908Y0123562D03*
X0333508Y0109062D03*
X0333408Y0106862D03*
X0344608Y0095562D03*
X0341008Y0127462D03*
X0277908Y0071263D03*
X0276708Y0071763D03*
D132*
X0277808Y0071363D03*
X0236508Y0092662D03*
X0236408Y0092762D03*
X0236208Y0093062D03*
X0223108Y0102762D03*
X0255808Y0104562D03*
X0256808Y0105462D03*
X0271208Y0111162D03*
X0273108Y0120062D03*
X0270108Y0123062D03*
X0259008Y0123662D03*
X0235208Y0133163D03*
X0324308Y0126862D03*
X0339008Y0128562D03*
X0344408Y0095662D03*
D133*
X0344208Y0095762D03*
X0342408Y0097562D03*
X0345508Y0125162D03*
X0345508Y0125262D03*
X0339108Y0128462D03*
X0324208Y0126662D03*
X0269708Y0123362D03*
X0263908Y0126962D03*
X0259308Y0123862D03*
X0248408Y0114162D03*
X0254808Y0110962D03*
X0255808Y0106362D03*
X0255808Y0104662D03*
X0263408Y0102762D03*
X0270108Y0109962D03*
X0270908Y0110962D03*
X0246408Y0096362D03*
X0237008Y0092062D03*
X0236908Y0092162D03*
X0236808Y0092262D03*
X0248508Y0085363D03*
X0223108Y0102662D03*
X0233808Y0113662D03*
X0220108Y0132663D03*
D134*
X0247208Y0086063D03*
X0231908Y0081963D03*
X0276208Y0072963D03*
X0342108Y0095862D03*
D135*
X0342058Y0095962D03*
X0275058Y0073563D03*
X0241958Y0088862D03*
X0231758Y0082063D03*
X0264658Y0099962D03*
X0255758Y0108062D03*
X0255758Y0108162D03*
X0255758Y0108262D03*
X0255758Y0108362D03*
X0255758Y0108462D03*
D136*
X0255758Y0109062D03*
X0264558Y0100062D03*
X0278958Y0121062D03*
X0327458Y0127762D03*
X0342058Y0096062D03*
D137*
X0342058Y0096162D03*
X0327558Y0127862D03*
X0264458Y0100162D03*
X0255758Y0106962D03*
X0231258Y0082463D03*
X0229058Y0134363D03*
D138*
X0263958Y0126362D03*
X0278958Y0121162D03*
X0264358Y0100262D03*
X0247458Y0085863D03*
X0230858Y0082763D03*
X0230758Y0082863D03*
X0342058Y0096262D03*
D139*
X0342058Y0096362D03*
X0334258Y0126562D03*
X0334258Y0126662D03*
X0334258Y0126762D03*
X0334258Y0126862D03*
X0334258Y0126962D03*
X0334258Y0127062D03*
X0334258Y0127162D03*
X0334258Y0127262D03*
X0334258Y0127362D03*
X0276558Y0072563D03*
D140*
X0249208Y0095162D03*
X0240208Y0089562D03*
X0228208Y0085463D03*
X0228108Y0085563D03*
X0228008Y0085663D03*
X0255808Y0105562D03*
X0239608Y0113662D03*
X0342108Y0096862D03*
X0344808Y0117162D03*
D141*
X0344908Y0117362D03*
X0342108Y0096962D03*
X0278908Y0121462D03*
X0256508Y0109862D03*
X0255808Y0111062D03*
X0263808Y0100862D03*
X0249308Y0095062D03*
X0247708Y0096062D03*
X0239808Y0089762D03*
X0227608Y0086262D03*
X0227508Y0086362D03*
X0227408Y0086562D03*
X0227308Y0086662D03*
D142*
X0234608Y0095862D03*
X0234508Y0096162D03*
X0234408Y0096362D03*
X0234408Y0096462D03*
X0234308Y0096662D03*
X0234208Y0096862D03*
X0234208Y0096962D03*
X0234108Y0097162D03*
X0234108Y0097262D03*
X0234008Y0097462D03*
X0234008Y0097562D03*
X0234008Y0097662D03*
X0233908Y0097862D03*
X0233908Y0097962D03*
X0233808Y0098262D03*
X0233708Y0098662D03*
X0223108Y0103062D03*
X0249308Y0114462D03*
X0255808Y0112062D03*
X0269808Y0109362D03*
X0271808Y0111662D03*
X0271908Y0111762D03*
X0272908Y0119762D03*
X0271308Y0121862D03*
X0271208Y0121962D03*
X0271108Y0122062D03*
X0276108Y0120762D03*
X0258408Y0123162D03*
X0321308Y0121062D03*
X0333508Y0108862D03*
X0333408Y0107062D03*
X0325408Y0100762D03*
X0323608Y0097162D03*
X0344508Y0119862D03*
X0278408Y0072363D03*
D143*
X0245558Y0096762D03*
X0245358Y0096862D03*
X0234158Y0097062D03*
X0234058Y0097362D03*
X0233958Y0097762D03*
X0233858Y0098062D03*
X0233858Y0098162D03*
X0233758Y0098362D03*
X0233758Y0098462D03*
X0233758Y0098562D03*
X0233658Y0098762D03*
X0233658Y0098862D03*
X0233658Y0098962D03*
X0233658Y0099062D03*
X0233558Y0099162D03*
X0233558Y0099262D03*
X0233558Y0099362D03*
X0233558Y0099462D03*
X0233558Y0099562D03*
X0233458Y0099762D03*
X0233458Y0099862D03*
X0233458Y0099962D03*
X0233458Y0100062D03*
X0233358Y0100462D03*
X0233358Y0100562D03*
X0233358Y0100662D03*
X0233358Y0100762D03*
X0233258Y0101362D03*
X0233258Y0101462D03*
X0233258Y0101562D03*
X0233158Y0102762D03*
X0233158Y0102862D03*
X0233158Y0102962D03*
X0233158Y0103062D03*
X0233158Y0103162D03*
X0232658Y0113962D03*
X0219258Y0132363D03*
X0229258Y0133363D03*
X0258158Y0122862D03*
X0258258Y0122962D03*
X0258358Y0123062D03*
X0263858Y0127062D03*
X0271358Y0121762D03*
X0271458Y0121662D03*
X0271558Y0121562D03*
X0272058Y0111962D03*
X0271958Y0111862D03*
X0269758Y0109262D03*
X0263058Y0103062D03*
X0323658Y0097262D03*
X0325358Y0100662D03*
X0323858Y0116662D03*
X0321358Y0120962D03*
X0344458Y0119762D03*
D144*
X0344608Y0126362D03*
X0339608Y0127962D03*
X0342208Y0097262D03*
X0268708Y0123962D03*
X0255808Y0111462D03*
X0256608Y0110462D03*
X0255808Y0105062D03*
X0249708Y0094762D03*
X0238808Y0090462D03*
X0224508Y0092462D03*
X0224508Y0092562D03*
X0224408Y0092762D03*
X0224408Y0092862D03*
X0224308Y0093062D03*
X0224308Y0093162D03*
X0224308Y0093262D03*
X0224208Y0093362D03*
X0224208Y0093462D03*
X0224208Y0093562D03*
X0224208Y0093662D03*
X0224108Y0093762D03*
X0224108Y0093862D03*
X0224108Y0093962D03*
X0224108Y0094062D03*
X0224008Y0094162D03*
X0224008Y0094262D03*
X0224008Y0094362D03*
X0223908Y0094662D03*
X0223908Y0094762D03*
X0223808Y0095162D03*
X0223808Y0095262D03*
X0223708Y0095662D03*
X0246608Y0113762D03*
X0234108Y0133363D03*
D145*
X0247158Y0113862D03*
X0254958Y0105862D03*
X0249758Y0094662D03*
X0238358Y0090762D03*
X0238258Y0090862D03*
X0270258Y0110562D03*
X0277858Y0072863D03*
X0342258Y0097362D03*
X0345058Y0125962D03*
X0344958Y0126062D03*
D146*
X0334908Y0114062D03*
X0278908Y0121562D03*
X0273508Y0120462D03*
X0256608Y0110362D03*
X0255808Y0111362D03*
X0255808Y0107662D03*
X0255808Y0105162D03*
X0239608Y0112362D03*
X0239208Y0090162D03*
X0225708Y0089462D03*
X0225608Y0089662D03*
X0225508Y0089862D03*
X0225408Y0090062D03*
X0225408Y0090162D03*
X0225308Y0090262D03*
X0225308Y0090362D03*
X0225208Y0090462D03*
X0225208Y0090562D03*
X0225208Y0090662D03*
X0225108Y0090762D03*
X0225108Y0090862D03*
X0225008Y0091062D03*
X0224908Y0091362D03*
X0229208Y0133263D03*
D147*
X0265158Y0100962D03*
X0232658Y0081463D03*
X0336158Y0114162D03*
D148*
X0336208Y0114262D03*
X0279008Y0120862D03*
X0264008Y0126062D03*
D149*
X0246958Y0086262D03*
X0232858Y0081363D03*
X0275958Y0073263D03*
X0276258Y0074563D03*
X0336258Y0114362D03*
D150*
X0336308Y0114462D03*
X0233008Y0081263D03*
X0229008Y0134263D03*
D151*
X0233158Y0081163D03*
X0245258Y0074963D03*
X0275858Y0073363D03*
X0276158Y0074663D03*
X0336358Y0114562D03*
D152*
X0336408Y0114662D03*
X0264008Y0125962D03*
X0246808Y0086362D03*
D153*
X0233358Y0081063D03*
X0336458Y0114762D03*
D154*
X0335308Y0114862D03*
X0335308Y0114962D03*
X0335308Y0115062D03*
X0335308Y0115162D03*
X0335308Y0115262D03*
X0335308Y0115362D03*
X0335308Y0115462D03*
X0335308Y0115562D03*
X0335308Y0115662D03*
X0335308Y0115762D03*
X0335308Y0115862D03*
X0335308Y0115962D03*
X0335308Y0116062D03*
X0335308Y0116162D03*
X0335308Y0116262D03*
X0335308Y0116362D03*
X0335308Y0116462D03*
X0335308Y0116562D03*
X0344408Y0116362D03*
X0344408Y0116262D03*
X0334208Y0129862D03*
X0327908Y0128262D03*
X0264108Y0126562D03*
X0255808Y0110262D03*
X0255808Y0106162D03*
X0248508Y0095862D03*
X0248608Y0095762D03*
X0248708Y0095662D03*
X0248308Y0095962D03*
X0229908Y0083563D03*
X0239708Y0112462D03*
X0229108Y0133163D03*
D155*
X0255808Y0110162D03*
X0255808Y0110062D03*
X0255808Y0106262D03*
X0264308Y0100362D03*
X0230508Y0083063D03*
X0230408Y0083163D03*
X0230308Y0083263D03*
X0264008Y0126462D03*
X0327808Y0128162D03*
X0334208Y0129362D03*
X0334208Y0129462D03*
X0334208Y0129562D03*
X0334308Y0126462D03*
X0344308Y0116162D03*
D156*
X0344508Y0116562D03*
X0328008Y0128362D03*
X0328008Y0128462D03*
X0328108Y0128562D03*
X0264308Y0126662D03*
X0255808Y0105962D03*
X0248808Y0095562D03*
X0229508Y0083963D03*
D157*
X0240608Y0089362D03*
X0255108Y0109162D03*
X0255808Y0110662D03*
X0278908Y0121362D03*
X0264408Y0126762D03*
X0344608Y0116762D03*
D158*
X0344708Y0116962D03*
X0277208Y0073463D03*
X0275708Y0072763D03*
X0247808Y0085663D03*
X0240408Y0089462D03*
X0249108Y0095262D03*
X0255808Y0105662D03*
X0256508Y0109462D03*
X0264608Y0126862D03*
X0223608Y0133363D03*
X0228508Y0085063D03*
X0228608Y0084963D03*
X0228708Y0084863D03*
D159*
X0227108Y0086962D03*
X0227008Y0087162D03*
X0226908Y0087262D03*
X0226808Y0087462D03*
X0226608Y0087762D03*
X0248008Y0085563D03*
X0255808Y0105362D03*
X0235108Y0113462D03*
X0222908Y0133263D03*
X0273608Y0120562D03*
X0345008Y0117562D03*
D160*
X0345358Y0120162D03*
X0345358Y0120262D03*
X0345358Y0120362D03*
X0345358Y0120462D03*
X0345358Y0120562D03*
X0345358Y0120662D03*
X0345358Y0120762D03*
X0345358Y0120862D03*
X0345358Y0120962D03*
X0345358Y0121062D03*
X0345358Y0121162D03*
X0345358Y0121262D03*
X0345358Y0121362D03*
X0345358Y0121462D03*
X0345358Y0121562D03*
X0344858Y0126162D03*
X0344758Y0126262D03*
X0259958Y0124162D03*
X0223158Y0100362D03*
X0223158Y0100262D03*
X0223158Y0100162D03*
X0223158Y0100062D03*
X0223158Y0099962D03*
X0223258Y0099062D03*
X0223258Y0098962D03*
X0223258Y0098862D03*
X0223258Y0098762D03*
X0223258Y0098662D03*
X0223258Y0098562D03*
X0223358Y0098062D03*
X0223358Y0097962D03*
X0223358Y0097862D03*
X0223358Y0097762D03*
X0223358Y0097662D03*
X0223458Y0097362D03*
X0223458Y0097262D03*
X0223458Y0097162D03*
X0223458Y0097062D03*
X0223458Y0096962D03*
X0223558Y0096762D03*
X0223558Y0096662D03*
X0223558Y0096562D03*
X0223558Y0096462D03*
X0223558Y0096362D03*
X0223558Y0096262D03*
X0223658Y0096162D03*
X0223658Y0096062D03*
X0223658Y0095962D03*
X0223658Y0095862D03*
X0223658Y0095762D03*
X0223758Y0095562D03*
X0223758Y0095462D03*
X0223758Y0095362D03*
X0223858Y0095062D03*
X0223858Y0094962D03*
X0223858Y0094862D03*
X0223958Y0094562D03*
X0223958Y0094462D03*
X0238658Y0090562D03*
X0247058Y0096162D03*
X0248158Y0085463D03*
X0221858Y0133063D03*
D161*
X0233808Y0124462D03*
X0233908Y0124262D03*
X0234208Y0123762D03*
X0234508Y0123162D03*
X0234808Y0122662D03*
X0234908Y0122462D03*
X0333408Y0123462D03*
D162*
X0333458Y0123562D03*
D163*
X0333558Y0123662D03*
D164*
X0333608Y0123762D03*
D165*
X0333658Y0123862D03*
D166*
X0333708Y0123962D03*
X0333708Y0124062D03*
D167*
X0333758Y0124162D03*
D168*
X0333808Y0124262D03*
X0333808Y0124362D03*
D169*
X0333858Y0124462D03*
X0333858Y0124562D03*
X0333858Y0124662D03*
D170*
X0333908Y0124762D03*
X0333908Y0124862D03*
X0333908Y0124962D03*
X0333908Y0125062D03*
D171*
X0324158Y0126562D03*
X0345458Y0125362D03*
X0278058Y0072663D03*
X0276858Y0073163D03*
X0237158Y0091862D03*
X0237058Y0091962D03*
D172*
X0237308Y0091762D03*
X0237408Y0091662D03*
X0237508Y0091562D03*
X0223108Y0102562D03*
X0239508Y0113562D03*
X0248008Y0114062D03*
X0255808Y0111762D03*
X0263508Y0102662D03*
X0270108Y0110062D03*
X0273208Y0120162D03*
X0269608Y0123462D03*
X0220508Y0132763D03*
X0246708Y0074463D03*
X0277708Y0071463D03*
X0345408Y0125462D03*
X0339208Y0128362D03*
D173*
X0339308Y0128262D03*
X0345208Y0125762D03*
X0345308Y0125662D03*
X0270208Y0110362D03*
X0270208Y0110262D03*
X0256708Y0110762D03*
X0255808Y0111662D03*
X0246708Y0096262D03*
X0237908Y0091162D03*
X0237808Y0091262D03*
X0237708Y0091362D03*
X0223108Y0102462D03*
D174*
X0223108Y0102262D03*
X0234308Y0113562D03*
X0255808Y0104862D03*
X0256708Y0105762D03*
X0270508Y0110762D03*
X0269108Y0123762D03*
X0259708Y0124062D03*
X0238008Y0091062D03*
X0238108Y0090962D03*
X0339408Y0128162D03*
X0345108Y0125862D03*
D175*
X0324358Y0126962D03*
X0270358Y0122862D03*
X0270258Y0122962D03*
X0269958Y0109762D03*
X0263258Y0102862D03*
X0264158Y0101162D03*
X0246158Y0096462D03*
X0236358Y0092862D03*
X0236258Y0092962D03*
X0236158Y0093162D03*
X0236058Y0093262D03*
X0235958Y0093362D03*
D176*
X0232058Y0081863D03*
X0245458Y0074863D03*
X0239658Y0112562D03*
X0327358Y0127562D03*
D177*
X0327408Y0127662D03*
X0264008Y0126262D03*
X0255808Y0108962D03*
X0255808Y0108662D03*
X0255808Y0108562D03*
X0255808Y0107962D03*
X0255808Y0107862D03*
X0255808Y0107762D03*
X0255808Y0107562D03*
X0255808Y0107462D03*
X0264908Y0101262D03*
X0231608Y0082163D03*
D178*
X0231108Y0082563D03*
X0231008Y0082663D03*
X0245708Y0074763D03*
X0264708Y0101462D03*
X0255808Y0106762D03*
X0255808Y0106862D03*
X0255808Y0109562D03*
X0255808Y0109662D03*
X0255808Y0109762D03*
X0327608Y0127962D03*
D179*
X0327708Y0128062D03*
X0334308Y0129262D03*
X0255808Y0106662D03*
X0255808Y0106562D03*
X0255808Y0106462D03*
X0241308Y0089062D03*
X0230608Y0082963D03*
D180*
X0242608Y0076963D03*
X0267908Y0096362D03*
X0273308Y0077763D03*
X0332708Y0128662D03*
D181*
X0333558Y0128962D03*
X0264158Y0124762D03*
X0274558Y0075263D03*
D182*
X0244708Y0075263D03*
X0234808Y0080363D03*
X0334008Y0129062D03*
D183*
X0334608Y0129162D03*
X0279008Y0120962D03*
X0264008Y0126162D03*
X0264708Y0099862D03*
X0232208Y0081763D03*
X0276108Y0073063D03*
D184*
X0250708Y0094062D03*
X0262408Y0102562D03*
X0268208Y0107762D03*
X0353508Y0129262D03*
D185*
X0275658Y0073663D03*
X0274458Y0074363D03*
X0245058Y0075063D03*
X0246558Y0086562D03*
X0265558Y0100462D03*
X0239758Y0113962D03*
D186*
X0234158Y0080663D03*
X0275558Y0073763D03*
X0275858Y0075063D03*
D187*
X0275458Y0073863D03*
X0266858Y0099562D03*
X0234358Y0080563D03*
X0264058Y0125662D03*
D188*
X0265408Y0098962D03*
X0244908Y0075163D03*
X0275408Y0073963D03*
D189*
X0275358Y0074063D03*
X0275658Y0075363D03*
X0274458Y0076163D03*
X0246258Y0086862D03*
D190*
X0246158Y0086962D03*
X0243558Y0088562D03*
X0275258Y0074163D03*
X0264058Y0125462D03*
D191*
X0267108Y0099162D03*
X0275508Y0075563D03*
X0275208Y0074263D03*
D192*
X0275108Y0074463D03*
X0235308Y0080163D03*
X0264108Y0125262D03*
D193*
X0264108Y0125562D03*
X0239808Y0112762D03*
X0234608Y0080463D03*
X0274208Y0074763D03*
D194*
X0274758Y0074863D03*
X0273658Y0075663D03*
X0244258Y0075563D03*
X0245458Y0087662D03*
X0228858Y0133963D03*
D195*
X0244458Y0088462D03*
X0245158Y0087962D03*
X0245258Y0087862D03*
X0274758Y0074963D03*
D196*
X0274608Y0075163D03*
X0244108Y0075663D03*
X0267708Y0098162D03*
X0231208Y0133063D03*
D197*
X0266058Y0099762D03*
X0245958Y0087162D03*
X0244558Y0075363D03*
X0275358Y0075763D03*
D198*
X0244408Y0075463D03*
D199*
X0274458Y0075463D03*
X0266758Y0098662D03*
X0237658Y0113862D03*
D200*
X0264158Y0124662D03*
X0228858Y0133863D03*
X0266658Y0098862D03*
X0266358Y0097462D03*
X0243958Y0075763D03*
X0236558Y0079763D03*
D201*
X0243858Y0075863D03*
X0266858Y0098562D03*
X0267958Y0097662D03*
X0239958Y0113062D03*
D202*
X0264258Y0124262D03*
X0228758Y0133763D03*
X0274158Y0075863D03*
D203*
X0273108Y0076763D03*
X0266908Y0098362D03*
X0243708Y0075963D03*
X0231008Y0132963D03*
D204*
X0267958Y0095662D03*
X0274358Y0077463D03*
X0274158Y0075963D03*
X0243658Y0076063D03*
D205*
X0274108Y0076063D03*
X0266808Y0096662D03*
X0240008Y0113162D03*
D206*
X0267108Y0097962D03*
X0274008Y0076263D03*
X0243508Y0076163D03*
D207*
X0272808Y0077363D03*
X0273908Y0076363D03*
X0267208Y0097862D03*
X0228708Y0133663D03*
D208*
X0267358Y0095562D03*
X0272658Y0079863D03*
X0273858Y0078563D03*
X0243058Y0076563D03*
D209*
X0242958Y0076663D03*
X0267458Y0095362D03*
X0267658Y0096962D03*
X0273758Y0078763D03*
X0273558Y0077163D03*
X0240158Y0113362D03*
D210*
X0274808Y0076663D03*
D211*
X0267808Y0096562D03*
X0242708Y0076863D03*
X0238208Y0114262D03*
X0240208Y0114762D03*
D212*
X0264208Y0124462D03*
X0274608Y0076963D03*
D213*
X0273208Y0077963D03*
X0268008Y0096162D03*
X0242508Y0077063D03*
D214*
X0236908Y0079663D03*
X0274608Y0077063D03*
D215*
X0273108Y0078163D03*
X0267908Y0094262D03*
X0268008Y0096062D03*
X0242408Y0077163D03*
D216*
X0242308Y0077263D03*
D217*
X0242208Y0077363D03*
X0271808Y0079963D03*
X0273108Y0080363D03*
D218*
X0242108Y0077463D03*
D219*
X0242058Y0077563D03*
X0272958Y0080763D03*
X0238458Y0114462D03*
D220*
X0241908Y0077663D03*
D221*
X0268858Y0093362D03*
X0273358Y0077663D03*
D222*
X0272708Y0079163D03*
X0269608Y0093462D03*
X0268408Y0095062D03*
X0241808Y0077763D03*
X0230208Y0132363D03*
D223*
X0268508Y0094862D03*
X0241708Y0077863D03*
D224*
X0267958Y0096262D03*
X0273258Y0077863D03*
X0230458Y0132563D03*
D225*
X0238558Y0114562D03*
X0268558Y0094662D03*
X0272758Y0081463D03*
X0272658Y0079463D03*
X0272658Y0079363D03*
X0241658Y0077963D03*
D226*
X0241508Y0078063D03*
X0268608Y0094562D03*
X0272608Y0079563D03*
D227*
X0268608Y0092162D03*
X0241408Y0078163D03*
D228*
X0241358Y0078263D03*
X0268758Y0094162D03*
X0270958Y0085563D03*
D229*
X0270808Y0086163D03*
X0272508Y0082263D03*
X0272408Y0080063D03*
X0241208Y0078363D03*
X0239908Y0079263D03*
D230*
X0241158Y0078463D03*
X0268758Y0091662D03*
X0268758Y0094062D03*
X0272358Y0080263D03*
X0272358Y0080163D03*
D231*
X0268808Y0093862D03*
X0268808Y0093962D03*
X0241008Y0078563D03*
X0240908Y0078663D03*
X0240208Y0079163D03*
D232*
X0240358Y0079063D03*
X0240558Y0078963D03*
X0240658Y0078863D03*
X0240758Y0078763D03*
X0272258Y0080463D03*
X0272258Y0080563D03*
X0272258Y0082963D03*
X0230058Y0132163D03*
D233*
X0230858Y0132863D03*
X0273058Y0078863D03*
D234*
X0273658Y0078963D03*
X0230558Y0132663D03*
D235*
X0268458Y0094962D03*
X0269658Y0093262D03*
X0272858Y0081163D03*
X0272658Y0079263D03*
D236*
X0267858Y0094362D03*
X0269158Y0094762D03*
X0238858Y0079363D03*
D237*
X0237358Y0079563D03*
X0268258Y0097062D03*
D238*
X0268658Y0094462D03*
X0272658Y0081763D03*
X0272558Y0079663D03*
D239*
X0271858Y0079763D03*
D240*
X0266208Y0097762D03*
X0236208Y0079863D03*
D241*
X0235908Y0079963D03*
X0267208Y0097162D03*
D242*
X0245758Y0087362D03*
X0245658Y0087462D03*
X0235558Y0080063D03*
X0264158Y0125162D03*
D243*
X0246058Y0087062D03*
X0235058Y0080263D03*
D244*
X0268908Y0093562D03*
X0268908Y0093662D03*
X0270208Y0091362D03*
X0272208Y0083163D03*
X0272208Y0080663D03*
D245*
X0233908Y0080763D03*
X0264008Y0125762D03*
D246*
X0265508Y0100562D03*
X0233708Y0080863D03*
D247*
X0270308Y0091062D03*
X0272208Y0080863D03*
D248*
X0246658Y0086462D03*
X0233558Y0080963D03*
X0264058Y0125862D03*
D249*
X0269058Y0093162D03*
X0272158Y0080963D03*
D250*
X0272108Y0081063D03*
X0270708Y0083863D03*
X0269208Y0090062D03*
X0269108Y0092962D03*
X0269108Y0093062D03*
X0229908Y0132063D03*
D251*
X0269158Y0092862D03*
X0269158Y0092762D03*
X0270658Y0083963D03*
X0271958Y0084263D03*
X0272058Y0081263D03*
D252*
X0272008Y0081363D03*
X0270608Y0089762D03*
X0270608Y0089862D03*
X0269308Y0089562D03*
X0269208Y0092662D03*
X0241408Y0114962D03*
D253*
X0232508Y0081563D03*
D254*
X0269258Y0092462D03*
X0269258Y0092562D03*
X0269458Y0089062D03*
X0270458Y0084863D03*
X0271658Y0085263D03*
X0271758Y0084963D03*
X0271958Y0081663D03*
X0271958Y0081563D03*
X0238858Y0114862D03*
D255*
X0265058Y0101062D03*
X0247058Y0086163D03*
X0242258Y0088762D03*
X0232358Y0081663D03*
D256*
X0269358Y0092062D03*
X0269658Y0088162D03*
X0269858Y0087462D03*
X0270958Y0088362D03*
X0271358Y0086562D03*
X0271558Y0085863D03*
X0271858Y0081963D03*
X0271858Y0081863D03*
D257*
X0271808Y0082063D03*
X0271808Y0082163D03*
X0271208Y0087362D03*
X0269908Y0087062D03*
X0269408Y0091962D03*
X0229808Y0131963D03*
D258*
X0255808Y0109362D03*
X0255808Y0109262D03*
X0255808Y0107362D03*
X0255808Y0107162D03*
X0255808Y0107062D03*
X0266008Y0100762D03*
X0247308Y0085963D03*
X0241608Y0088962D03*
X0231508Y0082263D03*
X0231408Y0082363D03*
D259*
X0269458Y0091762D03*
X0269458Y0091862D03*
X0271758Y0082363D03*
D260*
X0271708Y0082463D03*
X0271708Y0082563D03*
X0269508Y0091562D03*
X0239408Y0116162D03*
D261*
X0269558Y0091462D03*
X0271658Y0082763D03*
X0271658Y0082663D03*
D262*
X0271608Y0082863D03*
X0271508Y0083063D03*
D263*
X0271458Y0083263D03*
X0269658Y0090962D03*
X0229758Y0131863D03*
D264*
X0270258Y0091262D03*
X0270258Y0091162D03*
X0272158Y0083363D03*
D265*
X0271408Y0083463D03*
X0271408Y0083563D03*
X0269708Y0090662D03*
X0269708Y0090762D03*
X0269708Y0090862D03*
X0228008Y0131363D03*
D266*
X0239058Y0115062D03*
X0269758Y0090562D03*
X0269758Y0090462D03*
X0269858Y0090362D03*
X0269858Y0090262D03*
X0271358Y0083763D03*
X0271358Y0083663D03*
D267*
X0271308Y0084063D03*
X0269908Y0089962D03*
X0269908Y0090162D03*
D268*
X0271158Y0084563D03*
X0271158Y0084463D03*
X0271258Y0084363D03*
X0271258Y0084163D03*
D269*
X0271108Y0084663D03*
X0271108Y0084763D03*
X0270108Y0089162D03*
X0270108Y0089262D03*
X0270008Y0089462D03*
X0270008Y0089662D03*
D270*
X0270058Y0089362D03*
X0270158Y0088862D03*
X0270258Y0088562D03*
X0270958Y0085463D03*
X0270958Y0085363D03*
X0271058Y0085163D03*
X0271058Y0085063D03*
X0240358Y0115862D03*
D271*
X0239108Y0115162D03*
X0240508Y0114362D03*
X0270208Y0088662D03*
X0270308Y0088262D03*
X0270408Y0087962D03*
X0270408Y0087862D03*
X0270608Y0086962D03*
X0270808Y0086063D03*
X0270808Y0085963D03*
X0270908Y0085763D03*
X0270908Y0085663D03*
D272*
X0270758Y0086262D03*
X0270758Y0086362D03*
X0270758Y0086462D03*
X0270658Y0086662D03*
X0270658Y0086762D03*
X0270658Y0086862D03*
X0270558Y0087162D03*
X0270558Y0087262D03*
X0270458Y0087562D03*
X0270458Y0087662D03*
X0270458Y0087762D03*
X0270358Y0088062D03*
D273*
X0246508Y0086662D03*
X0229008Y0134163D03*
D274*
X0246358Y0086762D03*
D275*
X0245858Y0087262D03*
X0266158Y0099662D03*
D276*
X0266258Y0099462D03*
X0266058Y0098062D03*
X0245558Y0087562D03*
X0264158Y0125062D03*
D277*
X0264108Y0124962D03*
X0237408Y0113762D03*
X0266408Y0099262D03*
X0245408Y0087762D03*
D278*
X0245058Y0088062D03*
X0244958Y0088162D03*
X0244758Y0088262D03*
X0244658Y0088362D03*
X0266558Y0099062D03*
X0239958Y0112962D03*
X0264158Y0124862D03*
D279*
X0246108Y0113662D03*
X0239308Y0090062D03*
X0226308Y0088262D03*
X0226208Y0088462D03*
X0226208Y0088562D03*
X0226108Y0088662D03*
X0226008Y0088862D03*
X0225908Y0089062D03*
D280*
X0269308Y0092262D03*
X0269308Y0092362D03*
X0269508Y0088762D03*
X0269608Y0088462D03*
X0270808Y0088962D03*
D281*
X0265108Y0099362D03*
X0265408Y0100662D03*
X0242808Y0088662D03*
X0239808Y0112662D03*
D282*
X0268058Y0093762D03*
D283*
X0267908Y0095762D03*
D284*
X0268058Y0095962D03*
D285*
X0265908Y0098262D03*
X0239908Y0112862D03*
D286*
X0264258Y0124362D03*
X0266858Y0098462D03*
D287*
X0266708Y0098762D03*
X0264208Y0124562D03*
D288*
X0240358Y0114662D03*
X0237958Y0117862D03*
X0228358Y0132263D03*
D289*
X0228958Y0131663D03*
X0238058Y0116462D03*
X0239758Y0115262D03*
D290*
X0239658Y0115362D03*
X0229758Y0129462D03*
D291*
X0229808Y0131463D03*
X0238908Y0115462D03*
D292*
X0239458Y0115562D03*
X0236558Y0119862D03*
X0231058Y0129962D03*
D293*
X0229308Y0131263D03*
X0239408Y0115662D03*
D294*
X0239308Y0115762D03*
X0230208Y0128862D03*
X0229508Y0131062D03*
D295*
X0229608Y0130862D03*
X0237208Y0117562D03*
X0239108Y0115962D03*
D296*
X0239058Y0116062D03*
X0231658Y0129062D03*
X0229758Y0130762D03*
D297*
X0229808Y0130662D03*
X0234708Y0122862D03*
X0238908Y0116262D03*
D298*
X0238808Y0116362D03*
X0232008Y0128562D03*
X0230008Y0130462D03*
D299*
X0230058Y0130362D03*
X0236658Y0118362D03*
X0238658Y0116562D03*
D300*
X0238608Y0116662D03*
X0230208Y0130162D03*
X0230108Y0130262D03*
D301*
X0231258Y0127362D03*
X0232358Y0128062D03*
X0236358Y0118862D03*
X0238458Y0116762D03*
D302*
X0238408Y0116862D03*
X0237308Y0119762D03*
X0231408Y0127162D03*
X0231308Y0127262D03*
D303*
X0232658Y0127562D03*
X0230458Y0129862D03*
X0236058Y0119362D03*
X0236158Y0119162D03*
X0238358Y0116962D03*
D304*
X0239258Y0117062D03*
X0228858Y0131763D03*
D305*
X0238208Y0117162D03*
D306*
X0238158Y0117262D03*
X0231758Y0126562D03*
X0230658Y0129562D03*
D307*
X0229008Y0131563D03*
X0239008Y0117362D03*
D308*
X0237958Y0117462D03*
X0230858Y0129262D03*
D309*
X0230908Y0129162D03*
X0232308Y0125662D03*
X0236408Y0121262D03*
X0237808Y0117662D03*
D310*
X0237758Y0117762D03*
X0236158Y0121662D03*
X0234958Y0121162D03*
X0234858Y0121362D03*
X0232758Y0124962D03*
X0232558Y0125262D03*
X0233858Y0125562D03*
X0231058Y0128962D03*
D311*
X0231208Y0128762D03*
X0234008Y0125362D03*
X0234108Y0125162D03*
X0233108Y0124362D03*
X0232908Y0124662D03*
X0234508Y0121962D03*
X0234608Y0121762D03*
X0234708Y0121562D03*
X0235808Y0122262D03*
X0235608Y0122562D03*
X0237608Y0117962D03*
D312*
X0237558Y0118062D03*
X0233858Y0123062D03*
X0233558Y0123562D03*
X0233258Y0124062D03*
X0234858Y0123862D03*
X0235158Y0123362D03*
X0231258Y0128662D03*
D313*
X0231408Y0128462D03*
X0237308Y0118462D03*
X0237408Y0118262D03*
X0237508Y0118162D03*
D314*
X0237258Y0118562D03*
X0231458Y0128362D03*
D315*
X0231508Y0128262D03*
X0231608Y0128162D03*
X0237108Y0118762D03*
X0237208Y0118662D03*
D316*
X0236958Y0118962D03*
X0231758Y0127962D03*
D317*
X0231808Y0127862D03*
X0231908Y0127662D03*
X0236908Y0119062D03*
D318*
X0236758Y0119262D03*
X0232058Y0127462D03*
X0231858Y0127762D03*
D319*
X0236608Y0119562D03*
X0236708Y0119462D03*
D320*
X0236558Y0119662D03*
X0236358Y0119962D03*
X0232358Y0126962D03*
X0232258Y0127062D03*
D321*
X0233108Y0126862D03*
X0232108Y0126062D03*
X0235608Y0120062D03*
D322*
X0236158Y0120262D03*
X0236158Y0120362D03*
X0236058Y0120462D03*
X0236258Y0120162D03*
X0232758Y0126262D03*
X0232658Y0126462D03*
D323*
X0232708Y0126362D03*
X0232808Y0126162D03*
X0235908Y0120762D03*
X0235908Y0120662D03*
X0236008Y0120562D03*
D324*
X0235858Y0120862D03*
X0235758Y0120962D03*
X0235758Y0121062D03*
X0233058Y0125762D03*
X0232958Y0125862D03*
X0232958Y0125962D03*
D325*
X0233208Y0125462D03*
X0235508Y0121462D03*
D326*
X0235258Y0121862D03*
X0235158Y0122062D03*
X0235058Y0122162D03*
X0234958Y0122362D03*
X0234758Y0122762D03*
X0234658Y0122962D03*
X0234458Y0123262D03*
X0234358Y0123462D03*
X0234258Y0123662D03*
X0234058Y0123962D03*
X0233958Y0124162D03*
X0233758Y0124562D03*
X0233658Y0124762D03*
X0233558Y0124862D03*
X0233458Y0125062D03*
D327*
X0228908Y0134063D03*
X0264108Y0125362D03*
D328*
X0232508Y0126662D03*
X0232508Y0126762D03*
D329*
X0231458Y0129362D03*
X0229558Y0130962D03*
D330*
X0231258Y0129662D03*
D331*
X0229508Y0129762D03*
D332*
X0229258Y0130062D03*
D333*
X0229858Y0130562D03*
D334*
X0230108Y0131163D03*
D335*
X0228158Y0132463D03*
D336*
X0351808Y0167913D02*
X0351863Y0167996D01*
X0351915Y0168081D01*
X0351964Y0168168D01*
X0352009Y0168257D01*
X0352051Y0168348D01*
X0352090Y0168439D01*
X0352125Y0168533D01*
X0352156Y0168627D01*
X0352184Y0168723D01*
X0352208Y0168820D01*
X0352229Y0168917D01*
X0352246Y0169016D01*
X0352259Y0169115D01*
X0352268Y0169214D01*
X0352274Y0169313D01*
X0352276Y0169413D01*
X0352274Y0169513D01*
X0352268Y0169612D01*
X0352259Y0169711D01*
X0352246Y0169810D01*
X0352229Y0169909D01*
X0352208Y0170006D01*
X0352184Y0170103D01*
X0352156Y0170199D01*
X0352125Y0170293D01*
X0352090Y0170387D01*
X0352051Y0170478D01*
X0352009Y0170569D01*
X0351964Y0170658D01*
X0351915Y0170745D01*
X0351863Y0170830D01*
X0351808Y0170913D01*
X0354808Y0174213D02*
X0354919Y0174099D01*
X0355027Y0173983D01*
X0355132Y0173864D01*
X0355234Y0173743D01*
X0355333Y0173619D01*
X0355428Y0173492D01*
X0355521Y0173363D01*
X0355610Y0173232D01*
X0355697Y0173099D01*
X0355779Y0172963D01*
X0355859Y0172826D01*
X0355935Y0172687D01*
X0356007Y0172546D01*
X0356076Y0172403D01*
X0356141Y0172258D01*
X0356203Y0172112D01*
X0356261Y0171964D01*
X0356315Y0171815D01*
X0356365Y0171664D01*
X0356412Y0171513D01*
X0356455Y0171360D01*
X0356494Y0171206D01*
X0356530Y0171052D01*
X0356561Y0170896D01*
X0356589Y0170740D01*
X0356612Y0170583D01*
X0356632Y0170426D01*
X0356648Y0170268D01*
X0356660Y0170109D01*
X0356668Y0169951D01*
X0356672Y0169792D01*
X0356672Y0169634D01*
X0356668Y0169475D01*
X0356660Y0169317D01*
X0356648Y0169158D01*
X0356632Y0169000D01*
X0356612Y0168843D01*
X0356589Y0168686D01*
X0356561Y0168530D01*
X0356530Y0168374D01*
X0356494Y0168220D01*
X0356455Y0168066D01*
X0356412Y0167913D01*
X0356365Y0167762D01*
X0356315Y0167611D01*
X0356261Y0167462D01*
X0356203Y0167314D01*
X0356141Y0167168D01*
X0356076Y0167023D01*
X0356007Y0166880D01*
X0355935Y0166739D01*
X0355859Y0166600D01*
X0355779Y0166463D01*
X0355697Y0166327D01*
X0355610Y0166194D01*
X0355521Y0166063D01*
X0355428Y0165934D01*
X0355333Y0165807D01*
X0355234Y0165683D01*
X0355132Y0165562D01*
X0355027Y0165443D01*
X0354919Y0165327D01*
X0354808Y0165213D01*
X0353258Y0166513D02*
X0353346Y0166611D01*
X0353430Y0166713D01*
X0353511Y0166816D01*
X0353590Y0166922D01*
X0353665Y0167030D01*
X0353737Y0167141D01*
X0353805Y0167253D01*
X0353870Y0167367D01*
X0353932Y0167484D01*
X0353991Y0167602D01*
X0354045Y0167721D01*
X0354097Y0167843D01*
X0354144Y0167966D01*
X0354188Y0168090D01*
X0354228Y0168215D01*
X0354265Y0168342D01*
X0354298Y0168469D01*
X0354327Y0168598D01*
X0354352Y0168727D01*
X0354373Y0168857D01*
X0354391Y0168987D01*
X0354404Y0169118D01*
X0354414Y0169250D01*
X0354420Y0169381D01*
X0354422Y0169513D01*
X0354420Y0169645D01*
X0354414Y0169776D01*
X0354404Y0169908D01*
X0354391Y0170039D01*
X0354373Y0170169D01*
X0354352Y0170299D01*
X0354327Y0170428D01*
X0354298Y0170557D01*
X0354265Y0170684D01*
X0354228Y0170811D01*
X0354188Y0170936D01*
X0354144Y0171060D01*
X0354097Y0171183D01*
X0354045Y0171305D01*
X0353991Y0171424D01*
X0353932Y0171542D01*
X0353870Y0171659D01*
X0353805Y0171773D01*
X0353737Y0171885D01*
X0353665Y0171996D01*
X0353590Y0172104D01*
X0353511Y0172210D01*
X0353430Y0172313D01*
X0353346Y0172415D01*
X0353258Y0172513D01*
M02*
